<?xml version="1.0" encoding="UTF-8"?>
<svg xmlns="http://www.w3.org/2000/svg" xmlns:xlink="http://www.w3.org/1999/xlink" width="67px" height="67px" viewBox="0 0 67 67" version="1.1">
<g id="surface1">
<path style=" stroke:none;fill-rule:nonzero;fill:rgb(91.764706%,26.274511%,59.607846%);fill-opacity:1;" d="M 21.453125 19.773438 C 21.578125 19.902344 21.578125 19.902344 21.578125 20.101562 C 21.644531 20.101562 21.707031 20.101562 21.773438 20.101562 C 21.773438 20.164062 21.773438 20.230469 21.773438 20.296875 C 21.832031 20.316406 21.886719 20.335938 21.945312 20.359375 C 22.25 20.542969 22.417969 20.804688 22.613281 21.097656 C 22.652344 21.15625 22.691406 21.214844 22.730469 21.273438 C 22.839844 21.441406 22.949219 21.609375 23.054688 21.773438 C 23.101562 21.84375 23.144531 21.914062 23.191406 21.984375 C 23.851562 23.140625 23.828125 24.503906 23.492188 25.746094 C 23.132812 26.839844 22.488281 27.769531 21.835938 28.710938 C 21.785156 28.785156 21.734375 28.859375 21.679688 28.933594 C 21.605469 29.039062 21.605469 29.039062 21.53125 29.140625 C 21.488281 29.203125 21.445312 29.265625 21.402344 29.328125 C 21.34375 29.394531 21.34375 29.394531 21.28125 29.460938 C 21.21875 29.460938 21.152344 29.460938 21.085938 29.460938 C 21.058594 29.535156 21.035156 29.609375 21.007812 29.683594 C 20.886719 29.960938 20.765625 30.113281 20.550781 30.324219 C 20.453125 30.421875 20.453125 30.421875 20.355469 30.523438 C 20.289062 30.589844 20.21875 30.65625 20.148438 30.722656 C 20.082031 30.789062 20.011719 30.859375 19.941406 30.929688 C 19.4375 31.429688 19.4375 31.429688 19.214844 31.429688 C 19.214844 31.496094 19.214844 31.5625 19.214844 31.628906 C 18.96875 31.726562 18.96875 31.726562 18.71875 31.824219 C 18.71875 31.890625 18.71875 31.953125 18.71875 32.023438 C 18.570312 32.148438 18.570312 32.148438 18.359375 32.292969 C 18.246094 32.371094 18.246094 32.371094 18.128906 32.449219 C 18.011719 32.53125 18.011719 32.53125 17.890625 32.613281 C 17.734375 32.71875 17.578125 32.828125 17.421875 32.933594 C 17.351562 32.980469 17.28125 33.027344 17.210938 33.078125 C 17.03125 33.195312 17.03125 33.195312 16.945312 33.402344 C 17.097656 33.4375 17.097656 33.4375 17.253906 33.476562 C 17.632812 33.582031 17.910156 33.757812 18.226562 33.992188 C 18.308594 34.050781 18.390625 34.105469 18.472656 34.164062 C 19.035156 34.671875 19.390625 35.285156 19.707031 35.964844 C 19.769531 36.09375 19.835938 36.226562 19.902344 36.355469 C 19.941406 36.292969 19.980469 36.226562 20.023438 36.160156 C 20.515625 35.359375 21.0625 34.515625 21.773438 33.894531 C 21.839844 33.894531 21.90625 33.894531 21.972656 33.894531 C 21.972656 33.828125 21.972656 33.765625 21.972656 33.695312 C 22.050781 33.671875 22.128906 33.644531 22.210938 33.617188 C 22.296875 33.578125 22.378906 33.539062 22.464844 33.5 C 22.496094 33.402344 22.53125 33.304688 22.5625 33.203125 C 23.792969 32.246094 25.117188 31.789062 26.660156 31.792969 C 26.757812 31.792969 26.855469 31.792969 26.957031 31.789062 C 27.65625 31.789062 28.164062 31.851562 28.710938 32.324219 C 29.074219 32.761719 29.007812 33.25 28.96875 33.796875 C 28.796875 34.3125 28.546875 34.511719 28.082031 34.78125 C 28.148438 34.875 28.21875 34.972656 28.289062 35.070312 C 28.496094 35.441406 28.46875 35.671875 28.363281 36.085938 C 28.179688 36.664062 27.9375 37.21875 27.699219 37.773438 C 26.953125 39.425781 26.953125 39.425781 26.601562 41.183594 C 26.976562 40.953125 27.234375 40.753906 27.488281 40.398438 C 27.554688 40.398438 27.621094 40.398438 27.6875 40.398438 C 27.71875 40.320312 27.746094 40.242188 27.777344 40.164062 C 27.882812 39.90625 27.882812 39.90625 27.980469 39.707031 C 28.046875 39.707031 28.113281 39.707031 28.179688 39.707031 C 28.195312 39.621094 28.195312 39.621094 28.214844 39.535156 C 28.285156 39.289062 28.386719 39.117188 28.523438 38.902344 C 29.261719 37.699219 29.875 36.433594 30.460938 35.15625 C 30.539062 34.984375 30.628906 34.820312 30.714844 34.652344 C 30.863281 34.390625 30.863281 34.390625 30.839844 34.078125 C 30.839844 33.074219 31.191406 32.203125 31.824219 31.429688 C 32.160156 31.117188 32.511719 31.015625 32.964844 30.992188 C 33.449219 31.015625 33.78125 31.183594 34.175781 31.460938 C 34.355469 31.730469 34.328125 31.898438 34.289062 32.21875 C 34.226562 32.367188 34.160156 32.511719 34.089844 32.65625 C 33.902344 33.054688 33.824219 33.351562 33.894531 33.796875 C 34.089844 34.0625 34.296875 34.195312 34.578125 34.375 C 34.996094 34.664062 35.304688 34.976562 35.46875 35.46875 C 35.550781 36.160156 35.382812 36.691406 35.113281 37.316406 C 35.078125 37.402344 35.042969 37.488281 35.003906 37.578125 C 34.757812 38.171875 34.492188 38.757812 34.210938 39.339844 C 34.003906 39.808594 33.867188 40.207031 33.875 40.722656 C 33.875 40.808594 33.875 40.894531 33.878906 40.980469 C 33.871094 41.183594 33.871094 41.183594 33.992188 41.285156 C 34.296875 41.320312 34.441406 41.3125 34.703125 41.140625 C 34.769531 41.078125 34.835938 41.015625 34.902344 40.953125 C 34.972656 40.890625 35.039062 40.828125 35.109375 40.765625 C 35.28125 40.601562 35.28125 40.601562 35.371094 40.398438 C 35.4375 40.398438 35.503906 40.398438 35.570312 40.398438 C 35.582031 40.320312 35.597656 40.242188 35.609375 40.160156 C 35.675781 39.804688 35.738281 39.453125 35.804688 39.097656 C 35.824219 38.976562 35.847656 38.851562 35.871094 38.726562 C 35.890625 38.605469 35.914062 38.488281 35.933594 38.367188 C 35.953125 38.257812 35.972656 38.148438 35.996094 38.035156 C 36.058594 37.753906 36.144531 37.507812 36.257812 37.242188 C 36.300781 37.078125 36.339844 36.914062 36.375 36.746094 C 36.984375 34.265625 38.082031 31.824219 39.398438 29.644531 C 39.539062 29.414062 39.671875 29.179688 39.808594 28.949219 C 39.917969 28.765625 40.023438 28.582031 40.132812 28.402344 C 40.183594 28.3125 40.238281 28.222656 40.289062 28.128906 C 40.339844 28.046875 40.386719 27.964844 40.4375 27.878906 C 40.484375 27.804688 40.527344 27.730469 40.574219 27.652344 C 40.613281 27.597656 40.652344 27.542969 40.691406 27.488281 C 40.757812 27.488281 40.824219 27.488281 40.890625 27.488281 C 40.921875 27.414062 40.949219 27.335938 40.980469 27.253906 C 41.085938 26.996094 41.085938 26.996094 41.183594 26.800781 C 41.25 26.800781 41.316406 26.800781 41.382812 26.800781 C 41.382812 26.703125 41.382812 26.605469 41.382812 26.503906 C 41.449219 26.503906 41.511719 26.503906 41.578125 26.503906 C 41.613281 26.40625 41.613281 26.40625 41.644531 26.304688 C 41.816406 25.921875 42.058594 25.617188 42.320312 25.292969 C 42.367188 25.226562 42.417969 25.164062 42.46875 25.097656 C 42.59375 24.9375 42.726562 24.785156 42.859375 24.632812 C 42.925781 24.632812 42.992188 24.632812 43.058594 24.632812 C 43.078125 24.5625 43.101562 24.488281 43.125 24.417969 C 43.28125 24.082031 43.484375 23.90625 43.746094 23.648438 C 43.84375 23.546875 43.9375 23.441406 44.03125 23.339844 C 45.605469 21.601562 45.605469 21.601562 46.605469 21.289062 C 47.265625 21.273438 47.730469 21.636719 48.195312 22.070312 C 48.625 22.535156 48.894531 23.003906 48.925781 23.648438 C 48.902344 24.082031 48.78125 24.417969 48.585938 24.804688 C 48.476562 25.023438 48.390625 25.246094 48.304688 25.476562 C 47.664062 27.089844 46.765625 28.640625 45.914062 30.148438 C 45.851562 30.148438 45.785156 30.148438 45.71875 30.148438 C 45.707031 30.207031 45.695312 30.261719 45.683594 30.320312 C 45.613281 30.5625 45.515625 30.738281 45.382812 30.953125 C 45.335938 31.03125 45.289062 31.105469 45.238281 31.183594 C 45.191406 31.265625 45.140625 31.34375 45.089844 31.425781 C 44.992188 31.582031 44.894531 31.738281 44.796875 31.894531 C 44.730469 32.003906 44.730469 32.003906 44.660156 32.117188 C 44.558594 32.28125 44.460938 32.449219 44.363281 32.621094 C 44.304688 32.714844 44.304688 32.714844 44.238281 32.808594 C 44.175781 32.808594 44.109375 32.808594 44.042969 32.808594 C 44.011719 32.886719 43.980469 32.964844 43.949219 33.042969 C 43.84375 33.304688 43.84375 33.304688 43.746094 33.5 C 43.683594 33.5 43.617188 33.5 43.550781 33.5 C 43.542969 33.554688 43.535156 33.605469 43.523438 33.660156 C 43.425781 33.980469 43.257812 34.21875 43.058594 34.484375 C 42.992188 34.484375 42.925781 34.484375 42.859375 34.484375 C 42.828125 34.5625 42.800781 34.640625 42.769531 34.71875 C 42.664062 34.976562 42.664062 34.976562 42.566406 35.175781 C 42.5 35.175781 42.433594 35.175781 42.367188 35.175781 C 42.367188 35.273438 42.367188 35.371094 42.367188 35.46875 C 42.300781 35.46875 42.238281 35.46875 42.171875 35.46875 C 42.144531 35.527344 42.117188 35.585938 42.089844 35.644531 C 41.976562 35.863281 41.847656 36.046875 41.695312 36.242188 C 41.492188 36.503906 41.300781 36.773438 41.113281 37.046875 C 41.039062 37.144531 40.964844 37.242188 40.890625 37.34375 C 40.824219 37.34375 40.757812 37.34375 40.691406 37.34375 C 40.691406 37.441406 40.691406 37.539062 40.691406 37.636719 C 40.628906 37.636719 40.5625 37.636719 40.496094 37.636719 C 40.46875 37.695312 40.441406 37.75 40.414062 37.808594 C 40.292969 38.039062 40.15625 38.242188 40.003906 38.449219 C 39.953125 38.519531 39.902344 38.589844 39.847656 38.660156 C 39.777344 38.742188 39.777344 38.742188 39.707031 38.820312 C 39.640625 38.820312 39.578125 38.820312 39.511719 38.820312 C 39.484375 38.875 39.460938 38.929688 39.4375 38.984375 C 39.289062 39.257812 39.113281 39.488281 38.917969 39.730469 C 38.851562 39.820312 38.78125 39.90625 38.710938 40 C 38.648438 40.066406 38.585938 40.132812 38.523438 40.199219 C 38.460938 40.199219 38.394531 40.199219 38.328125 40.199219 C 38.296875 40.261719 38.265625 40.324219 38.234375 40.390625 C 38.132812 40.59375 38.132812 40.59375 38.03125 40.691406 C 38.019531 40.972656 38.011719 41.25 38.015625 41.53125 C 38.015625 41.609375 38.015625 41.691406 38.015625 41.773438 C 38.019531 42.449219 38.039062 43.070312 38.425781 43.648438 C 38.945312 43.507812 39.261719 43.15625 39.609375 42.761719 C 39.640625 42.695312 39.675781 42.632812 39.707031 42.566406 C 39.773438 42.566406 39.835938 42.566406 39.90625 42.566406 C 39.933594 42.488281 39.964844 42.410156 39.996094 42.332031 C 40.101562 42.070312 40.101562 42.070312 40.199219 41.875 C 40.265625 41.875 40.328125 41.875 40.398438 41.875 C 40.410156 41.773438 40.410156 41.773438 40.421875 41.671875 C 40.515625 41.304688 40.6875 41 40.871094 40.675781 C 41.402344 39.691406 41.734375 39.003906 41.652344 37.855469 C 41.683594 37.460938 41.796875 37.324219 42.070312 37.046875 C 42.269531 36.894531 42.269531 36.894531 42.464844 36.777344 C 42.53125 36.734375 42.597656 36.695312 42.664062 36.65625 C 43.085938 36.4375 43.472656 36.445312 43.945312 36.457031 C 44.183594 37.011719 44.378906 37.542969 44.488281 38.140625 C 44.53125 38.359375 44.53125 38.359375 44.730469 38.625 C 45.097656 38.648438 45.367188 38.640625 45.71875 38.523438 C 45.789062 38.328125 45.851562 38.132812 45.914062 37.933594 C 46.042969 37.65625 46.179688 37.382812 46.320312 37.109375 C 46.359375 37.035156 46.394531 36.964844 46.433594 36.890625 C 46.523438 36.710938 46.613281 36.535156 46.703125 36.355469 C 46.769531 36.355469 46.832031 36.355469 46.898438 36.355469 C 46.910156 36.304688 46.917969 36.25 46.929688 36.195312 C 47.015625 35.902344 47.160156 35.683594 47.324219 35.425781 C 47.382812 35.335938 47.441406 35.246094 47.503906 35.152344 C 47.683594 34.882812 47.867188 34.628906 48.082031 34.386719 C 48.148438 34.386719 48.210938 34.386719 48.28125 34.386719 C 48.304688 34.328125 48.332031 34.269531 48.359375 34.207031 C 48.476562 33.992188 48.585938 33.851562 48.773438 33.695312 C 48.835938 33.695312 48.902344 33.695312 48.96875 33.695312 C 48.96875 33.632812 48.96875 33.566406 48.96875 33.5 C 49.285156 33.230469 49.488281 33.113281 49.90625 33.074219 C 50.351562 33.242188 50.472656 33.46875 50.707031 33.871094 C 50.828125 34.09375 50.828125 34.09375 51.003906 34.242188 C 51.136719 34.386719 51.136719 34.386719 51.175781 34.574219 C 51.132812 35.246094 50.816406 35.585938 50.351562 36.054688 C 50.148438 36.242188 50.148438 36.242188 50.054688 36.457031 C 49.988281 36.457031 49.921875 36.457031 49.855469 36.457031 C 49.832031 36.511719 49.808594 36.566406 49.78125 36.621094 C 49.636719 36.890625 49.46875 37.113281 49.265625 37.34375 C 49.199219 37.34375 49.132812 37.34375 49.066406 37.34375 C 49.039062 37.417969 49.011719 37.488281 48.984375 37.566406 C 48.878906 37.8125 48.769531 37.996094 48.613281 38.210938 C 47.925781 39.222656 46.984375 40.753906 47.136719 42.011719 C 47.15625 42.097656 47.175781 42.183594 47.195312 42.269531 C 47.886719 42.457031 48.464844 42.144531 49.070312 41.808594 C 49.339844 41.640625 49.601562 41.472656 49.855469 41.285156 C 49.929688 41.230469 50.003906 41.179688 50.078125 41.125 C 50.347656 40.753906 50.320312 40.367188 50.34375 39.917969 C 50.421875 38.777344 50.714844 37.871094 51.234375 36.851562 C 51.300781 36.851562 51.367188 36.851562 51.433594 36.851562 C 51.445312 36.792969 51.457031 36.734375 51.46875 36.675781 C 51.53125 36.453125 51.617188 36.265625 51.726562 36.0625 C 51.792969 36.0625 51.859375 36.0625 51.925781 36.0625 C 51.949219 35.996094 51.96875 35.925781 51.992188 35.859375 C 52.152344 35.5 52.351562 35.171875 52.613281 34.878906 C 52.679688 34.878906 52.746094 34.878906 52.8125 34.878906 C 52.8125 34.8125 52.8125 34.75 52.8125 34.683594 C 52.875 34.683594 52.941406 34.683594 53.007812 34.683594 C 53.039062 34.601562 53.039062 34.601562 53.070312 34.523438 C 53.257812 34.199219 53.507812 33.933594 53.796875 33.695312 C 53.863281 33.695312 53.925781 33.695312 53.992188 33.695312 C 53.992188 33.632812 53.992188 33.566406 53.992188 33.5 C 54.574219 33.015625 55.136719 32.664062 55.890625 32.578125 C 56.386719 32.625 56.796875 32.804688 57.246094 33.007812 C 57.246094 33.074219 57.246094 33.136719 57.246094 33.203125 C 57.304688 33.230469 57.363281 33.257812 57.421875 33.285156 C 57.835938 33.507812 58.15625 33.851562 58.296875 34.304688 C 58.488281 35.632812 57.652344 36.78125 56.949219 37.835938 C 56.902344 37.910156 56.851562 37.980469 56.804688 38.058594 C 56.695312 38.21875 56.578125 38.371094 56.457031 38.523438 C 56.390625 38.523438 56.328125 38.523438 56.261719 38.523438 C 56.234375 38.601562 56.207031 38.675781 56.179688 38.753906 C 56.066406 39.007812 55.984375 39.144531 55.769531 39.3125 C 55.703125 39.3125 55.636719 39.3125 55.570312 39.3125 C 55.550781 39.367188 55.53125 39.417969 55.507812 39.472656 C 55.320312 39.796875 55.074219 40.0625 54.78125 40.296875 C 54.71875 40.296875 54.652344 40.296875 54.585938 40.296875 C 54.585938 40.363281 54.585938 40.429688 54.585938 40.496094 C 54.519531 40.496094 54.457031 40.496094 54.386719 40.496094 C 54.386719 40.5625 54.386719 40.625 54.386719 40.691406 C 54.101562 40.925781 53.808594 41.148438 53.507812 41.367188 C 53.445312 41.414062 53.382812 41.460938 53.320312 41.507812 C 53.261719 41.550781 53.207031 41.59375 53.148438 41.636719 C 52.972656 41.8125 52.9375 41.925781 52.910156 42.171875 C 53.023438 42.511719 53.140625 42.78125 53.371094 43.058594 C 53.863281 43.269531 54.371094 43.078125 54.851562 42.902344 C 55.398438 42.675781 55.886719 42.355469 56.378906 42.035156 C 56.65625 41.875 56.65625 41.875 56.949219 41.875 C 56.949219 41.808594 56.949219 41.746094 56.949219 41.679688 C 57.136719 41.546875 57.136719 41.546875 57.40625 41.386719 C 57.949219 41.054688 58.445312 40.675781 58.941406 40.273438 C 59.167969 40.089844 59.382812 39.917969 59.644531 39.792969 C 59.84375 39.710938 59.84375 39.710938 59.90625 39.410156 C 59.972656 39.410156 60.035156 39.410156 60.101562 39.410156 C 60.101562 39.347656 60.101562 39.28125 60.101562 39.214844 C 60.335938 38.957031 60.335938 38.957031 60.59375 38.722656 C 60.660156 38.722656 60.726562 38.722656 60.792969 38.722656 C 60.792969 38.65625 60.792969 38.59375 60.792969 38.523438 C 60.859375 38.523438 60.921875 38.523438 60.988281 38.523438 C 61.015625 38.46875 61.042969 38.410156 61.070312 38.351562 C 61.191406 38.125 61.316406 37.933594 61.480469 37.738281 C 61.546875 37.738281 61.613281 37.738281 61.679688 37.738281 C 61.703125 37.683594 61.722656 37.628906 61.746094 37.570312 C 61.910156 37.28125 62.128906 37.078125 62.367188 36.851562 C 62.8125 36.984375 63.007812 37.148438 63.257812 37.539062 C 63.761719 38.640625 63.761719 38.640625 63.550781 39.214844 C 63.378906 39.558594 63.175781 39.878906 62.960938 40.199219 C 62.894531 40.199219 62.832031 40.199219 62.761719 40.199219 C 62.730469 40.296875 62.699219 40.394531 62.664062 40.496094 C 62.601562 40.496094 62.535156 40.496094 62.46875 40.496094 C 62.46875 40.5625 62.46875 40.625 62.46875 40.691406 C 62.402344 40.691406 62.335938 40.691406 62.269531 40.691406 C 62.238281 40.789062 62.207031 40.886719 62.171875 40.988281 C 61.96875 41.164062 61.769531 41.324219 61.554688 41.488281 C 61.464844 41.558594 61.464844 41.558594 61.367188 41.632812 C 61.242188 41.730469 61.113281 41.828125 60.980469 41.925781 C 60.804688 42.0625 60.628906 42.199219 60.453125 42.339844 C 59.804688 42.851562 59.136719 43.316406 58.429688 43.746094 C 58.347656 43.796875 58.269531 43.851562 58.1875 43.902344 C 56.738281 44.820312 55.082031 45.289062 53.382812 44.910156 C 52.847656 44.765625 52.390625 44.539062 51.925781 44.238281 C 51.925781 44.175781 51.925781 44.109375 51.925781 44.042969 C 51.855469 44.023438 51.785156 44.007812 51.714844 43.988281 C 51.324219 43.792969 51.105469 43.496094 50.839844 43.15625 C 50.695312 43.253906 50.695312 43.253906 50.546875 43.351562 C 50.449219 43.351562 50.351562 43.351562 50.25 43.351562 C 50.25 43.417969 50.25 43.484375 50.25 43.550781 C 49.203125 44.054688 48.105469 44.53125 46.929688 44.15625 C 46.714844 44.058594 46.511719 43.960938 46.308594 43.84375 C 46.242188 43.8125 46.179688 43.78125 46.113281 43.746094 C 46.113281 43.683594 46.113281 43.617188 46.113281 43.550781 C 46.046875 43.550781 45.980469 43.550781 45.914062 43.550781 C 45.914062 43.484375 45.914062 43.421875 45.914062 43.351562 C 45.816406 43.320312 45.71875 43.289062 45.617188 43.253906 C 45.441406 43.027344 45.441406 43.027344 45.261719 42.742188 C 45.203125 42.652344 45.140625 42.558594 45.078125 42.460938 C 44.851562 42.023438 44.816406 41.601562 44.820312 41.113281 C 44.816406 41.035156 44.816406 40.960938 44.816406 40.886719 C 44.832031 40.691406 44.832031 40.691406 44.929688 40.496094 C 44.828125 40.46875 44.828125 40.46875 44.726562 40.4375 C 44.640625 40.414062 44.550781 40.386719 44.460938 40.359375 C 44.375 40.335938 44.289062 40.308594 44.199219 40.285156 C 43.96875 40.207031 43.761719 40.117188 43.550781 40.003906 C 43.554688 40.089844 43.558594 40.175781 43.5625 40.261719 C 43.527344 41.109375 42.996094 41.949219 42.566406 42.664062 C 42.488281 42.792969 42.488281 42.792969 42.40625 42.925781 C 41.554688 44.308594 40.625 45.523438 39.019531 46.011719 C 38.292969 46.125 37.691406 45.785156 37.089844 45.410156 C 37.011719 45.347656 36.933594 45.289062 36.851562 45.226562 C 36.851562 45.160156 36.851562 45.09375 36.851562 45.027344 C 36.785156 45.027344 36.71875 45.027344 36.652344 45.027344 C 36.167969 44.359375 35.824219 43.699219 35.863281 42.859375 C 35.804688 42.894531 35.746094 42.929688 35.683594 42.96875 C 35.082031 43.300781 34.585938 43.488281 33.894531 43.351562 C 33.394531 43.164062 32.921875 42.914062 32.515625 42.566406 C 32.515625 42.5 32.515625 42.433594 32.515625 42.367188 C 32.449219 42.367188 32.382812 42.367188 32.316406 42.367188 C 32.253906 42.242188 32.191406 42.117188 32.125 41.992188 C 32.089844 41.921875 32.054688 41.851562 32.019531 41.78125 C 31.535156 40.761719 31.8125 39.535156 32.167969 38.523438 C 32.269531 38.253906 32.375 37.992188 32.480469 37.726562 C 32.507812 37.660156 32.535156 37.597656 32.5625 37.527344 C 32.640625 37.347656 32.71875 37.167969 32.796875 36.988281 C 32.917969 36.621094 32.949219 36.347656 32.910156 35.964844 C 32.675781 35.765625 32.675781 35.765625 32.417969 35.667969 C 32.382812 35.785156 32.351562 35.898438 32.316406 36.019531 C 32.082031 36.730469 31.695312 37.378906 31.332031 38.03125 C 31.261719 38.160156 31.261719 38.160156 31.1875 38.292969 C 31.074219 38.503906 30.957031 38.710938 30.839844 38.917969 C 30.75 39.078125 30.664062 39.234375 30.574219 39.394531 C 30.535156 39.464844 30.496094 39.53125 30.457031 39.605469 C 30.351562 39.800781 30.25 40 30.148438 40.199219 C 30.085938 40.199219 30.019531 40.199219 29.953125 40.199219 C 29.945312 40.253906 29.933594 40.308594 29.925781 40.363281 C 29.832031 40.664062 29.683594 40.894531 29.515625 41.160156 C 29.453125 41.257812 29.394531 41.355469 29.332031 41.453125 C 29.277344 41.527344 29.222656 41.601562 29.164062 41.679688 C 29.101562 41.679688 29.035156 41.679688 28.96875 41.679688 C 28.953125 41.746094 28.933594 41.8125 28.917969 41.882812 C 28.644531 42.417969 28.171875 42.746094 27.664062 43.050781 C 27.070312 43.21875 26.464844 43.296875 25.878906 43.066406 C 25.269531 42.667969 25.007812 42.035156 24.730469 41.382812 C 24.6875 41.464844 24.640625 41.546875 24.59375 41.628906 C 24.542969 41.710938 24.488281 41.792969 24.433594 41.875 C 24.371094 41.875 24.304688 41.875 24.238281 41.875 C 24.214844 41.929688 24.191406 41.984375 24.164062 42.042969 C 23.769531 42.765625 23.042969 43.535156 22.269531 43.84375 C 21.664062 43.945312 21.089844 43.953125 20.550781 43.640625 C 19.949219 43.195312 19.558594 42.628906 19.214844 41.972656 C 19.148438 41.972656 19.082031 41.972656 19.015625 41.972656 C 18.894531 42.148438 18.894531 42.148438 18.769531 42.378906 C 17.3125 44.871094 15.234375 47.011719 12.414062 47.886719 C 11.175781 48.179688 9.949219 48.214844 8.792969 47.613281 C 8.058594 47.105469 7.621094 46.5 7.191406 45.71875 C 7.167969 45.800781 7.140625 45.882812 7.113281 45.964844 C 7.078125 46.074219 7.042969 46.179688 7.007812 46.289062 C 6.972656 46.398438 6.9375 46.503906 6.902344 46.613281 C 6.796875 46.898438 6.796875 46.898438 6.601562 47.195312 C 5.875 47.429688 5.0625 47.261719 4.398438 46.929688 C 3.957031 46.542969 3.78125 46.269531 3.699219 45.695312 C 3.644531 44.492188 3.976562 43.40625 4.335938 42.269531 C 4.367188 42.171875 4.394531 42.078125 4.425781 41.976562 C 4.585938 41.46875 4.75 40.960938 4.914062 40.457031 C 5.132812 39.777344 5.34375 39.097656 5.554688 38.414062 C 5.960938 37.097656 6.382812 35.789062 6.804688 34.480469 C 6.957031 34.011719 7.109375 33.542969 7.257812 33.074219 C 7.304688 32.9375 7.347656 32.800781 7.390625 32.664062 C 7.472656 32.410156 7.554688 32.15625 7.636719 31.898438 C 7.957031 30.910156 8.28125 29.925781 8.617188 28.941406 C 8.8125 28.363281 9 27.785156 9.164062 27.195312 C 9.351562 26.527344 9.566406 25.875 9.789062 25.21875 C 9.902344 24.878906 10.015625 24.535156 10.128906 24.195312 C 10.171875 24.070312 10.214844 23.945312 10.253906 23.820312 C 10.285156 23.730469 10.316406 23.640625 10.34375 23.546875 C 10.3125 23.515625 10.28125 23.484375 10.246094 23.449219 C 9.65625 23.652344 9.082031 23.875 8.515625 24.140625 C 6.84375 24.921875 6.84375 24.921875 6.304688 24.828125 C 6.003906 24.375 6.105469 23.972656 6.207031 23.449219 C 6.664062 21.921875 7.632812 21.066406 8.964844 20.296875 C 9.253906 20.140625 9.546875 20.019531 9.851562 19.902344 C 9.953125 19.859375 10.050781 19.816406 10.152344 19.773438 C 10.933594 19.441406 11.722656 19.179688 12.539062 18.941406 C 12.636719 18.914062 12.734375 18.882812 12.835938 18.855469 C 15.609375 18.058594 19.058594 17.910156 21.453125 19.773438 Z M 12.019531 22.5625 C 12.191406 22.933594 12.40625 23.175781 12.710938 23.449219 C 12.773438 23.449219 12.839844 23.449219 12.90625 23.449219 C 13.582031 24.964844 12.691406 26.929688 12.15625 28.386719 C 11.996094 28.832031 11.871094 29.28125 11.746094 29.738281 C 11.550781 30.425781 11.320312 31.097656 11.097656 31.773438 C 11.066406 31.875 11.03125 31.976562 10.996094 32.085938 C 10.964844 32.175781 10.9375 32.269531 10.90625 32.363281 C 10.820312 32.632812 10.820312 32.632812 10.839844 33.007812 C 12.730469 32.8125 14.046875 32.425781 15.546875 31.207031 C 15.875 30.949219 16.21875 30.722656 16.566406 30.492188 C 16.625 30.445312 16.6875 30.398438 16.75 30.347656 C 16.75 30.28125 16.75 30.21875 16.75 30.148438 C 16.804688 30.125 16.859375 30.101562 16.917969 30.078125 C 17.6875 29.65625 18.390625 28.875 18.917969 28.179688 C 18.917969 28.113281 18.917969 28.050781 18.917969 27.980469 C 18.984375 27.980469 19.046875 27.980469 19.113281 27.980469 C 19.277344 27.796875 19.429688 27.609375 19.578125 27.410156 C 19.621094 27.351562 19.664062 27.292969 19.710938 27.234375 C 20.597656 26.046875 21.621094 24.613281 21.480469 23.054688 C 21.363281 22.699219 21.363281 22.699219 21.183594 22.367188 C 21.136719 22.269531 21.089844 22.171875 21.042969 22.070312 C 20.488281 21.421875 19.699219 21.046875 18.863281 20.90625 C 16.492188 20.722656 14.160156 21.652344 12.019531 22.5625 Z M 45.519531 24.929688 C 45.519531 24.992188 45.519531 25.058594 45.519531 25.125 C 45.421875 25.15625 45.324219 25.191406 45.226562 25.222656 C 45.226562 25.289062 45.226562 25.355469 45.226562 25.421875 C 45.160156 25.421875 45.09375 25.421875 45.027344 25.421875 C 45.027344 25.484375 45.027344 25.550781 45.027344 25.617188 C 44.964844 25.617188 44.898438 25.617188 44.832031 25.617188 C 43.714844 26.777344 42.730469 28.242188 41.972656 29.65625 C 41.9375 29.726562 41.898438 29.792969 41.863281 29.863281 C 41.566406 30.417969 41.277344 30.972656 40.988281 31.53125 C 40.949219 31.601562 40.914062 31.671875 40.875 31.746094 C 40.484375 32.5 40.128906 33.25 39.835938 34.046875 C 39.648438 34.539062 39.445312 35.023438 39.238281 35.503906 C 39.113281 35.804688 39.019531 36.03125 39.019531 36.355469 C 39.082031 36.355469 39.148438 36.355469 39.214844 36.355469 C 39.378906 36.164062 39.378906 36.164062 39.554688 35.90625 C 39.625 35.808594 39.695312 35.707031 39.765625 35.605469 C 39.804688 35.550781 39.84375 35.496094 39.882812 35.441406 C 40.003906 35.273438 40.125 35.105469 40.25 34.941406 C 41.65625 33.066406 42.917969 31.082031 43.945312 28.972656 C 44.113281 28.625 44.289062 28.277344 44.460938 27.933594 C 44.554688 27.75 44.644531 27.5625 44.738281 27.378906 C 44.800781 27.253906 44.867188 27.125 44.933594 27 C 45.164062 26.550781 45.34375 26.101562 45.496094 25.617188 C 45.527344 25.515625 45.527344 25.515625 45.5625 25.414062 C 45.613281 25.253906 45.667969 25.089844 45.71875 24.929688 C 45.652344 24.929688 45.585938 24.929688 45.519531 24.929688 Z M 23.941406 34.976562 C 23.941406 35.042969 23.941406 35.109375 23.941406 35.175781 C 23.878906 35.175781 23.8125 35.175781 23.746094 35.175781 C 23.605469 35.328125 23.46875 35.492188 23.339844 35.65625 C 23.261719 35.753906 23.179688 35.855469 23.097656 35.957031 C 23.019531 36.058594 22.941406 36.15625 22.859375 36.257812 C 22.757812 36.378906 22.757812 36.378906 22.652344 36.503906 C 21.667969 37.691406 20.707031 39.085938 20.789062 40.691406 C 20.898438 41.140625 21.0625 41.441406 21.382812 41.777344 C 21.683594 41.914062 21.683594 41.914062 21.992188 41.734375 C 22.84375 41.203125 23.34375 40.445312 23.839844 39.589844 C 23.945312 39.40625 24.058594 39.222656 24.167969 39.042969 C 24.511719 38.484375 24.839844 37.925781 25.125 37.335938 C 25.382812 36.800781 25.691406 36.3125 26.023438 35.820312 C 26.238281 35.523438 26.238281 35.523438 26.308594 35.175781 C 26.371094 35.175781 26.4375 35.175781 26.503906 35.175781 C 26.5625 35.113281 26.617188 35.050781 26.675781 34.984375 C 26.945312 34.738281 27.132812 34.714844 27.488281 34.683594 C 27.417969 34.625 27.347656 34.570312 27.273438 34.511719 C 27.09375 34.363281 26.914062 34.21875 26.730469 34.074219 C 25.765625 33.316406 24.617188 34.222656 23.941406 34.976562 Z M 56.160156 34.484375 C 55.945312 34.632812 55.757812 34.78125 55.5625 34.953125 C 55.507812 35.003906 55.449219 35.050781 55.390625 35.105469 C 54.140625 36.210938 53.0625 37.539062 52.714844 39.214844 C 53.664062 38.605469 54.429688 37.984375 55.078125 37.046875 C 55.078125 36.980469 55.078125 36.917969 55.078125 36.851562 C 55.144531 36.851562 55.207031 36.851562 55.273438 36.851562 C 55.273438 36.753906 55.273438 36.65625 55.273438 36.554688 C 55.339844 36.554688 55.40625 36.554688 55.472656 36.554688 C 55.894531 35.941406 56.226562 35.289062 56.457031 34.582031 C 56.359375 34.550781 56.261719 34.519531 56.160156 34.484375 Z M 13.386719 35.253906 C 12.226562 35.746094 11.105469 35.914062 9.851562 35.964844 C 9.476562 37.074219 9.140625 38.199219 8.8125 39.324219 C 8.769531 39.472656 8.769531 39.472656 8.726562 39.625 C 8.535156 40.273438 8.355469 40.925781 8.179688 41.578125 C 8.476562 41.433594 8.726562 41.273438 8.992188 41.074219 C 10.410156 40.074219 12.023438 39.375 13.789062 39.65625 C 14.585938 39.828125 15.394531 40.125 15.980469 40.710938 C 16.140625 40.914062 16.140625 40.914062 16.355469 40.890625 C 16.386719 40.953125 16.421875 41.019531 16.453125 41.085938 C 17.128906 39.894531 17.648438 38.53125 17.441406 37.144531 C 17.179688 36.28125 16.617188 35.746094 15.863281 35.292969 C 14.988281 34.945312 14.277344 34.859375 13.386719 35.253906 Z M 11.726562 42.367188 C 11.726562 42.433594 11.726562 42.496094 11.726562 42.566406 C 11.667969 42.59375 11.605469 42.621094 11.546875 42.652344 C 11.3125 42.765625 11.3125 42.765625 11.035156 42.957031 C 11.035156 43.023438 11.035156 43.089844 11.035156 43.15625 C 10.96875 43.15625 10.90625 43.15625 10.839844 43.15625 C 10.4375 43.667969 10 44.257812 10.050781 44.929688 C 10.21875 45.257812 10.402344 45.550781 10.738281 45.71875 C 11.664062 45.8125 12.390625 45.371094 13.105469 44.832031 C 13.203125 44.796875 13.300781 44.765625 13.398438 44.730469 C 13.472656 44.660156 13.546875 44.585938 13.621094 44.511719 C 13.835938 44.296875 14.023438 44.144531 14.269531 43.976562 C 14.371094 43.898438 14.476562 43.824219 14.582031 43.746094 C 14.582031 43.683594 14.582031 43.617188 14.582031 43.550781 C 14.648438 43.550781 14.710938 43.550781 14.78125 43.550781 C 15.011719 43.140625 15.15625 42.84375 15.074219 42.367188 C 14.808594 42.027344 14.664062 41.890625 14.234375 41.808594 C 13.289062 41.820312 12.589844 41.953125 11.726562 42.367188 Z M 11.726562 42.367188 "/>
<path style=" stroke:none;fill-rule:nonzero;fill:rgb(91.764706%,26.274511%,59.607846%);fill-opacity:1;" d="M 53.601562 26.703125 C 54.15625 27.082031 54.585938 27.523438 54.78125 28.179688 C 54.847656 28.640625 54.796875 29.039062 54.585938 29.460938 C 54.519531 29.460938 54.457031 29.460938 54.386719 29.460938 C 54.363281 29.53125 54.339844 29.601562 54.3125 29.675781 C 54.179688 29.980469 54.019531 30.199219 53.796875 30.445312 C 53.730469 30.445312 53.667969 30.445312 53.601562 30.445312 C 53.601562 30.511719 53.601562 30.574219 53.601562 30.644531 C 53.535156 30.644531 53.46875 30.644531 53.402344 30.644531 C 53.402344 30.707031 53.402344 30.773438 53.402344 30.839844 C 53.238281 30.988281 53.238281 30.988281 53.019531 31.148438 C 52.949219 31.199219 52.878906 31.253906 52.804688 31.308594 C 52.613281 31.429688 52.613281 31.429688 52.417969 31.429688 C 52.417969 31.496094 52.417969 31.5625 52.417969 31.628906 C 52.339844 31.652344 52.261719 31.675781 52.183594 31.703125 C 51.882812 31.84375 51.855469 31.921875 51.726562 32.21875 C 51.609375 32.398438 51.609375 32.398438 51.433594 32.515625 C 50.964844 32.496094 50.613281 32.417969 50.25 32.121094 C 49.757812 31.558594 49.644531 30.984375 49.660156 30.25 C 49.738281 29.15625 50.652344 28.09375 51.433594 27.390625 C 51.707031 27.265625 51.707031 27.265625 51.925781 27.195312 C 51.925781 27.128906 51.925781 27.0625 51.925781 26.996094 C 53.125 26.5 53.125 26.5 53.601562 26.703125 Z M 53.601562 26.703125 "/>
</g>
</svg>
