<svg width="25" height="24" viewBox="0 0 25 24" fill="none" xmlns="http://www.w3.org/2000/svg">
<path fill-rule="evenodd" clip-rule="evenodd" d="M7.82064 19.8203C8.24264 19.8203 8.58564 20.1633 8.58564 20.5853C8.58564 21.0073 8.24264 21.3493 7.82064 21.3493C7.39864 21.3493 7.05664 21.0073 7.05664 20.5853C7.05664 20.1633 7.39864 19.8203 7.82064 19.8203Z" stroke="#161616" stroke-width="1.5" stroke-linecap="round" stroke-linejoin="round"/>
<path fill-rule="evenodd" clip-rule="evenodd" d="M19.0736 19.8203C19.4956 19.8203 19.8386 20.1633 19.8386 20.5853C19.8386 21.0073 19.4956 21.3493 19.0736 21.3493C18.6516 21.3493 18.3086 21.0073 18.3086 20.5853C18.3086 20.1633 18.6516 19.8203 19.0736 19.8203Z" stroke="#161616" stroke-width="1.5" stroke-linecap="round" stroke-linejoin="round"/>
<path d="M3.14844 3.25L5.22844 3.61L6.19144 15.083C6.26944 16.018 7.05044 16.736 7.98844 16.736H18.9004C19.7964 16.736 20.5564 16.078 20.6854 15.19L21.6344 8.632C21.7514 7.823 21.1244 7.099 20.3074 7.099H5.56244" stroke="#161616" stroke-width="1.5" stroke-linecap="round" stroke-linejoin="round"/>
<path d="M14.5234 10.795H17.2964" stroke="#161616" stroke-width="1.5" stroke-linecap="round" stroke-linejoin="round"/>
</svg>
