<svg width="19" height="18" viewBox="0 0 19 18" fill="none" xmlns="http://www.w3.org/2000/svg">
<g clip-path="url(#clip0_3_2387)">
<path d="M6.39648 14.25C6.79431 14.25 7.17584 14.092 7.45714 13.8107C7.73845 13.5294 7.89648 13.1478 7.89648 12.75C7.89648 12.3522 7.73845 11.9706 7.45714 11.6893C7.17584 11.408 6.79431 11.25 6.39648 11.25C5.99866 11.25 5.61713 11.408 5.33582 11.6893C5.05452 11.9706 4.89648 12.3522 4.89648 12.75C4.89648 13.1478 5.05452 13.5294 5.33582 13.8107C5.61713 14.092 5.99866 14.25 6.39648 14.25V14.25ZM13.8965 14.25C14.2943 14.25 14.6758 14.092 14.9571 13.8107C15.2384 13.5294 15.3965 13.1478 15.3965 12.75C15.3965 12.3522 15.2384 11.9706 14.9571 11.6893C14.6758 11.408 14.2943 11.25 13.8965 11.25C13.4987 11.25 13.1171 11.408 12.8358 11.6893C12.5545 11.9706 12.3965 12.3522 12.3965 12.75C12.3965 13.1478 12.5545 13.5294 12.8358 13.8107C13.1171 14.092 13.4987 14.25 13.8965 14.25V14.25Z" stroke="#E8C14A" stroke-miterlimit="1.5" stroke-linecap="round" stroke-linejoin="round"/>
<path d="M7.93398 12.75H11.6465V4.95C11.6465 4.83065 11.5991 4.71619 11.5147 4.6318C11.4303 4.54741 11.3158 4.5 11.1965 4.5H1.14648M4.63398 12.75H3.09648C3.03739 12.75 2.97887 12.7384 2.92428 12.7157C2.86968 12.6931 2.82007 12.66 2.77829 12.6182C2.7365 12.5764 2.70335 12.5268 2.68074 12.4722C2.65812 12.4176 2.64648 12.3591 2.64648 12.3V8.625" stroke="#E8C14A" stroke-linecap="round"/>
<path d="M1.89648 6.75H4.89648" stroke="#E8C14A" stroke-linecap="round" stroke-linejoin="round"/>
<path d="M11.6465 6.75H15.854C15.941 6.75002 16.0261 6.77525 16.099 6.82264C16.172 6.87002 16.2296 6.93753 16.265 7.017L17.6075 10.038C17.6331 10.0954 17.6463 10.1574 17.6465 10.2202V12.3C17.6465 12.3591 17.6348 12.4176 17.6122 12.4722C17.5896 12.5268 17.5565 12.5764 17.5147 12.6182C17.4729 12.66 17.4233 12.6931 17.3687 12.7157C17.3141 12.7384 17.2556 12.75 17.1965 12.75H15.7715M11.6465 12.75H12.3965" stroke="#E8C14A" stroke-linecap="round"/>
</g>
<defs>
<clipPath id="clip0_3_2387">
<rect width="18" height="18" fill="white" transform="translate(0.396484)"/>
</clipPath>
</defs>
</svg>
