<svg width="16" height="16" viewBox="0 0 16 16" fill="none" xmlns="http://www.w3.org/2000/svg">
<path fill-rule="evenodd" clip-rule="evenodd" d="M2.19912 4.29181C2.19912 3.35506 2.95887 2.59531 3.89487 2.59531H4.66662C5.11362 2.59531 5.54337 2.41831 5.86137 2.10256L6.40062 1.56256C7.06137 0.898809 8.13537 0.895809 8.79912 1.55656L8.80587 1.56256L9.34587 2.10256C9.66312 2.41831 10.0929 2.59531 10.5406 2.59531H11.3116C12.2484 2.59531 13.0081 3.35506 13.0081 4.29181V5.06206C13.0081 5.51056 13.1851 5.93956 13.5009 6.25756L14.0409 6.79756C14.7046 7.45831 14.7084 8.53156 14.0476 9.19606L14.0409 9.20281L13.5009 9.74281C13.1851 10.0593 13.0081 10.4898 13.0081 10.9368V11.7086C13.0081 12.6453 12.2484 13.4043 11.3116 13.4043H10.5406C10.0929 13.4043 9.66312 13.5821 9.34587 13.8978L8.80587 14.4371C8.14587 15.1016 7.07187 15.1046 6.40737 14.4438C6.40512 14.4416 6.40287 14.4393 6.40062 14.4371L5.86137 13.8978C5.54337 13.5821 5.11362 13.4043 4.66662 13.4043H3.89487C2.95887 13.4043 2.19912 12.6453 2.19912 11.7086V10.9368C2.19912 10.4898 2.02137 10.0593 1.70562 9.74281L1.16637 9.20281C0.501866 8.54206 0.498866 7.46806 1.15962 6.80431L1.16637 6.79756L1.70562 6.25756C2.02137 5.93956 2.19912 5.51056 2.19912 5.06206V4.29181Z" stroke="#E8C14A" stroke-linecap="round" stroke-linejoin="round"/>
<path d="M5.67578 9.92714L9.53078 6.07214" stroke="#E8C14A" stroke-linecap="round" stroke-linejoin="round"/>
<path d="M9.5293 10.4918C9.3793 10.4918 9.2368 10.4318 9.1318 10.3268C9.0793 10.2743 9.0418 10.2068 9.0118 10.1393C8.9818 10.0718 8.9668 10.005 8.9668 9.92927C8.9668 9.85427 8.9818 9.77927 9.0118 9.71177C9.0418 9.64427 9.0793 9.58427 9.1318 9.53177C9.3418 9.32177 9.7168 9.32177 9.9268 9.53177C9.9793 9.58427 10.0243 9.64427 10.0543 9.71177C10.0768 9.77927 10.0918 9.85427 10.0918 9.92927C10.0918 10.005 10.0768 10.0718 10.0543 10.1393C10.0243 10.2068 9.9793 10.2743 9.9268 10.3268C9.8218 10.4318 9.6793 10.4918 9.5293 10.4918Z" fill="#E8C14A"/>
<path d="M5.67383 6.63711C5.59883 6.63711 5.53133 6.62136 5.46383 6.59136C5.39633 6.56136 5.32883 6.52461 5.27633 6.47211C5.22383 6.41211 5.18633 6.35211 5.15633 6.28461C5.12633 6.21636 5.11133 6.14961 5.11133 6.07461C5.11133 5.99886 5.12633 5.92461 5.15633 5.85711C5.18633 5.78961 5.22383 5.72211 5.27633 5.67711C5.49383 5.46636 5.86133 5.46636 6.07133 5.67711C6.17633 5.78136 6.23633 5.92461 6.23633 6.07461C6.23633 6.14961 6.22883 6.21636 6.19883 6.28461C6.16883 6.35211 6.12383 6.41211 6.07133 6.47211C6.01883 6.52461 5.95883 6.56136 5.89133 6.59136C5.82383 6.62136 5.74883 6.63711 5.67383 6.63711Z" fill="#E8C14A"/>
</svg>
