<svg width="32" height="32" viewBox="0 0 32 32" fill="none" xmlns="http://www.w3.org/2000/svg">
<path d="M27.4071 1.33337C28.2715 1.33337 29.1005 1.67676 29.7117 2.28799C30.323 2.89922 30.6663 3.72822 30.6663 4.59263V27.4074C30.6663 28.2719 30.323 29.1009 29.7117 29.7121C29.1005 30.3233 28.2715 30.6667 27.4071 30.6667H4.59227C3.72786 30.6667 2.89885 30.3233 2.28762 29.7121C1.67639 29.1009 1.33301 28.2719 1.33301 27.4074V4.59263C1.33301 3.72822 1.67639 2.89922 2.28762 2.28799C2.89885 1.67676 3.72786 1.33337 4.59227 1.33337H27.4071ZM26.5923 26.5926V17.9556C26.5923 16.5466 26.0325 15.1953 25.0362 14.199C24.0399 13.2027 22.6887 12.643 21.2797 12.643C19.8945 12.643 18.2812 13.4904 17.4989 14.7615V12.9526H12.9523V26.5926H17.4989V18.5586C17.4989 17.3037 18.5093 16.2771 19.7641 16.2771C20.3692 16.2771 20.9495 16.5174 21.3774 16.9453C21.8052 17.3732 22.0456 17.9535 22.0456 18.5586V26.5926H26.5923ZM7.65597 10.3941C8.38207 10.3941 9.07844 10.1057 9.59187 9.59224C10.1053 9.07881 10.3937 8.38244 10.3937 7.65634C10.3937 6.14078 9.17153 4.90226 7.65597 4.90226C6.92555 4.90226 6.22504 5.19242 5.70855 5.70891C5.19206 6.2254 4.9019 6.92591 4.9019 7.65634C4.9019 9.17189 6.14042 10.3941 7.65597 10.3941ZM9.92116 26.5926V12.9526H5.40708V26.5926H9.92116Z" fill="white"/>
</svg>
