<svg width="37" height="37" viewBox="0 0 37 37" fill="none" xmlns="http://www.w3.org/2000/svg">
<g clip-path="url(#clip0_615_3001)">
<path d="M36.1743 19.0594C36.1743 17.5975 36.0529 16.5306 35.7901 15.4243H18.7051V22.0227H28.7336C28.5315 23.6625 27.4397 26.132 25.0134 27.7914L24.9793 28.0123L30.3813 32.1014L30.7556 32.1378C34.1927 29.0361 36.1743 24.4725 36.1743 19.0594Z" fill="#4285F4"/>
<path d="M18.7053 36.4447C23.6185 36.4447 27.7431 34.8641 30.7558 32.1379L25.0136 27.7915C23.477 28.8386 21.4146 29.5695 18.7053 29.5695C13.8932 29.5695 9.80903 26.4679 8.35313 22.1809L8.13973 22.1986L2.52268 26.4462L2.44922 26.6457C5.4416 32.4539 11.5882 36.4447 18.7053 36.4447Z" fill="#34A853"/>
<path d="M8.3527 22.1807C7.96855 21.0744 7.74622 19.889 7.74622 18.6642C7.74622 17.4392 7.96855 16.2539 8.33249 15.1476L8.32231 14.912L2.63487 10.5962L2.44879 10.6827C1.21548 13.0929 0.507812 15.7996 0.507812 18.6642C0.507812 21.5288 1.21548 24.2352 2.44879 26.6455L8.3527 22.1807Z" fill="#FBBC05"/>
<path d="M18.7053 7.75881C22.1223 7.75881 24.4272 9.20099 25.7415 10.4062L30.8771 5.50668C27.723 2.64208 23.6185 0.883789 18.7053 0.883789C11.5882 0.883789 5.4416 4.87446 2.44922 10.6827L8.33292 15.1476C9.80904 10.8605 13.8932 7.75881 18.7053 7.75881Z" fill="#EB4335"/>
</g>
<defs>
<clipPath id="clip0_615_3001">
<rect width="35.6833" height="35.6833" fill="white" transform="translate(0.507812 0.883789)"/>
</clipPath>
</defs>
</svg>
