<svg width="23" height="23" viewBox="0 0 23 23" fill="none" xmlns="http://www.w3.org/2000/svg">
<path d="M7.43848 18.8527C7.64042 18.8528 7.80371 19.0169 7.80371 19.2189C7.80355 19.4207 7.64032 19.5839 7.43848 19.5841C7.23649 19.5841 7.07243 19.4208 7.07227 19.2189C7.07227 19.0168 7.23639 18.8527 7.43848 18.8527Z" fill="#303639" stroke="#303639" stroke-width="2"/>
<path d="M16.3174 18.8527C16.5193 18.8528 16.6826 19.0169 16.6826 19.2189C16.6825 19.4207 16.5192 19.5839 16.3174 19.5841C16.1154 19.5841 15.9513 19.4208 15.9512 19.2189C15.9512 19.0168 16.1153 18.8527 16.3174 18.8527Z" fill="#303639" stroke="#303639" stroke-width="2"/>
<path d="M4.22114 6.92539H19.5364L17.2826 14.8135C17.2022 15.0998 17.03 15.3518 16.7925 15.5307C16.555 15.7096 16.2653 15.8055 15.968 15.8038H7.78957C7.49222 15.8055 7.20253 15.7096 6.96501 15.5307C6.72749 15.3518 6.5553 15.0998 6.47489 14.8135L3.38452 4.00576C3.34368 3.86299 3.25742 3.73741 3.1388 3.64806C3.02018 3.55871 2.87568 3.51046 2.72717 3.51062H1.29297" stroke="#303639" stroke-width="2" stroke-linecap="round" stroke-linejoin="round"/>
</svg>
