<?xml version="1.0" encoding="UTF-8"?>
<svg version="1.1" xmlns="http://www.w3.org/2000/svg" width="512" height="512">
<path d="M0 0 C10.94775107 8.6718745 19.99081105 20.7915181 22.08789062 34.90429688 C22.17039062 35.85304687 22.25289063 36.80179688 22.33789062 37.77929688 C23.12292969 37.73289063 23.90796875 37.68648437 24.71679688 37.63867188 C33.55996524 37.3348575 37.60447049 38.29477142 44.15039062 44.40429688 C48.99352517 50.7098212 48.8542152 60.92520752 49.84570312 68.57226562 C49.9760495 69.5625325 50.10639587 70.55279938 50.24069214 71.57307434 C50.51292287 73.64932245 50.78341974 75.72579859 51.05224609 77.80249023 C51.46322635 80.96938388 51.88266709 84.13508164 52.30273438 87.30078125 C52.5675683 89.32870937 52.83190831 91.35670207 53.09570312 93.38476562 C53.22067169 94.32345993 53.34564026 95.26215424 53.47439575 96.22929382 C54.10118839 101.12671175 54.47236906 105.84207743 54.33789062 110.77929688 C55.29842598 110.76930412 55.29842598 110.76930412 56.27836609 110.7591095 C62.94553607 110.69271895 69.61261207 110.64748067 76.2800293 110.61450195 C78.76802383 110.59941927 81.25599179 110.57895034 83.74389648 110.55297852 C87.3208675 110.5165735 90.89748684 110.49956504 94.47460938 110.48632812 C95.58623947 110.47084427 96.69786957 110.45536041 97.84318542 110.43940735 C98.88388687 110.43918076 99.92458832 110.43895416 100.99682617 110.4387207 C101.90949753 110.43205887 102.82216888 110.42539703 103.76249695 110.41853333 C108.1956983 111.03954031 110.73030507 113.05341915 113.55493164 116.42797852 C115.70683428 120.47277758 116.32247422 123.89793924 116.86523438 128.40039062 C116.97930634 129.2414183 117.0933783 130.08244598 117.21090698 130.94895935 C117.58066316 133.70315992 117.92814239 136.4596762 118.27539062 139.21679688 C118.52819904 141.13185081 118.78236652 143.04672579 119.0378418 144.96142578 C119.69414943 149.91210824 120.33113535 154.86505078 120.96105957 159.81915283 C121.33102082 162.72533207 121.70439354 165.63105037 122.07910156 168.53662109 C123.9791555 183.27352157 123.9791555 183.27352157 124.77709961 189.65209961 C124.8754007 190.43400162 124.97370178 191.21590363 125.07498169 192.02149963 C125.25669733 193.46908906 125.4369702 194.91686071 125.615448 196.36485291 C126.05648347 199.87142256 126.59149149 203.32434529 127.33789062 206.77929688 C128.33046875 206.25980469 129.32304687 205.7403125 130.34570312 205.20507812 C156.54391698 191.67252696 156.54391698 191.67252696 168.33789062 193.77929688 C173.19897982 196.07726631 176.03992119 198.91820768 178.33789062 203.77929688 C181.23018902 221.98897144 167.89467493 240.75647172 157.7878418 254.80957031 C151.50655168 263.38215494 144.74172877 271.46202297 137.58398438 279.31445312 C136.08609551 280.95822334 134.59905896 282.61194844 133.12304688 284.27539062 C122.24040898 296.53509343 122.24040898 296.53509343 116.33789062 301.77929688 C115.67789062 301.77929688 115.01789063 301.77929688 114.33789062 301.77929688 C114.33789062 302.43929688 114.33789062 303.09929687 114.33789062 303.77929688 C111.87544056 306.32641571 109.05803791 308.51322823 106.33789062 310.77929688 C105.51675781 311.47539062 104.695625 312.17148437 103.84960938 312.88867188 C96.62448707 318.92566295 89.11955194 324.48997583 81.33789062 329.77929688 C80.64195801 330.25270508 79.94602539 330.72611328 79.22900391 331.21386719 C43.68065449 355.12318988 6.11743118 366.65395065 -36.47021484 359.1640625 C-60.4933061 354.94704403 -83.57333263 354.43307688 -107.20898438 360.87695312 C-110.35506371 361.69906209 -113.44806028 362.30113313 -116.66210938 362.77929688 C-116.33210937 363.62492187 -116.00210938 364.47054688 -115.66210938 365.34179688 C-114.17472118 370.4546938 -113.9552816 374.68970567 -115.97460938 379.65429688 C-118.82133964 384.80599212 -123.34643671 387.95269669 -127.95947266 391.46191406 C-130.46403642 393.39977269 -132.89669846 395.42190273 -135.33862305 397.43774414 C-138.0587118 399.67503943 -140.80241289 401.88205702 -143.55078125 404.08447266 C-144.9700848 405.22378871 -146.38540108 406.36808809 -147.796875 407.51708984 C-149.88278666 409.20771073 -151.98792765 410.87103296 -154.09960938 412.52929688 C-154.72504639 413.04274658 -155.3504834 413.55619629 -155.99487305 414.08520508 C-160.65262908 417.68005147 -164.76010324 418.92341563 -170.66210938 418.77929688 C-178.2790056 417.46208926 -182.0297166 412.62689328 -186.66210938 406.77929688 C-187.56509766 405.66554688 -187.56509766 405.66554688 -188.48632812 404.52929688 C-189.77507795 402.92984217 -191.05582997 401.32392232 -192.33007812 399.71289062 C-195.24576628 396.04508191 -198.20340539 392.41242996 -201.16210938 388.77929688 C-206.62386709 382.06630863 -212.05291904 375.3286295 -217.43164062 368.54882812 C-221.72007835 363.15893903 -226.08525224 357.83695916 -230.47460938 352.52929688 C-235.30091767 346.69266682 -240.03454001 340.79769964 -244.67993164 334.81640625 C-247.82030906 330.79393943 -251.08529108 326.89833927 -254.41210938 323.02929688 C-267.77701871 307.45928352 -267.77701871 307.45928352 -267.91210938 300.02929688 C-267.95078125 298.76859375 -267.95078125 298.76859375 -267.99023438 297.48242188 C-266.84553473 288.05227715 -258.47767811 282.76974887 -251.53710938 277.33007812 C-249.90671436 276.07630781 -248.27127409 274.82983057 -246.63037109 273.58984375 C-242.78924641 270.68109656 -239.08301486 267.64918347 -235.41210938 264.52929688 C-221.02343495 252.42756408 -221.02343495 252.42756408 -211.86914062 252.47851562 C-208.05737558 252.99799511 -204.93114551 254.83178599 -201.66210938 256.77929688 C-201.26121094 256.1734375 -200.8603125 255.56757813 -200.44726562 254.94335938 C-186.87787724 234.94312706 -168.24123204 218.60014635 -144.77929688 211.60351562 C-143.62800293 211.25764404 -142.47670898 210.91177246 -141.29052734 210.55541992 C-140.42314941 210.29929932 -139.55577148 210.04317871 -138.66210938 209.77929688 C-138.55664638 208.97145972 -138.45118338 208.16362257 -138.34252453 207.3313055 C-135.77450865 187.66601101 -133.19520583 168.0022257 -130.6033659 148.34005642 C-129.35023836 138.83150646 -128.10092193 129.32248486 -126.8605957 119.81225586 C-125.77939432 111.52219577 -124.69102287 103.23311394 -123.59406692 94.94512326 C-123.01360223 90.55753541 -122.43671469 86.16954445 -121.86841393 81.78036308 C-121.33306027 77.64653448 -120.78810585 73.51408384 -120.23586273 69.38247871 C-120.03520196 67.86847227 -119.83800903 66.3540014 -119.64460945 64.83905029 C-119.37922713 62.76444376 -119.10120486 60.69189775 -118.82011414 58.61936951 C-118.66801829 57.46067573 -118.51592245 56.30198195 -118.35921764 55.10817623 C-117.02741869 48.74847828 -114.7551197 44.02347214 -109.66210938 39.77929688 C-105.77420866 37.84538413 -102.66578156 37.55943595 -98.34960938 37.65429688 C-97.28097656 37.67234375 -96.21234375 37.69039062 -95.11132812 37.70898438 C-93.89896484 37.74378906 -93.89896484 37.74378906 -92.66210938 37.77929688 C-92.56736328 36.94011719 -92.56736328 36.94011719 -92.47070312 36.08398438 C-90.18172896 21.09722723 -81.66931069 8.81458264 -69.89648438 -0.38085938 C-48.79963628 -14.57602431 -20.83625202 -15.30277029 0 0 Z M-67.66210938 20.77929688 C-71.74393905 26.35575797 -73.73761336 31.04356084 -75.66210938 37.77929688 C-48.93210938 37.77929688 -22.20210937 37.77929688 5.33789062 37.77929688 C1.07802084 24.99968751 -4.54248274 16.37857119 -16.59960938 9.96679688 C-34.6372401 1.56949253 -54.3360609 6.15376757 -67.66210938 20.77929688 Z M-100.66210938 54.77929688 C-103.68338303 75.92821247 -106.67884136 97.0651196 -109.43164062 118.24804688 C-109.76066773 120.76918206 -110.08982835 123.29029983 -110.41911316 125.81140137 C-111.09677876 131.00348458 -111.77296935 136.19575691 -112.44799805 141.38818359 C-113.22678812 147.37798182 -114.00834009 153.3674126 -114.79146463 159.35664511 C-115.55409297 165.18972866 -116.31456008 171.02309241 -117.07407188 176.85658264 C-117.39448451 179.31591501 -117.71545494 181.77517477 -118.03699684 184.23435974 C-118.48136522 187.63516676 -118.92327598 191.03628405 -119.36450195 194.4375 C-119.49690781 195.44706253 -119.62931366 196.45662506 -119.76573181 197.4967804 C-119.88471832 198.41795151 -120.00370483 199.33912262 -120.126297 200.28820801 C-120.23041806 201.08803352 -120.33453913 201.88785904 -120.44181538 202.71192169 C-120.71508812 204.92996903 -120.71508812 204.92996903 -120.66210938 207.77929688 C-120.00839355 207.79911621 -119.35467773 207.81893555 -118.68115234 207.83935547 C-93.65213708 208.63595328 -72.09805347 212.21154906 -48.81347656 221.60375977 C-37.85293737 225.98556123 -27.48938293 228.16129519 -15.66210938 228.77929688 C-14.16821061 222.45547083 -13.09345246 216.2115746 -12.30517578 209.76489258 C-12.18451248 208.80761261 -12.06384918 207.85033264 -11.93952942 206.86404419 C-11.67979344 204.80181429 -11.42179002 202.73936557 -11.16536331 200.67672157 C-10.7580191 197.40974181 -10.34345539 194.1437552 -9.92660522 190.87797546 C-8.7423683 181.59837547 -7.56267423 172.3182681 -6.40820312 163.03491211 C-5.6998131 157.34285962 -4.97600473 151.65294983 -4.24210739 145.96413231 C-3.96605799 143.80115289 -3.69578296 141.63742824 -3.43144608 139.47298622 C-3.06147529 136.44843684 -2.67191083 133.42700674 -2.27783203 130.40551758 C-2.17379562 129.51550552 -2.06975922 128.62549347 -1.96257019 127.70851135 C-1.11990994 121.47659153 0.55341214 116.98844328 5.66088867 112.9362793 C8.96268529 111.50926478 11.57639471 111.34673071 15.16992188 111.26757812 C16.46220703 111.23212891 17.75449219 111.19667969 19.0859375 111.16015625 C20.44074996 111.13706006 21.79556781 111.11427752 23.15039062 111.09179688 C24.52477179 111.05859926 25.89912234 111.02410734 27.2734375 110.98828125 C30.62817297 110.90588424 33.98264967 110.83670293 37.33789062 110.77929688 C36.76243489 100.3459409 35.57410759 90.05775661 34.18115234 79.70751953 C33.83381972 77.12401698 33.49361551 74.53964429 33.15429688 71.95507812 C32.93465598 70.30007559 32.71461879 68.64512558 32.49414062 66.99023438 C32.34253479 65.84027481 32.34253479 65.84027481 32.18786621 64.66708374 C31.73155963 61.29524774 31.16466118 58.08637911 30.33789062 54.77929688 C-12.89210938 54.77929688 -56.12210938 54.77929688 -100.66210938 54.77929688 Z M15.33789062 126.77929688 C13.77639639 133.55809779 13.77639639 133.55809779 12.64181519 140.34080505 C12.53809601 141.12438889 12.43437683 141.90797272 12.32751465 142.71530151 C12.22249634 143.54006989 12.11747803 144.36483826 12.00927734 145.21459961 C11.89194244 146.11002975 11.77460754 147.0054599 11.65371704 147.92802429 C11.27108306 150.85581773 10.89423267 153.78432246 10.51757812 156.71289062 C10.25171218 158.7579404 9.98552266 160.80294814 9.71902466 162.84791565 C9.16356289 167.1166371 8.61074416 171.3856891 8.06005859 175.6550293 C7.3531004 181.13564146 6.64144851 186.61563072 5.92808342 192.09541225 C5.24792401 197.32185689 4.57020044 202.54861656 3.89257812 207.77539062 C3.76273403 208.77512846 3.63288994 209.77486629 3.49911118 210.80489922 C3.1339558 213.61967814 2.77054804 216.43467678 2.40771484 219.24975586 C2.29864807 220.08869385 2.1895813 220.92763184 2.07720947 221.79199219 C1.53626589 225.77273305 1.53626589 225.77273305 1.33789062 229.77929688 C1.91037033 229.77041443 2.48285004 229.76153198 3.07267761 229.75238037 C9.09221291 229.66310658 15.11155679 229.60323489 21.1315918 229.55957031 C23.37092746 229.53959494 25.61021191 229.51240506 27.84936523 229.47753906 C58.28572198 229.0158678 58.28572198 229.0158678 68.33789062 237.77929688 C69.85356724 239.72051046 71.07981606 241.65024761 72.33789062 243.77929688 C76.86244755 242.26263828 80.17272956 239.83673036 83.96289062 236.96679688 C92.92542665 230.34522175 102.1412748 224.07171823 111.33789062 217.77929688 C107.37789063 187.74929687 103.41789062 157.71929687 99.33789062 126.77929688 C71.61789062 126.77929688 43.89789063 126.77929688 15.33789062 126.77929688 Z M62.46289062 273.59179688 C43.3117484 289.3446913 26.25343225 296.9908472 1.46289062 296.96679688 C0.32291626 296.96788452 0.32291626 296.96788452 -0.84008789 296.96899414 C-11.28980461 296.96789637 -21.57691557 296.53742208 -31.98095703 295.49755859 C-39.63209044 294.76805963 -47.22773566 294.58754902 -54.91210938 294.59179688 C-56.02650391 294.59115234 -57.14089844 294.59050781 -58.2890625 294.58984375 C-62.61443448 294.61945115 -66.47328928 294.68029809 -70.66210938 295.77929688 C-74.35717759 295.90894839 -77.14426755 295.95191082 -80.66210938 294.77929688 C-82.39116916 286.92149053 -82.39116916 286.92149053 -79.78710938 282.84179688 C-72.77073465 278.21098955 -64.39122967 278.42727794 -56.22460938 278.46679688 C-55.09514893 278.46736084 -53.96568848 278.4679248 -52.80200195 278.46850586 C-39.65337496 278.6008833 -26.55542675 279.68152851 -13.45922852 280.79956055 C10.31020675 282.76747042 29.40912213 279.17940953 48.46289062 264.15429688 C52.1700819 260.97201764 55.30435831 258.25306797 57.33789062 253.77929688 C57.76065279 251.05900473 57.76065279 251.05900473 56.33789062 248.77929688 C51.12441738 246.04205611 46.67430215 245.236518 40.83789062 245.02929688 C40.04817871 244.99328369 39.2584668 244.95727051 38.44482422 244.92016602 C32.34855108 244.6939012 26.37113069 245.0220881 20.29101562 245.51367188 C5.2104394 246.52699123 -9.68135224 245.58282774 -24.66210938 243.77929688 C-25.88244873 243.64249512 -25.88244873 243.64249512 -27.12744141 243.50292969 C-40.61420199 241.94770947 -52.59382934 238.0699031 -65.05395508 232.76000977 C-71.1749013 230.19970471 -77.23799463 228.46629017 -83.72460938 227.09179688 C-84.72613037 226.8782959 -85.72765137 226.66479492 -86.75952148 226.44482422 C-113.41733459 221.01921775 -138.76291512 224.11840386 -161.83007812 238.79492188 C-174.17735982 247.44653443 -184.52728955 258.90926945 -190.66210938 272.77929688 C-189.99566406 273.5553125 -189.32921875 274.33132813 -188.64257812 275.13085938 C-183.69297776 280.92232725 -178.83634431 286.76268722 -174.16210938 292.77929688 C-170.59486233 297.37019976 -166.94377197 301.86332985 -163.16210938 306.27929688 C-158.9557243 311.19518372 -154.91607598 316.21619231 -150.94091797 321.3203125 C-147.27701308 326.01782698 -143.54665966 330.65802736 -139.78710938 335.27929688 C-139.25166504 335.93776611 -138.7162207 336.59623535 -138.16455078 337.2746582 C-135.02222127 341.13088477 -131.85358886 344.96365351 -128.66210938 348.77929688 C-127.12010047 348.36389856 -125.57853387 347.94685855 -124.03710938 347.52929688 C-123.06290039 347.26665039 -122.08869141 347.00400391 -121.08496094 346.73339844 C-118.87951398 346.1186419 -116.68192204 345.47458482 -114.49560547 344.79492188 C-105.98374265 342.18322772 -97.76622182 340.82401658 -88.91210938 340.02929688 C-87.67589844 339.90425781 -86.4396875 339.77921875 -85.16601562 339.65039062 C-75.0575356 338.67284367 -65.32494226 338.53877389 -55.22460938 339.52929688 C-54.33845947 339.6129248 -53.45230957 339.69655273 -52.53930664 339.78271484 C-46.17456149 340.42329565 -39.87971428 341.34133978 -33.56420898 342.35253906 C7.318487 348.86334823 40.88736118 337.77759409 74.40234375 313.88891602 C83.98181067 306.94038938 92.86918086 299.40767493 101.53710938 291.36132812 C103.93900195 289.14703106 106.36913987 286.98077017 108.83789062 284.84179688 C112.74069336 281.46914216 112.74069336 281.46914216 116.33789062 277.77929688 C116.33789062 277.11929688 116.33789062 276.45929688 116.33789062 275.77929688 C116.99789063 275.77929688 117.65789062 275.77929688 118.33789062 275.77929688 C119.74090499 274.47042877 119.74090499 274.47042877 121.21289062 272.65429688 C123.46682174 269.98971164 125.72377275 267.33464713 128.04492188 264.72851562 C150.31931573 240.44109515 150.31931573 240.44109515 161.33789062 210.77929688 C130.86546844 210.77929688 84.78162347 255.13531283 62.46289062 273.59179688 Z M-220.59960938 274.77929688 C-230.3655042 283.11366095 -240.46678961 290.98099586 -250.66210938 298.77929688 C-248.04750884 303.56961857 -244.65429575 307.55713149 -241.16210938 311.71679688 C-236.68560236 317.09485078 -232.26532234 322.50178433 -227.97460938 328.02929688 C-224.46983069 332.53626318 -220.87425511 336.94157491 -217.16210938 341.27929688 C-212.94910168 346.20329154 -208.90443465 351.23348085 -204.92114258 356.34448242 C-193.16298548 371.41188339 -180.91016994 386.10904522 -168.66210938 400.77929688 C-165.1106254 398.74807514 -161.98882085 396.52442614 -158.84960938 393.90429688 C-157.9034375 393.12054688 -156.95726562 392.33679688 -155.98242188 391.52929688 C-155.46067383 391.09617187 -154.93892578 390.66304688 -154.40136719 390.21679688 C-151.02514362 387.42634146 -147.62360676 384.66692406 -144.22460938 381.90429688 C-143.53842529 381.34500488 -142.85224121 380.78571289 -142.14526367 380.20947266 C-139.02621054 377.67252479 -135.90821879 375.15368893 -132.66210938 372.77929688 C-133.211762 368.62745651 -135.48160014 366.3233747 -138.16210938 363.21679688 C-139.07665948 362.1455984 -139.99071169 361.07397466 -140.90429688 360.00195312 C-141.36674805 359.46328613 -141.82919922 358.92461914 -142.30566406 358.36962891 C-144.33348332 355.99216046 -146.31085612 353.57469068 -148.28710938 351.15429688 C-149.021875 350.25453125 -149.75664062 349.35476563 -150.51367188 348.42773438 C-153.24406465 345.06190474 -155.94749161 341.67502602 -158.65039062 338.28710938 C-161.45067828 334.79626535 -164.28938839 331.33751664 -167.12695312 327.87695312 C-171.75423619 322.22919053 -176.3485909 316.55451652 -180.95068359 310.88623047 C-182.66727766 308.77293421 -184.38519317 306.66071918 -186.10351562 304.54882812 C-201.52211141 285.59666551 -201.52211141 285.59666551 -206.33398438 279.28320312 C-206.79264893 278.68209717 -207.25131348 278.08099121 -207.72387695 277.46166992 C-208.62784757 276.27407551 -209.52882434 275.08419516 -210.42651367 273.8918457 C-211.48205582 272.50321671 -212.56910133 271.13863242 -213.66210938 269.77929688 C-216.04573058 269.77929688 -218.7807048 273.21230752 -220.59960938 274.77929688 Z " fill="#e8c14a" transform="translate(300.662109375,52.220703125)"/>
<path d="M0 0 C0.66 -0.0103125 1.32 -0.020625 2 -0.03125 C5.00032997 0.76571265 6.12637013 2.03887602 8 4.5 C8.90625 7.890625 8.90625 7.890625 9.5 11.75 C10.73898857 18.88234682 12.1179845 24.54009219 17.3125 29.875 C21.1175047 32.17570052 24.49881263 33.91448248 29.05078125 33.16015625 C34.00145977 31.58451657 37.41183577 29.06407456 40 24.5 C42.76265679 18.37787553 44.45119969 12.23102236 45.41015625 5.59375 C46.12305972 3.06317875 46.89181159 2.05674098 49 0.5 C55.99029126 -0.27669903 55.99029126 -0.27669903 59.4375 2.375 C62.36663128 6.35861854 62.41219717 9.68339978 62 14.5 C59.8844915 27.39025942 54.39445137 38.35345437 44 46.5 C36.10877335 51.44036186 26.51997509 51.93853419 17.5390625 49.95703125 C7.68328635 46.53960695 0.89447743 39.53304169 -3.8125 30.4375 C-7.68190011 22.02410042 -9.33551863 13.79204066 -8 4.5 C-5.67172588 1.3563171 -3.95163011 -0.06174422 0 0 Z " fill="#e8c14a" transform="translate(331,185.5)"/>
<path d="M0 0 C2.68063522 2.04846727 2.9945796 2.97909274 3.875 6.375 C4.01384714 10.40156711 3.47120257 11.88811528 1 15 C-2.20841035 16.60420518 -5.5193987 16.47462745 -9 16 C-11.5 14.5 -11.5 14.5 -13 12 C-13.78550518 8.00701533 -13.60146332 5.04602317 -11.5625 1.5 C-7.8680751 -0.66259019 -4.18565586 -0.85563131 0 0 Z " fill="#e8c14a" transform="translate(309,117)"/>
<path d="M0 0 C3.15811466 0.0553173 4.47098237 0.18575797 7.25 1.8125 C9.28896332 5.35852317 9.47300518 8.31951533 8.6875 12.3125 C7.1875 14.8125 7.1875 14.8125 4.6875 16.3125 C0.63556323 17.10960231 -2.28078847 17.00030769 -5.75 14.6875 C-7.68481132 11.7465868 -8.24059193 9.83599544 -8.3125 6.3125 C-6.03937365 1.66292338 -5.09819702 0.1585364 0 0 Z " fill="#e8c14a" transform="translate(226.3125,116.6875)"/>
</svg>
