<svg width="31" height="31" viewBox="0 0 31 31" fill="none" xmlns="http://www.w3.org/2000/svg">
<g clip-path="url(#clip0_3_6105)">
<path d="M24.8294 18.9071C23.8694 18.9079 22.924 19.1423 22.0747 19.59C21.2255 20.0377 20.498 20.6854 19.9549 21.4771L11.6903 17.7453C12.2773 16.3278 12.2796 14.7357 11.6966 13.3165L19.9498 9.56572C20.7547 10.7298 21.9501 11.5668 23.3192 11.9249C24.6883 12.2831 26.1404 12.1387 27.4122 11.5179C28.684 10.8972 29.6911 9.84113 30.251 8.54139C30.8108 7.24166 30.8863 5.78431 30.4637 4.4337C30.0411 3.08309 29.1484 1.92868 27.9475 1.17987C26.7467 0.431058 25.3172 0.137444 23.9184 0.352287C22.5197 0.567129 21.2442 1.2762 20.3234 2.35087C19.4027 3.42555 18.8976 4.79465 18.8998 6.20983C18.9052 6.54478 18.9391 6.87867 19.0014 7.20784L10.2275 11.1948C9.38487 10.4053 8.32994 9.87914 7.19234 9.68097C6.05475 9.48279 4.88404 9.62123 3.82405 10.0793C2.76406 10.5373 1.86094 11.295 1.22566 12.2593C0.59038 13.2235 0.250598 14.3524 0.248061 15.5071C0.245524 16.6618 0.580342 17.7921 1.21138 18.7592C1.84242 19.7262 2.74219 20.4879 3.80016 20.9506C4.85814 21.4133 6.02822 21.5569 7.16667 21.3637C8.30513 21.1705 9.36236 20.649 10.2085 19.8632L19.0052 23.8349C18.9441 24.1638 18.9105 24.4972 18.9049 24.8317C18.9046 26.0038 19.252 27.1497 19.903 28.1244C20.5541 29.0991 21.4795 29.8588 22.5624 30.3074C23.6452 30.7561 24.8368 30.8736 25.9864 30.645C27.1361 30.4164 28.1921 29.852 29.0209 29.0231C29.8497 28.1943 30.4141 27.1383 30.6427 25.9887C30.8713 24.8391 30.7539 23.6475 30.3052 22.5646C29.8565 21.4818 29.0968 20.5563 28.1221 19.9053C27.1474 19.2542 26.0015 18.9069 24.8294 18.9071ZM24.8294 2.82346C25.4992 2.82321 26.1541 3.02161 26.7111 3.39355C27.2682 3.7655 27.7024 4.29429 27.9589 4.91304C28.2154 5.5318 28.2827 6.21272 28.1521 6.8697C28.0216 7.52667 27.6992 8.13019 27.2257 8.6039C26.7521 9.07762 26.1487 9.40027 25.4918 9.53104C24.8349 9.6618 24.1539 9.59482 23.5351 9.33855C22.9162 9.08228 22.3873 8.64824 22.0151 8.09133C21.643 7.53441 21.4443 6.87964 21.4443 6.20983C21.445 5.31214 21.8018 4.45138 22.4365 3.8165C23.0711 3.18161 23.9317 2.82447 24.8294 2.82346ZM6.20757 18.9071C5.53776 18.9074 4.88292 18.709 4.32586 18.337C3.76881 17.9651 3.33458 17.4363 3.07807 16.8175C2.82157 16.1988 2.75433 15.5179 2.88485 14.8609C3.01537 14.2039 3.33779 13.6004 3.81133 13.1267C4.28487 12.653 4.88826 12.3303 5.54519 12.1995C6.20212 12.0688 6.88307 12.1358 7.50192 12.392C8.12077 12.6483 8.64972 13.0823 9.02188 13.6393C9.39403 14.1962 9.59267 14.8509 9.59267 15.5208C9.59166 16.4183 9.23474 17.2789 8.60016 17.9137C7.96559 18.5485 7.10516 18.9058 6.20757 18.9071ZM24.8294 28.218C24.1597 28.218 23.5049 28.0194 22.948 27.6473C22.3912 27.2752 21.9571 26.7464 21.7008 26.1276C21.4445 25.5088 21.3775 24.8279 21.5081 24.171C21.6388 23.5141 21.9613 22.9107 22.4349 22.4372C22.9085 21.9636 23.5119 21.641 24.1688 21.5104C24.8257 21.3797 25.5065 21.4468 26.1253 21.7031C26.7441 21.9594 27.273 22.3934 27.6451 22.9503C28.0172 23.5072 28.2158 24.1619 28.2158 24.8317C28.2151 25.7296 27.8581 26.5905 27.2232 27.2255C26.5883 27.8604 25.7273 28.2174 24.8294 28.218Z" fill="black"/>
</g>
<defs>
<clipPath id="clip0_3_6105">
<rect width="30.4735" height="30.4735" fill="white" transform="translate(0.283203 0.28418)"/>
</clipPath>
</defs>
</svg>
