<svg width="101" height="23" viewBox="0 0 101 23" fill="none" xmlns="http://www.w3.org/2000/svg">
<path d="M39.5429 5.15038C41.4972 5.15038 43.3823 5.80835 44.8099 6.97271V5.41564H47.4884V22.3608H44.8099V20.8107C43.4065 21.9681 41.5215 22.6226 39.5429 22.6226C37.1173 22.6226 34.9101 21.7304 33.33 20.1113C31.7637 18.5129 30.9044 16.3082 30.9044 13.9003C30.9044 11.4889 31.7672 9.27731 33.33 7.67201C34.9135 6.04604 37.1208 5.15038 39.5429 5.15038ZM21.0011 5.08838C23.1945 5.08838 25.1835 5.88414 26.6077 7.33441C28.1219 8.87771 28.9293 11.0445 28.9466 13.6075V14.479H15.152C15.3183 17.6621 17.7612 20.0252 20.9387 20.0252C23.2188 20.0252 24.8509 19.0572 26.0775 16.98L26.2265 16.7285L28.5481 18.2132L28.413 18.444C26.8398 21.1345 24.2549 22.5572 20.9353 22.5572C15.9282 22.5572 12.4319 18.9711 12.4319 13.8383C12.4319 8.76747 16.0356 5.08838 21.0011 5.08838ZM92.2542 5.08838C94.4476 5.08838 96.4366 5.88414 97.8607 7.33441C99.375 8.87771 100.182 11.0445 100.2 13.6075V14.479H86.4051C86.5714 17.6621 89.0143 20.0252 92.1918 20.0252C94.4718 20.0252 96.1039 19.0572 97.3306 16.98L97.4795 16.7285L99.8012 18.2132L99.666 18.444C98.0929 21.1345 95.5079 22.5572 92.1883 22.5572C87.1812 22.5572 83.685 18.9711 83.6815 13.8383C83.6815 8.76747 87.2887 5.08838 92.2542 5.08838ZM11.3993 5.38119V7.91315H3.63745V22.3574H0.927734V5.38119H11.3993ZM75.0811 5.15038C78.962 5.15038 81.3737 7.79947 81.3737 12.0642V22.3264H78.664V12.0642C78.664 9.40132 77.129 7.68234 74.7519 7.68234C71.6957 7.68234 70.6076 9.77681 70.6076 11.7369V22.3298H67.8979V12.0676C67.8979 9.36343 66.4114 7.68579 64.017 7.68579C62.0453 7.68579 59.9386 9.20841 59.9386 11.4751V22.3195H57.2288V5.37774H59.9386V7.02093C61.0578 5.80835 62.6517 5.15038 64.5125 5.15038C67.2673 5.15038 68.7746 6.53521 69.5854 7.8477C70.819 6.12872 72.7941 5.15038 75.0811 5.15038ZM53.7118 0.379272V22.3264H51.002V0.379272H53.7118ZM39.4078 7.8477C36.1055 7.8477 33.6141 10.452 33.6141 13.9037C33.6141 17.3382 36.1055 19.9253 39.4078 19.9288C42.8348 19.9288 45.1356 17.507 45.1356 13.9037C45.1356 10.2832 42.8348 7.8477 39.4078 7.8477ZM20.9387 7.61689C18.2082 7.61689 15.9282 9.42199 15.2768 12.047H26.1918C25.7137 9.3841 23.6415 7.61689 20.9387 7.61689ZM92.1883 7.61689C89.4578 7.61689 87.1778 9.42199 86.5263 12.047H97.4414C96.9632 9.3841 94.8911 7.61689 92.1883 7.61689Z" fill="#111111"/>
</svg>
