<svg width="74" height="74" viewBox="0 0 74 74" fill="none" xmlns="http://www.w3.org/2000/svg">
<path fill-rule="evenodd" clip-rule="evenodd" d="M27.0309 50.2444V33.8575C27.0309 33.6707 27.2183 33.4838 27.4058 33.4838H33.7863C33.9738 33.4838 34.1612 33.6707 34.1612 33.8575V50.2444C34.1612 50.4972 33.9333 50.6548 33.6724 50.6548H27.5197C27.2588 50.6548 27.0309 50.4972 27.0309 50.2444ZM40.3653 0.0725098H40.505C40.8284 0.0761741 41.1077 0.109153 41.4753 0.109153C41.6627 0.109153 41.8539 0.105489 42.0413 0.109153C42.2582 0.112817 42.3243 0.14946 42.5632 0.14946C42.747 0.14946 42.9455 0.142132 43.1292 0.145796C43.324 0.153125 43.3865 0.186104 43.6144 0.186104C43.993 0.186104 44.3201 0.200761 44.7023 0.222747L45.713 0.299698C46.2019 0.303362 47.2273 0.402299 47.7345 0.453599C50.2485 0.71743 52.814 1.04355 55.214 1.75077C55.5154 1.83871 55.7837 1.90467 56.0851 2.00361C56.901 2.26744 57.7133 2.5386 58.4998 2.85006C59.0291 3.05893 59.5106 3.31543 60.0325 3.52796C60.525 3.7295 60.9844 4.02998 61.4512 4.28648C61.9363 4.55031 62.359 4.83613 62.8111 5.1366L64.6856 6.55836C65.1928 6.9541 66.4792 8.18532 66.8982 8.72764L67.398 9.31393C68.394 10.5671 69.2615 11.857 69.9929 13.3117C70.761 14.8397 71.3454 16.4264 71.8269 18.068C72.5767 20.6257 72.8413 22.8609 73.1721 25.4809L73.558 32.2049C73.5543 32.7289 73.5066 33.3335 73.5617 33.8466C73.6389 34.5281 73.6168 38.819 73.558 39.5409C73.5139 40.0796 73.558 40.6768 73.558 41.2228C73.558 41.4537 73.5176 41.5123 73.5176 41.7432L73.4808 43.3921C73.4808 43.623 73.4404 43.6816 73.4404 43.9124C73.4404 44.616 73.3375 46.21 73.2493 47.0491L72.9111 50.0429C72.595 52.2524 72.1577 54.3411 71.4887 56.4408C70.7426 58.7786 69.6216 61.1348 68.1441 63.0952C68.0559 63.2161 68.0008 63.3004 67.9089 63.4213C67.3539 64.1505 66.7511 64.8614 66.1006 65.5099C65.5388 66.0743 64.9488 66.61 64.3327 67.1149L63.7226 67.5913C63.186 67.9907 62.631 68.3901 62.0503 68.7309L60.9991 69.3282C60.8594 69.4015 60.7859 69.4528 60.6352 69.5297C58.86 70.4055 58.1507 70.6547 56.2505 71.2959C55.6955 71.4828 55.1148 71.622 54.5157 71.7723C48.9364 73.1647 42.1185 73.2453 35.5799 73.2453C29.6662 73.2453 23.8958 72.9339 19.1729 71.7576C17.3388 71.2996 14.7403 70.4641 13.0239 69.4711C12.9099 69.4051 12.7997 69.3648 12.6747 69.2952C11.0355 68.3828 10.5062 67.9394 9.1794 66.9061C9.10222 66.8474 9.10589 66.8548 9.03606 66.7888L8.43329 66.2648C7.81214 65.6712 7.04766 64.9383 6.52942 64.2714L5.54441 63.0109C4.55572 61.7027 3.79859 60.2187 3.12966 58.7236L2.80255 57.9285C2.69964 57.6427 2.60775 57.4191 2.51219 57.1333C2.42398 56.8658 2.30269 56.58 2.22551 56.2978C2.14465 56.001 2.04174 55.7152 1.96456 55.4367C1.79916 54.8468 1.65582 54.2788 1.51248 53.6779C1.22212 52.443 1.0163 51.2008 0.828852 49.8706C0.714914 49.0681 0.42088 46.6094 0.417205 45.8289C0.413529 45.0044 0.292241 44.0114 0.266513 43.1723C0.262837 42.989 0.270188 42.7948 0.270188 42.6079C0.270188 42.3771 0.229759 42.3185 0.229759 42.0876L0.193004 38.2327C0.193004 37.8626 0.15625 37.5878 0.15625 37.1847C0.15625 35.686 0.200355 34.2606 0.193004 32.7326C0.193004 32.4944 0.229758 32.4285 0.233434 32.2123C0.240785 31.4831 0.28489 29.0829 0.3731 28.46C0.442933 27.958 0.424556 26.9943 0.516441 26.3603C0.567897 26.0196 0.578923 25.6678 0.612002 25.3307C0.887658 22.4945 1.38384 19.6143 2.27329 16.9614C2.82093 15.3234 3.47515 13.7954 4.31315 12.2967L5.16584 10.9372C5.61792 10.263 6.11043 9.64738 6.62131 9.02078L7.39315 8.14501C7.73864 7.75293 8.17601 7.40482 8.5362 7.04205C9.34847 6.22124 11.1384 4.97537 12.072 4.42939C15.321 2.5276 18.401 1.67748 22.0544 0.98859C23.1717 0.776059 25.3696 0.475585 26.5053 0.413292C27.0346 0.383977 27.5344 0.303362 28.0821 0.299698C28.5966 0.296033 29.464 0.186104 30.1844 0.186104C30.4233 0.186104 30.4895 0.149461 30.7063 0.145796C30.8938 0.142132 31.0849 0.14946 31.2723 0.14946C31.4892 0.145796 31.5553 0.109153 31.7942 0.109153L40.3653 0.0725098V0.0725098ZM51.8363 50.2077V23.1577C51.8363 22.9012 52.009 22.6704 52.2479 22.6704H58.2903C58.5292 22.6704 58.702 22.9012 58.702 23.1577V50.2077C58.702 50.4752 58.4594 50.6585 58.1764 50.6585H52.3582C52.0752 50.6585 51.8326 50.4752 51.8326 50.2077H51.8363ZM21.1025 50.6585H15.2475C14.9866 50.6585 14.7587 50.5009 14.7587 50.2481V23.0844C14.7587 22.8646 14.9535 22.674 15.1703 22.674C21.4479 22.674 27.8174 22.7107 34.084 22.674L35.3226 22.7107C35.5248 22.7143 35.5432 22.7437 35.7343 22.751L37.3184 22.8573C37.6051 22.8866 37.8366 22.9086 38.1013 22.9379C38.5901 22.9928 39.1193 23.0735 39.5861 23.1797C42.5522 23.843 44.2576 24.7627 45.3933 27.6429C46.3415 30.043 46.4334 34.0957 46.4334 36.8586V50.2151C46.4334 50.4826 46.1909 50.6658 45.9078 50.6658H40.0897C39.4281 50.6658 39.5641 49.9952 39.5641 49.3576V36.4885C39.5641 34.6454 39.6082 31.7799 38.4431 30.2335C37.2927 28.7055 34.7603 28.482 32.8087 28.482H22.1132C21.5325 28.482 21.5876 29.0316 21.5876 29.3797C21.5913 31.6516 21.6354 50.1858 21.5692 50.3873C21.5435 50.4642 21.459 50.5595 21.4002 50.5925C21.3303 50.6328 21.2164 50.6658 21.0988 50.6658L21.1025 50.6585Z" fill="#FF6900"/>
</svg>
