<svg width="21" height="25" viewBox="0 0 21 25" fill="none" xmlns="http://www.w3.org/2000/svg">
<path d="M19.792 19.2035C19.442 20.0187 19.0097 20.796 18.502 21.5235C17.823 22.491 17.2675 23.1605 16.8395 23.5325C16.176 24.1425 15.4645 24.4555 14.703 24.473C14.1565 24.473 13.4975 24.3175 12.73 24.002C11.96 23.688 11.2525 23.532 10.6055 23.532C9.927 23.532 9.1995 23.688 8.421 24.002C7.6415 24.3175 7.0135 24.482 6.5335 24.498C5.8035 24.5295 5.0755 24.208 4.3485 23.5325C3.885 23.1275 3.3055 22.4345 2.6105 21.4525C1.865 20.4035 1.252 19.1875 0.772 17.8005C0.258 16.303 0 14.8525 0 13.4485C0 11.84 0.3475 10.453 1.0435 9.2905C1.591 8.3565 2.3185 7.6205 3.2295 7.0795C4.12324 6.54467 5.14302 6.25686 6.1845 6.2455C6.7645 6.2455 7.525 6.425 8.4705 6.7775C9.413 7.131 10.018 7.3105 10.2835 7.3105C10.4815 7.3105 11.154 7.1005 12.2935 6.6825C13.3715 6.2945 14.281 6.134 15.026 6.1975C17.0455 6.3605 18.5625 7.1565 19.571 8.5905C17.7655 9.6845 16.872 11.217 16.89 13.183C16.906 14.7145 17.4615 15.989 18.5535 17.0005C19.0485 17.4705 19.601 17.8335 20.2155 18.091C20.0867 18.4664 19.9454 18.8374 19.792 19.2035ZM15.161 0.9805C15.161 2.1805 14.7225 3.3015 13.8485 4.3385C12.7935 5.572 11.518 6.2845 10.1345 6.172C10.1159 6.02105 10.1066 5.8691 10.1065 5.717C10.1065 4.565 10.608 3.332 11.499 2.3235C11.944 1.813 12.509 1.3885 13.195 1.05C13.88 0.7165 14.527 0.532 15.136 0.5C15.1535 0.6605 15.161 0.821 15.161 0.98V0.9805Z" fill="white"/>
</svg>
