<?xml version="1.0" encoding="UTF-8"?>
<svg xmlns="http://www.w3.org/2000/svg" xmlns:xlink="http://www.w3.org/1999/xlink" width="80px" height="47px" viewBox="0 0 80 47" version="1.1">
<g id="surface1">
<path style=" stroke:none;fill-rule:nonzero;fill:rgb(91.37255%,0%,10.196079%);fill-opacity:1;" d="M 80.050781 3.613281 L 80.050781 38.148438 C 80.054688 40.148438 78.441406 41.769531 76.449219 41.769531 L 11.953125 41.769531 L 11.953125 38.164062 L 76.460938 38.164062 L 76.460938 3.601562 L 3.589844 3.601562 L 3.589844 33.511719 L 11.953125 41.949219 L 11.953125 47.054688 L 1.46875 36.476562 C 0.527344 35.53125 0 34.25 0 32.914062 L 0 4.3125 C 0 1.929688 1.921875 0 4.296875 0 L 76.449219 0 C 78.4375 0 80.050781 1.617188 80.050781 3.613281 Z M 80.050781 3.613281 "/>
<path style=" stroke:none;fill-rule:nonzero;fill:rgb(0%,0%,0%);fill-opacity:1;" d="M 68.105469 7.632812 L 70.632812 7.632812 L 70.632812 19.296875 L 68.105469 19.296875 Z M 68.105469 7.632812 "/>
<path style=" stroke:none;fill-rule:nonzero;fill:rgb(0%,0%,0%);fill-opacity:1;" d="M 27.894531 8.515625 C 27.617188 7.84375 26.957031 7.402344 26.230469 7.402344 C 25.5 7.402344 24.84375 7.84375 24.566406 8.515625 L 20.121094 19.207031 L 22.859375 19.207031 L 23.921875 16.648438 L 28.539062 16.648438 L 29.601562 19.207031 L 32.339844 19.207031 Z M 24.746094 14.667969 L 26.230469 11.097656 L 27.710938 14.667969 Z M 24.746094 14.667969 "/>
<path style=" stroke:none;fill-rule:nonzero;fill:rgb(0%,0%,0%);fill-opacity:1;" d="M 27.648438 22.675781 C 27.371094 22 26.722656 21.558594 26 21.558594 C 25.28125 21.558594 24.632812 22 24.355469 22.675781 L 19.964844 33.363281 L 22.667969 33.363281 L 23.71875 30.808594 L 28.285156 30.808594 L 29.332031 33.363281 L 32.035156 33.363281 Z M 24.535156 28.828125 L 26 25.257812 L 27.464844 28.828125 Z M 24.535156 28.828125 "/>
<path style=" stroke:none;fill-rule:nonzero;fill:rgb(0%,0%,0%);fill-opacity:1;" d="M 62.945312 8.515625 C 62.667969 7.84375 62.007812 7.402344 61.28125 7.402344 C 60.550781 7.402344 59.894531 7.84375 59.617188 8.515625 L 55.171875 19.207031 L 57.910156 19.207031 L 58.976562 16.65625 L 63.59375 16.65625 L 64.65625 19.214844 L 67.394531 19.214844 Z M 59.796875 14.667969 L 61.28125 11.097656 L 62.761719 14.667969 Z M 59.796875 14.667969 "/>
<path style=" stroke:none;fill-rule:nonzero;fill:rgb(0%,0%,0%);fill-opacity:1;" d="M 19.390625 21.792969 L 19.390625 31.960938 C 19.390625 33.554688 17.371094 34.199219 16.46875 32.890625 L 11.851562 26.144531 L 11.851562 33.453125 L 9.347656 33.453125 L 9.347656 23.390625 C 9.347656 21.753906 11.425781 21.09375 12.347656 22.433594 L 16.890625 29.066406 L 16.890625 21.792969 Z M 19.390625 21.792969 "/>
<path style=" stroke:none;fill-rule:nonzero;fill:rgb(0%,0%,0%);fill-opacity:1;" d="M 43.132812 7.632812 L 43.132812 17.804688 C 43.132812 19.398438 41.085938 20.042969 40.175781 18.734375 L 35.503906 11.988281 L 35.503906 19.296875 L 32.972656 19.296875 L 32.972656 9.230469 C 32.972656 7.59375 35.074219 6.933594 36.003906 8.277344 L 40.605469 14.910156 L 40.605469 7.632812 Z M 43.132812 7.632812 "/>
<path style=" stroke:none;fill-rule:nonzero;fill:rgb(0%,0%,0%);fill-opacity:1;" d="M 64.640625 33.65625 C 60.394531 33.65625 58.230469 30.75 58.230469 27.707031 C 58.230469 24.15625 61.183594 21.625 64.558594 21.625 C 68.222656 21.625 70.957031 23.820312 70.957031 27.800781 C 70.953125 30.921875 68.550781 33.65625 64.640625 33.65625 Z M 68.234375 27.714844 C 68.246094 25.4375 66.804688 23.894531 64.804688 23.761719 C 62.867188 23.636719 61.011719 25.363281 61.007812 27.65625 C 61.007812 29.855469 62.59375 31.582031 64.613281 31.589844 C 66.695312 31.601562 68.214844 29.972656 68.230469 27.714844 Z M 68.234375 27.714844 "/>
<path style=" stroke:none;fill-rule:nonzero;fill:rgb(0%,0%,0%);fill-opacity:1;" d="M 53.328125 31.589844 C 51.300781 31.578125 49.710938 29.851562 49.722656 27.65625 C 49.722656 25.363281 51.578125 23.636719 53.515625 23.761719 C 54.609375 23.808594 55.617188 24.363281 56.246094 25.269531 L 57.800781 23.183594 C 56.664062 22.15625 55.078125 21.625 53.265625 21.625 C 49.894531 21.625 46.9375 24.15625 46.9375 27.707031 C 46.9375 30.75 49.101562 33.65625 53.351562 33.65625 C 55.167969 33.65625 56.660156 33.070312 57.734375 32.125 L 56.21875 30.121094 C 55.554688 31.070312 54.472656 31.621094 53.328125 31.589844 Z M 53.328125 31.589844 "/>
<path style=" stroke:none;fill-rule:nonzero;fill:rgb(0%,0%,0%);fill-opacity:1;" d="M 45.332031 33.453125 L 42.835938 33.453125 L 42.835938 26.089844 L 40.285156 29.929688 C 39.992188 30.371094 39.503906 30.636719 38.980469 30.636719 C 38.457031 30.636719 37.964844 30.371094 37.671875 29.929688 L 35.125 26.089844 L 35.125 33.453125 L 32.625 33.453125 L 32.625 23.351562 C 32.625 21.457031 34.894531 21.207031 35.875 22.683594 L 38.980469 27.359375 L 42.085938 22.683594 C 43.0625 21.207031 45.332031 21.457031 45.332031 23.351562 Z M 45.332031 33.453125 "/>
<path style=" stroke:none;fill-rule:nonzero;fill:rgb(0%,0%,0%);fill-opacity:1;" d="M 49.570312 7.632812 L 46.441406 7.632812 C 45.886719 7.636719 45.441406 8.085938 45.441406 8.640625 L 45.441406 18.292969 C 45.441406 18.847656 45.886719 19.296875 46.441406 19.296875 L 49.90625 19.296875 C 53.613281 19.296875 55.636719 16.425781 55.636719 13.382812 C 55.636719 10 53.277344 7.632812 49.570312 7.632812 Z M 49.570312 17.253906 L 47.964844 17.253906 L 47.964844 9.796875 L 49.570312 9.796875 C 51.421875 9.796875 52.9375 11.015625 52.9375 13.550781 C 52.9375 15.746094 51.253906 17.253906 49.570312 17.253906 Z M 49.570312 17.253906 "/>
<path style=" stroke:none;fill-rule:nonzero;fill:rgb(0%,0%,0%);fill-opacity:1;" d="M 19.242188 10.507812 C 19.242188 8.910156 17.761719 7.632812 15.90625 7.632812 L 10.421875 7.632812 C 9.867188 7.632812 9.421875 8.085938 9.421875 8.640625 L 9.421875 18.292969 C 9.421875 18.847656 9.867188 19.296875 10.421875 19.296875 L 16.917969 19.296875 C 18.84375 19.296875 19.902344 17.757812 19.902344 16.179688 C 19.902344 14.394531 18.625 13.628906 17.378906 13.308594 C 18.796875 12.710938 19.242188 11.902344 19.242188 10.507812 Z M 15.140625 9.800781 C 16.132812 9.800781 16.597656 10.277344 16.597656 11.039062 C 16.597656 11.695312 16.199219 12.464844 15.140625 12.464844 L 11.949219 12.464844 L 11.949219 9.796875 Z M 17.207031 15.824219 C 17.207031 16.496094 16.804688 17.253906 15.570312 17.253906 L 11.949219 17.253906 L 11.949219 14.394531 L 15.652344 14.394531 C 16.832031 14.394531 17.207031 15.082031 17.207031 15.824219 Z M 17.207031 15.824219 "/>
</g>
</svg>
