<svg width="318" height="350" viewBox="0 0 318 350" fill="none" xmlns="http://www.w3.org/2000/svg">
<rect width="318" height="350" rx="28" fill="#FAFAFA"/>
<rect x="8" y="7" width="302" height="335" rx="26" fill="#ECEDEF"/>
<path d="M8 32C8 18.7452 18.7452 8 32 8L66 8V22C66 35.2548 55.2548 46 42 46L8 46L8 32Z" fill="#E8C14A"/>
<path d="M25.188 31C25.1 31 25.028 30.972 24.972 30.916C24.916 30.86 24.888 30.788 24.888 30.7V22.9C24.888 22.812 24.916 22.74 24.972 22.684C25.028 22.628 25.1 22.6 25.188 22.6H26.28C26.4 22.6 26.488 22.628 26.544 22.684C26.6 22.74 26.636 22.784 26.652 22.816L29.856 27.82V22.9C29.856 22.812 29.884 22.74 29.94 22.684C29.996 22.628 30.064 22.6 30.144 22.6H31.368C31.456 22.6 31.528 22.628 31.584 22.684C31.64 22.74 31.668 22.812 31.668 22.9V30.7C31.668 30.78 31.64 30.852 31.584 30.916C31.528 30.972 31.456 31 31.368 31H30.264C30.144 31 30.056 30.972 30 30.916C29.952 30.852 29.916 30.808 29.892 30.784L26.7 25.936V30.7C26.7 30.788 26.672 30.86 26.616 30.916C26.56 30.972 26.488 31 26.4 31H25.188ZM36.0947 31.12C35.1747 31.12 34.4427 30.864 33.8987 30.352C33.3627 29.84 33.0787 29.096 33.0467 28.12C33.0467 28.056 33.0467 27.972 33.0467 27.868C33.0467 27.756 33.0467 27.668 33.0467 27.604C33.0787 26.988 33.2187 26.46 33.4667 26.02C33.7147 25.572 34.0627 25.232 34.5107 25C34.9587 24.76 35.4827 24.64 36.0827 24.64C36.7547 24.64 37.3147 24.78 37.7627 25.06C38.2187 25.332 38.5587 25.708 38.7827 26.188C39.0147 26.66 39.1307 27.204 39.1307 27.82V28.096C39.1307 28.176 39.0987 28.244 39.0347 28.3C38.9787 28.356 38.9107 28.384 38.8307 28.384H34.9067C34.9067 28.392 34.9067 28.408 34.9067 28.432C34.9067 28.448 34.9067 28.464 34.9067 28.48C34.9147 28.736 34.9627 28.972 35.0507 29.188C35.1467 29.396 35.2787 29.564 35.4467 29.692C35.6227 29.82 35.8307 29.884 36.0707 29.884C36.2707 29.884 36.4347 29.856 36.5627 29.8C36.6907 29.744 36.7947 29.676 36.8747 29.596C36.9627 29.516 37.0267 29.448 37.0667 29.392C37.1387 29.312 37.1947 29.264 37.2347 29.248C37.2827 29.224 37.3547 29.212 37.4507 29.212H38.6987C38.7787 29.212 38.8427 29.236 38.8907 29.284C38.9467 29.324 38.9707 29.384 38.9627 29.464C38.9547 29.592 38.8867 29.752 38.7587 29.944C38.6387 30.128 38.4587 30.312 38.2187 30.496C37.9787 30.672 37.6787 30.82 37.3187 30.94C36.9667 31.06 36.5587 31.12 36.0947 31.12ZM34.9067 27.292H37.2587V27.268C37.2587 26.98 37.2107 26.732 37.1147 26.524C37.0267 26.308 36.8947 26.14 36.7187 26.02C36.5427 25.9 36.3307 25.84 36.0827 25.84C35.8347 25.84 35.6227 25.9 35.4467 26.02C35.2707 26.14 35.1347 26.308 35.0387 26.524C34.9507 26.732 34.9067 26.98 34.9067 27.268V27.292ZM41.8587 31C41.7467 31 41.6587 30.972 41.5947 30.916C41.5387 30.86 41.4947 30.788 41.4627 30.7L39.7467 25.144C39.7307 25.104 39.7227 25.064 39.7227 25.024C39.7227 24.952 39.7467 24.892 39.7947 24.844C39.8507 24.788 39.9147 24.76 39.9867 24.76H41.0427C41.1467 24.76 41.2267 24.788 41.2827 24.844C41.3387 24.9 41.3747 24.952 41.3907 25L42.4827 28.708L43.6467 25.024C43.6627 24.968 43.6987 24.912 43.7547 24.856C43.8187 24.792 43.9067 24.76 44.0187 24.76H44.7027C44.8147 24.76 44.8987 24.792 44.9547 24.856C45.0187 24.912 45.0587 24.968 45.0747 25.024L46.2387 28.708L47.3307 25C47.3387 24.952 47.3707 24.9 47.4267 24.844C47.4907 24.788 47.5707 24.76 47.6667 24.76H48.7227C48.7947 24.76 48.8547 24.788 48.9027 24.844C48.9587 24.892 48.9867 24.952 48.9867 25.024C48.9867 25.064 48.9827 25.104 48.9747 25.144L47.2467 30.7C47.2227 30.788 47.1787 30.86 47.1147 30.916C47.0587 30.972 46.9747 31 46.8627 31H45.9387C45.8267 31 45.7387 30.972 45.6747 30.916C45.6107 30.86 45.5627 30.788 45.5307 30.7L44.3667 27.148L43.1787 30.7C43.1547 30.788 43.1107 30.86 43.0467 30.916C42.9827 30.972 42.8947 31 42.7827 31L41.8587 31Z" fill="white"/>
</svg>
