<svg width="25" height="22" viewBox="0 0 25 22" fill="none" xmlns="http://www.w3.org/2000/svg">
<path d="M25.4231 7.00337C25.3474 6.92774 25.2448 6.88525 25.1378 6.88525C25.0308 6.88525 24.9282 6.92774 24.8525 7.00337L22.5202 9.3357L16.2721 2.9558L18.5385 0.689347C18.5761 0.651909 18.6059 0.607424 18.6263 0.558441C18.6467 0.509457 18.6572 0.456935 18.6573 0.403881C18.6573 0.350828 18.6469 0.298284 18.6266 0.249259C18.6064 0.200234 18.5766 0.155689 18.5391 0.118174C18.5016 0.0806596 18.457 0.0509121 18.408 0.0306342C18.359 0.0103564 18.3064 -5.36711e-05 18.2534 2.08079e-07C18.2003 5.40872e-05 18.1478 0.0105708 18.0988 0.0309482C18.0498 0.0513256 18.0054 0.0811636 17.9679 0.118754L14.887 3.1997C14.6847 3.40192 14.5279 3.64492 14.4269 3.91251C14.3259 4.18011 14.2832 4.46615 14.3015 4.75157H13.7614C13.359 4.75173 12.9611 4.83668 12.5937 5.00089C12.2264 5.1651 11.8977 5.40487 11.6292 5.70459L11.5508 5.7922C10.8088 5.42046 9.99568 5.21214 9.16631 5.18129C9.26533 4.83533 9.27006 4.46918 9.18001 4.12077C9.08996 3.77236 8.90841 3.45436 8.65416 3.1997L5.57321 0.118754C5.49753 0.0431651 5.39493 0.000721585 5.28796 0.000754111C5.181 0.000786637 5.07842 0.0432925 5.00279 0.118928C4.92715 0.194563 4.88465 0.297137 4.88461 0.404101C4.88458 0.511065 4.92703 0.613666 5.00262 0.689347L7.30273 2.98946L1.05461 9.3694L-1.31141 7.00337C-1.38709 6.92778 -1.48969 6.88534 -1.59665 6.88537C-1.70362 6.8854 -1.80619 6.92791 -1.88183 7.00354C-1.95746 7.07918 -1.99997 7.18175 -2 7.28872C-2.00003 7.39568 -1.95759 7.49828 -1.882 7.57396L0.701695 10.1577C0.735789 10.2162 0.78452 10.265 0.843113 10.2991L1.19895 10.6549C1.45369 10.909 1.77168 11.0905 2.12004 11.1805C2.46839 11.2705 2.83448 11.2659 3.18045 11.1671C3.19059 11.4415 3.22026 11.7148 3.26922 11.985C3.08137 12.0713 2.9104 12.1904 2.76432 12.3367L1.87865 13.2224C1.63415 13.4669 1.46765 13.7784 1.4002 14.1175C1.33275 14.4566 1.36737 14.8081 1.49969 15.1276C1.63202 15.447 1.85609 15.7201 2.14359 15.9122C2.43109 16.1043 2.76909 16.2068 3.11486 16.2068C3.16928 16.2068 3.22327 16.2041 3.27681 16.1992C3.25419 16.4413 3.28236 16.6855 3.35951 16.916C3.43667 17.1466 3.56112 17.3586 3.72489 17.5383C3.88866 17.7181 4.08815 17.8616 4.3106 17.9598C4.53304 18.058 4.77354 18.1087 5.0167 18.1086C5.07112 18.1086 5.12511 18.1059 5.17865 18.101C5.15604 18.3431 5.18421 18.5873 5.26137 18.8179C5.33854 19.0485 5.46298 19.2604 5.62675 19.4401C5.79052 19.6199 5.99001 19.7634 6.21245 19.8616C6.43489 19.9599 6.67538 20.0105 6.91853 20.0105C6.97295 20.0105 7.02694 20.0077 7.08048 20.0029C7.04752 20.3607 7.12562 20.72 7.30416 21.0318C7.4827 21.3437 7.75301 21.5929 8.07828 21.7457C8.40356 21.8984 8.76799 21.9472 9.12198 21.8854C9.47597 21.8236 9.80231 21.6542 10.0566 21.4002L10.6391 20.8177L11.2217 21.4003C11.4662 21.6447 11.7777 21.8112 12.1168 21.8786C12.4559 21.946 12.8073 21.9114 13.1268 21.7791C13.4462 21.6468 13.7192 21.4227 13.9113 21.1353C14.1034 20.8479 14.206 20.5099 14.2061 20.1642C14.2061 20.11 14.2034 20.0562 14.1986 20.0029C14.2518 20.0078 14.3055 20.0105 14.3597 20.0105C14.8233 20.0104 15.268 19.8262 15.5958 19.4984C15.9237 19.1705 16.1079 18.7258 16.1079 18.2622C16.1079 18.208 16.1052 18.1543 16.1004 18.1011C16.1536 18.1059 16.2073 18.1086 16.2614 18.1086C16.7251 18.1086 17.1698 17.9244 17.4976 17.5965C17.8255 17.2687 18.0097 16.824 18.0097 16.3604C18.0097 16.3062 18.007 16.2525 18.0022 16.1993C18.0554 16.2041 18.1091 16.2068 18.1633 16.2068C18.5091 16.2068 18.8471 16.1043 19.1346 15.9122C19.4221 15.7201 19.6462 15.4471 19.7785 15.1276C19.9108 14.8081 19.9454 14.4566 19.878 14.1175C19.8105 13.7784 19.644 13.4669 19.3995 13.2224L18.9105 12.7334C19.4793 12.3007 19.9648 11.7685 20.3436 11.1625C20.6916 11.2649 21.0608 11.2719 21.4124 11.1826C21.7641 11.0933 22.0852 10.911 22.3422 10.6549L25.4231 7.57396C25.4988 7.49829 25.5413 7.39567 25.5413 7.28867C25.5413 7.18166 25.4988 7.07904 25.4231 7.00337ZM1.76954 10.0843L1.62521 9.93999L7.87334 3.56006L8.08356 3.77029C8.31022 3.99744 8.43752 4.30522 8.43752 4.6261C8.43752 4.94699 8.31022 5.25477 8.08356 5.48191L3.48116 10.0843C3.25402 10.311 2.94624 10.4383 2.62535 10.4383C2.30446 10.4383 1.99668 10.311 1.76954 10.0843ZM3.11486 15.3999C2.92869 15.3999 2.7467 15.3447 2.59191 15.2413C2.43712 15.1378 2.31648 14.9908 2.24524 14.8188C2.17399 14.6468 2.15535 14.4575 2.19166 14.2749C2.22797 14.0923 2.31761 13.9246 2.44924 13.793L3.33491 12.9073C3.42229 12.8197 3.52607 12.7502 3.64032 12.7028C3.75457 12.6554 3.87705 12.6309 4.00075 12.6308C4.12446 12.6308 4.24696 12.6551 4.36126 12.7024C4.47557 12.7497 4.57942 12.8191 4.6669 12.9065C4.75437 12.994 4.82375 13.0979 4.87106 13.2122C4.91837 13.3265 4.94269 13.449 4.94263 13.5727C4.94256 13.6964 4.91812 13.8189 4.87069 13.9331C4.82326 14.0474 4.75377 14.1511 4.66621 14.2385L3.78048 15.1242C3.69327 15.2119 3.58954 15.2814 3.47529 15.3287C3.36104 15.3761 3.23853 15.4003 3.11486 15.3999ZM5.0167 17.3018C4.83052 17.3017 4.64853 17.2465 4.49374 17.1431C4.33894 17.0396 4.2183 16.8926 4.14705 16.7206C4.0758 16.5486 4.05715 16.3593 4.09346 16.1767C4.12976 15.9941 4.2194 15.8264 4.35102 15.6947L5.23675 14.8091C5.41339 14.6331 5.65266 14.5344 5.90203 14.5346C6.1514 14.5348 6.39049 14.634 6.56683 14.8103C6.74317 14.9866 6.84233 15.2257 6.84256 15.4751C6.84278 15.7244 6.74406 15.9637 6.56804 16.1404L5.68232 17.026C5.59511 17.1137 5.49138 17.1832 5.37712 17.2306C5.26287 17.2779 5.14036 17.3021 5.0167 17.3018ZM6.91853 19.2036C6.79486 19.2039 6.67236 19.1797 6.5581 19.1324C6.44385 19.0851 6.34012 19.0156 6.25291 18.9279C6.07664 18.7512 5.97764 18.5118 5.97763 18.2622C5.97762 18.0126 6.0766 17.7733 6.25286 17.5966L7.13858 16.7109C7.22596 16.6233 7.32974 16.5538 7.444 16.5064C7.55825 16.4589 7.68074 16.4345 7.80445 16.4344C7.92817 16.4343 8.05068 16.4586 8.16499 16.506C8.2793 16.5533 8.38316 16.6227 8.47064 16.7101C8.55812 16.7976 8.62749 16.9015 8.67479 17.0158C8.7221 17.1301 8.7464 17.2526 8.74632 17.3763C8.74624 17.5001 8.72178 17.6225 8.67432 17.7368C8.62687 17.851 8.55736 17.9548 8.46977 18.0422L7.58415 18.9279C7.49695 19.0156 7.39321 19.0851 7.27896 19.1324C7.16471 19.1797 7.0422 19.2039 6.91853 19.2036ZM10.3716 19.944L9.48604 20.8297C9.30942 21.0058 9.07012 21.1046 8.82069 21.1044C8.57126 21.1043 8.3321 21.0051 8.15572 20.8287C7.97935 20.6524 7.88018 20.4132 7.87999 20.1638C7.87981 19.9143 7.97863 19.675 8.15475 19.4984L9.04037 18.6128C9.12772 18.5251 9.2315 18.4555 9.34578 18.408C9.46006 18.3605 9.58259 18.3359 9.70636 18.3358C9.83012 18.3357 9.9527 18.36 10.0671 18.4073C10.1814 18.4546 10.2854 18.524 10.3729 18.6115C10.4604 18.699 10.5298 18.803 10.5771 18.9173C10.6244 19.0317 10.6487 19.1543 10.6486 19.278C10.6485 19.4018 10.6239 19.5243 10.5764 19.6386C10.5289 19.7529 10.4593 19.8567 10.3716 19.944ZM19.1047 14.4586C19.1047 14.6448 19.0495 14.8268 18.946 14.9816C18.8426 15.1364 18.6956 15.2571 18.5235 15.3283C18.3515 15.3995 18.1622 15.4182 17.9796 15.3818C17.797 15.3455 17.6293 15.2558 17.4977 15.1241L14.6069 12.2334C14.5694 12.1959 14.5249 12.1662 14.476 12.1458C14.427 12.1255 14.3745 12.1151 14.3215 12.1151C14.2685 12.1151 14.216 12.1255 14.1671 12.1458C14.1181 12.166 14.0736 12.1958 14.0361 12.2332C13.9986 12.2707 13.9689 12.3152 13.9486 12.3642C13.9283 12.4132 13.9179 12.4657 13.9179 12.5187C13.9179 12.5717 13.9284 12.6241 13.9487 12.6731C13.969 12.7221 13.9988 12.7665 14.0363 12.804L16.9271 15.6947C17.0147 15.7821 17.0843 15.8859 17.1319 16.0002C17.1794 16.1144 17.2039 16.237 17.204 16.3607C17.2042 16.4845 17.1799 16.6071 17.1326 16.7214C17.0852 16.8358 17.0158 16.9397 16.9283 17.0272C16.8408 17.1148 16.7369 17.1842 16.6225 17.2315C16.5082 17.2788 16.3856 17.3031 16.2618 17.3029C16.138 17.3028 16.0155 17.2783 15.9012 17.2308C15.787 17.1833 15.6832 17.1137 15.5958 17.026L12.7051 14.1352C12.6294 14.0595 12.5268 14.017 12.4198 14.017C12.3128 14.017 12.2102 14.0595 12.1345 14.1352C12.0588 14.2109 12.0163 14.3135 12.0163 14.4205C12.0163 14.5275 12.0588 14.6301 12.1345 14.7058L15.0252 17.5966C15.1128 17.6839 15.1823 17.7877 15.2297 17.902C15.2771 18.0162 15.3016 18.1387 15.3017 18.2624C15.3017 18.3861 15.2774 18.5086 15.2301 18.6229C15.1828 18.7372 15.1134 18.841 15.026 18.9285C14.9385 19.016 14.8347 19.0853 14.7204 19.1327C14.6061 19.18 14.4836 19.2043 14.3599 19.2042C14.2362 19.2042 14.1137 19.1797 13.9994 19.1323C13.8852 19.0849 13.7814 19.0154 13.694 18.9278L10.8033 16.037C10.7658 15.9995 10.7213 15.9697 10.6724 15.9493C10.6234 15.929 10.5709 15.9185 10.5179 15.9184C10.4649 15.9184 10.4124 15.9288 10.3634 15.9491C10.3144 15.9693 10.2698 15.999 10.2323 16.0365C10.1948 16.074 10.1651 16.1185 10.1448 16.1675C10.1245 16.2165 10.114 16.269 10.1141 16.322C10.1141 16.375 10.1245 16.4275 10.1448 16.4765C10.1652 16.5255 10.1949 16.57 10.2325 16.6075L13.1232 19.4983C13.2107 19.5856 13.28 19.6894 13.3273 19.8036C13.3747 19.9178 13.399 20.0402 13.3991 20.1638C13.3991 20.2874 13.3748 20.4098 13.3275 20.5241C13.2802 20.6383 13.2109 20.742 13.1235 20.8295C13.0361 20.9169 12.9323 20.9863 12.8181 21.0336C12.7039 21.0809 12.5815 21.1053 12.4579 21.1053C12.3343 21.1053 12.2119 21.081 12.0977 21.0337C11.9835 20.9864 11.8797 20.9171 11.7923 20.8297L11.1805 20.2179C11.3488 19.9536 11.4431 19.649 11.4533 19.3358C11.4636 19.0226 11.3895 18.7124 11.2388 18.4376C11.088 18.1629 10.8663 17.9337 10.5966 17.774C10.327 17.6144 10.0194 17.5302 9.70599 17.5301C9.65185 17.5301 9.59815 17.5328 9.5449 17.5377C9.54973 17.4844 9.55244 17.4307 9.55244 17.3766C9.55241 16.9129 9.36821 16.4683 9.04036 16.1404C8.71251 15.8126 8.26786 15.6283 7.8042 15.6283C7.74978 15.6283 7.69578 15.631 7.64225 15.6359C7.66622 15.3802 7.63348 15.1224 7.54637 14.8808C7.45925 14.6392 7.3199 14.4198 7.13826 14.2383C6.95662 14.0567 6.73715 13.9175 6.49552 13.8305C6.25389 13.7435 5.99603 13.7109 5.74035 13.735C5.76276 13.4979 5.73639 13.2587 5.66287 13.0322C5.58935 12.8057 5.47024 12.5966 5.31287 12.4178C5.1555 12.2391 4.9632 12.0945 4.74781 11.9928C4.53243 11.8912 4.29852 11.8348 4.0605 11.827C3.99523 11.4598 3.9714 11.0866 3.98945 10.7141C4.01048 10.6948 4.03138 10.6753 4.05175 10.6549L8.65416 6.05251C8.67455 6.03211 8.69409 6.01119 8.71343 5.99015C8.79233 5.98644 8.87221 5.9839 8.95348 5.9839C9.65536 5.98426 10.3493 6.13251 10.99 6.41899L8.43873 9.27061C8.2252 9.50943 8.11118 9.82091 8.12005 10.1411C8.12892 10.4614 8.26001 10.7661 8.48643 10.9927C8.9161 11.4214 9.49827 11.6621 10.1052 11.6621C10.7121 11.6621 11.2943 11.4213 11.724 10.9926L13.876 8.84012L15.1044 10.0684C16.0699 11.0338 17.0352 11.9992 18.0005 12.9647L18.0016 12.9657L18.829 13.793C18.9166 13.8802 18.9862 13.9839 19.0335 14.0982C19.0808 14.2124 19.105 14.3349 19.1047 14.4586ZM19.2346 11.3181C18.9691 11.6327 18.6669 11.9145 18.3345 12.1575C17.448 11.2707 16.5615 10.3841 15.6749 9.49781L14.1612 7.98423C14.0856 7.90858 13.9829 7.86608 13.8759 7.86609C13.7689 7.8661 13.6663 7.90861 13.5907 7.98428L11.1534 10.4221C10.8752 10.6997 10.4982 10.8556 10.1052 10.8556C9.71218 10.8556 9.3352 10.6997 9.05696 10.4221C8.9763 10.3413 8.92961 10.2328 8.92647 10.1187C8.92334 10.0046 8.964 9.89364 9.0401 9.80858L12.2305 6.24272C12.4233 6.02752 12.6592 5.85535 12.923 5.73745C13.1868 5.61955 13.4725 5.55856 13.7614 5.55845H14.5245C14.6194 5.7407 14.7416 5.90732 14.887 6.05251L19.4894 10.6549C19.5342 10.6997 19.5808 10.7416 19.6286 10.7813C19.509 10.9686 19.3774 11.1479 19.2346 11.3181ZM21.7716 10.0843C21.5444 10.311 21.2367 10.4383 20.9158 10.4383C20.5949 10.4383 20.2871 10.311 20.06 10.0843L15.4576 5.48191C15.2309 5.25477 15.1036 4.94699 15.1036 4.6261C15.1036 4.30522 15.2309 3.99744 15.4576 3.77029L15.7014 3.52641L21.9496 9.90631L21.7716 10.0843Z" fill="#FC7901"/>
</svg>
