<svg width="118" height="47" viewBox="0 0 118 47" fill="none" xmlns="http://www.w3.org/2000/svg">
<g clip-path="url(#clip0_3_9142)">
<path d="M0 0.653809H19.6171V7.18269H7.19391V19.2596H17.0669V25.7885H7.19391V39.8172H19.6171V46.3461H0V0.653809Z" fill="#E8C14A"/>
<path d="M29.3514 7.18269H21.8301V0.653809H44.0568V7.18269H36.5354V46.3461H29.3415V7.18269H29.3514Z" fill="#E8C14A"/>
<path d="M50.079 0.653809H59.823L67.2749 46.3461H60.081L58.7712 37.271V37.3998H50.595L49.2852 46.3461H42.6172L50.079 0.653809ZM57.9179 31.1979L54.7129 8.60933H54.5839L51.4483 31.1979H57.9179Z" fill="#E8C14A"/>
<path d="M73.021 43.9982C71.1456 41.9969 70.2129 39.1635 70.2129 35.5176V11.4925C70.2129 7.83674 71.1456 5.01317 73.021 3.01191C74.8964 1.01064 77.5953 0.0100098 81.1278 0.0100098C84.6603 0.0100098 87.3592 1.01064 89.2346 3.01191C91.11 5.01317 92.0427 7.84665 92.0427 11.4925V35.5176C92.0427 39.1734 91.1 41.9969 89.2346 43.9982C87.3592 45.9995 84.6603 47.0001 81.1278 47.0001C77.5953 47.0001 74.8964 45.9995 73.021 43.9982ZM84.8587 35.9634V11.0269C84.8587 8.02498 83.6184 6.51907 81.1278 6.51907C78.6372 6.51907 77.3969 8.02498 77.3969 11.0269V35.9634C77.3969 38.9653 78.6372 40.4712 81.1278 40.4712C83.6184 40.4712 84.8587 38.9752 84.8587 35.9634Z" fill="white"/>
<path d="M110.935 7.18269H96.418V0.653809H117.99V6.91519L106.747 46.3361H99.4245L110.935 7.17278V7.18269Z" fill="white"/>
</g>
<defs>
<clipPath id="clip0_3_9142">
<rect width="118" height="47" fill="white"/>
</clipPath>
</defs>
</svg>
