<svg width="118" height="47" viewBox="0 0 118 47" fill="none" xmlns="http://www.w3.org/2000/svg">
<g clip-path="url(#clip0_3_9026)">
<path d="M0 0.653931H19.6171V7.18281H7.19391V19.2597H17.0669V25.7886H7.19391V39.8173H19.6171V46.3462H0V0.653931Z" fill="#E8C14A"/>
<path d="M29.3514 7.18281H21.8301V0.653931H44.0568V7.18281H36.5354V46.3462H29.3415V7.18281H29.3514Z" fill="#E8C14A"/>
<path d="M50.079 0.653931H59.823L67.2749 46.3462H60.081L58.7712 37.2711V37.3999H50.595L49.2852 46.3462H42.6172L50.079 0.653931ZM57.9179 31.198L54.7129 8.60945H54.5839L51.4483 31.198H57.9179Z" fill="#E8C14A"/>
<path d="M73.021 43.9981C71.1456 41.9968 70.2129 39.1633 70.2129 35.5175V11.4924C70.2129 7.83662 71.1456 5.01305 73.021 3.01178C74.8964 1.01052 77.5953 0.0098877 81.1278 0.0098877C84.6603 0.0098877 87.3592 1.01052 89.2346 3.01178C91.11 5.01305 92.0427 7.84652 92.0427 11.4924V35.5175C92.0427 39.1733 91.1 41.9968 89.2346 43.9981C87.3592 45.9994 84.6603 47 81.1278 47C77.5953 47 74.8964 45.9994 73.021 43.9981ZM84.8587 35.9633V11.0268C84.8587 8.02485 83.6184 6.51895 81.1278 6.51895C78.6372 6.51895 77.3969 8.02485 77.3969 11.0268V35.9633C77.3969 38.9652 78.6372 40.4711 81.1278 40.4711C83.6184 40.4711 84.8587 38.9751 84.8587 35.9633Z" fill="#292C2D"/>
<path d="M110.935 7.18281H96.418V0.653931H117.99V6.91531L106.747 46.3363H99.4245L110.935 7.1729V7.18281Z" fill="#292C2D"/>
</g>
<defs>
<clipPath id="clip0_3_9026">
<rect width="118" height="47" fill="white"/>
</clipPath>
</defs>
</svg>
