<?xml version="1.0" encoding="UTF-8"?>
<svg version="1.1" xmlns="http://www.w3.org/2000/svg" width="512" height="512">
<path d="M0 0 C1.12735282 0.00092179 2.25470564 0.00184359 3.41622066 0.00279331 C4.7049609 0.00141865 5.99370113 0.00004398 7.3214941 -0.00137234 C8.76297688 0.00216728 10.20445942 0.0058021 11.64594173 0.00952244 C13.15345921 0.0098043 14.66097683 0.00964659 16.16849422 0.00907993 C20.2736879 0.00879192 24.37885262 0.01468922 28.48403955 0.02165389 C32.76952707 0.02788684 37.05501519 0.02849118 41.34050655 0.0296793 C49.46136099 0.03279279 57.58220203 0.04100641 65.70305055 0.05102879 C76.67275232 0.06427446 87.64245771 0.06968969 98.61216545 0.07553101 C115.90395183 0.08494629 133.19570994 0.10486509 150.48749447 0.12304783 C150.48749447 49.29304783 150.48749447 98.46304783 150.48749447 149.12304783 C143.88749447 149.12304783 137.28749447 149.12304783 130.48749447 149.12304783 C130.15749447 111.50304783 129.82749447 73.88304783 129.48749447 35.12304783 C114.64950449 49.80684026 114.64950449 49.80684026 100.48749447 65.12304783 C99.19019576 66.49331394 97.87858284 67.85046106 96.54181576 69.18225193 C95.84393444 69.88006275 95.14605312 70.57787357 94.42702389 71.29683018 C93.31710331 72.39900127 93.31710331 72.39900127 92.18476009 73.52343845 C91.3854356 74.32130268 90.58611111 75.11916691 89.76256466 75.94120884 C88.03952054 77.66046934 86.3153229 79.37857442 84.59007931 81.09562778 C81.85479196 83.81806738 79.12271429 86.54369214 76.39142513 89.27014256 C70.10117438 95.54803957 63.8062673 101.82125785 57.51110744 108.09423161 C51.27498627 114.30848806 45.04088763 120.52475426 38.81017208 126.7444315 C36.12739381 129.42075945 33.44160556 132.0940411 30.75568295 134.76721287 C29.1003826 136.41887835 27.4452238 138.07068571 25.79022884 139.7226572 C24.68030827 140.8248283 24.68030827 140.8248283 23.54796505 141.94926548 C19.52791007 145.96891438 15.68551913 150.08266243 11.98586941 154.39981937 C9.94385372 156.74826998 7.76688066 158.94026757 5.54999447 161.12304783 C4.77784603 161.88617283 4.00569759 162.64929783 3.21015072 163.43554783 C2.64167416 163.99242283 2.07319759 164.54929783 1.48749447 165.12304783 C-3.20155141 163.7000467 -6.02861028 160.96608449 -9.32500553 157.49804783 C-9.82709538 156.98242283 -10.32918522 156.46679783 -10.84648991 155.93554783 C-12.0754678 154.67145628 -13.29496554 153.39815977 -14.51250553 152.12304783 C-13.23576493 149.32424338 -11.9168904 147.2796914 -9.73755741 145.1143198 C-8.89036388 144.26517002 -8.89036388 144.26517002 -8.02605534 143.3988657 C-7.09956181 142.48551456 -7.09956181 142.48551456 -6.15435123 141.55371189 C-5.50206043 140.90273533 -4.84976963 140.25175877 -4.17771244 139.58105564 C-2.01912782 137.42896372 0.14634341 135.28393568 2.31171322 133.13867283 C3.81717095 131.63948875 5.32211252 130.1397862 6.82656002 128.63958836 C10.79316254 124.6862967 14.76528262 120.73859952 18.73902035 116.79248142 C25.08248303 110.49209153 31.41936477 104.18510194 37.75285435 97.87468815 C39.95884522 95.67885495 42.16825644 93.48650787 44.37804317 91.29449558 C45.74627064 89.93310429 47.11438458 88.57159889 48.48236752 87.20996189 C49.08990871 86.60915806 49.69744991 86.00835423 50.32340145 85.38934422 C53.99629489 81.7260671 57.44398988 77.92524123 60.83637047 74.00155354 C63.11810028 71.40559922 65.5163736 68.97453997 67.96381283 66.53320408 C68.47017804 66.02671833 68.97654325 65.52023258 69.49825287 64.99839878 C71.10562149 63.39176468 72.71637226 61.78857393 74.32733822 60.18554783 C75.33314098 59.18121903 76.3387159 58.17666202 77.34406185 57.17187595 C81.03495839 53.48617965 84.73023122 49.8048679 88.42499447 46.12304783 C96.69561947 37.87304783 104.96624447 29.62304783 113.48749447 21.12304783 C55.57249447 20.62804783 55.57249447 20.62804783 -3.51250553 20.12304783 C-3.51250553 0.17202198 -3.51250553 0.17202198 0 0 Z " fill="#000000" transform="translate(299.51250553131104,63.876952171325684)"/>
<path d="M0 0 C4.91935902 4.11619836 9.52647956 8.40410362 14 13 C12.37762918 17.0823021 9.45552411 19.81919972 6.39208984 22.85083008 C5.53310593 23.71266151 5.53310593 23.71266151 4.6567688 24.59190369 C2.76300891 26.48936641 0.86214423 28.37953238 -1.0390625 30.26953125 C-2.36261878 31.59189455 -3.68580464 32.91462868 -5.00863647 34.23771667 C-7.78473885 37.01225463 -10.56416775 39.78340153 -13.34619141 42.55200195 C-16.8950807 46.08397634 -20.43742755 49.62242179 -23.97748756 53.16324329 C-26.71227782 55.89776012 -29.44967873 58.62965098 -32.18793869 61.36069298 C-33.4937356 62.66332766 -34.79894529 63.96655128 -36.1035347 65.27039528 C-47.55898524 76.71214834 -47.55898524 76.71214834 -52.00927734 80.50488281 C-58.24612306 85.8242973 -63.90780661 91.78553715 -69.6875 97.58984375 C-70.85068332 98.75450035 -72.01409429 99.91892965 -73.17773438 101.08312988 C-77.45457217 105.36517578 -81.72702986 109.65159465 -86 113.9375 C-95.57 123.528125 -105.14 133.11875 -115 143 C-59.065 143.495 -59.065 143.495 -2 144 C-2 150.6 -2 157.2 -2 164 C-51.17 164 -100.34 164 -151 164 C-151 113.84 -151 63.68 -151 12 C-144.4 12 -137.8 12 -131 12 C-130.67 50.28 -130.34 88.56 -130 128 C-122.74 120.74 -115.48 113.48 -108 106 C-105.36 103.69 -102.72 101.38 -100 99 C-98.42518665 97.50065732 -96.86611088 95.98441935 -95.33096313 94.44448853 C-94.49826904 93.61172394 -93.66557495 92.77895935 -92.80764771 91.92095947 C-91.92317963 91.03132507 -91.03871155 90.14169067 -90.12744141 89.22509766 C-89.16422596 88.2599586 -88.20077931 87.29505024 -87.23712158 86.33035278 C-85.17866394 84.26875731 -83.12176414 82.205625 -81.06608963 80.14125443 C-77.81640377 76.87795924 -74.56282887 73.61855985 -71.3086853 70.35971069 C-64.41114146 63.45111327 -57.51786604 56.53826409 -50.625 49.625 C-43.16146534 42.13942671 -35.69718535 34.65460523 -28.22804391 27.17462575 C-24.99157736 23.9331727 -21.75756504 20.68929656 -18.52540135 17.44355321 C-16.52089638 15.43160896 -14.51433975 13.42172069 -12.50720978 11.41239548 C-11.12950192 10.03191277 -9.75430943 8.6489212 -8.37918091 7.26586914 C-7.56340576 6.4500235 -6.74763062 5.63417786 -5.90713501 4.79360962 C-5.19668344 4.08093744 -4.48623188 3.36826527 -3.75425148 2.63399696 C-2 1 -2 1 0 0 Z " fill="#000000" transform="translate(215,284)"/>
</svg>
