<?xml version="1.0" encoding="UTF-8"?>
<svg xmlns="http://www.w3.org/2000/svg" xmlns:xlink="http://www.w3.org/1999/xlink" width="212px" height="67px" viewBox="0 0 209 67" version="1.1">
<g id="surface1">
<path style=" stroke:none;fill-rule:nonzero;fill:rgb(100%,100%,100%);fill-opacity:1;" d="M 189.605469 3.457031 C 181.28125 0.527344 171.871094 -0.277344 162.792969 0.304688 C 154.179688 0.851562 145.542969 2.523438 137.007812 4.394531 C 127.324219 6.535156 117.644531 9.074219 108.019531 11.660156 C 91.25 16.175781 74.335938 21.230469 57.285156 23.523438 C 52.042969 24.222656 46.734375 24.671875 41.664062 23.617188 C 36.679688 22.597656 32.304688 20.074219 28.503906 16.921875 C 28.472656 18.222656 28.601562 19.519531 28.878906 20.792969 C 29.390625 23.234375 30.738281 25.238281 32.183594 27.167969 C 28.765625 27.675781 25.3125 27.914062 21.855469 27.878906 C 18.6875 27.761719 15.542969 27.230469 12.511719 26.292969 C 9.785156 25.464844 6.992188 24.453125 4.734375 22.777344 C 3.097656 21.488281 1.527344 20.121094 0.03125 18.675781 C -0.121094 21.945312 1.40625 25.320312 3.089844 27.964844 C 5.429688 31.746094 8.351562 35.132812 11.75 37.996094 C 14.890625 40.695312 18.589844 42.652344 22.582031 43.730469 C 27.09375 44.859375 31.78125 45.132812 36.394531 44.53125 C 38.949219 44.226562 41.480469 43.730469 43.957031 43.042969 C 45.996094 42.480469 48.003906 41.765625 50.074219 41.175781 C 50.828125 40.957031 51.601562 40.707031 52.328125 40.941406 C 53.214844 41.222656 53.25 42.144531 53.105469 42.988281 C 52.675781 45.171875 51.488281 47.136719 49.753906 48.53125 C 48.167969 49.777344 46.339844 49.980469 44.757812 49.015625 C 43.351562 48.15625 42.082031 47.273438 40.371094 47.019531 C 38.214844 46.703125 35.785156 47.066406 33.609375 47.398438 C 31.121094 47.773438 28.636719 48.316406 26.144531 48.421875 C 22.871094 48.53125 19.613281 48.011719 16.535156 46.886719 C 14.332031 46.148438 11.949219 45.144531 9.824219 44.246094 C 12.445312 50.765625 18.753906 55.160156 24.644531 58.433594 C 32.359375 62.714844 41.054688 65.257812 50.035156 66.332031 C 59.011719 67.40625 68.277344 66.738281 77.449219 65.136719 C 86.984375 63.4375 96.347656 60.894531 105.433594 57.539062 C 113.539062 54.578125 121.46875 51.046875 129.324219 47.3125 C 137.714844 43.339844 146.019531 39.164062 154.589844 35.671875 C 161.386719 32.90625 168.347656 30.398438 175.484375 29.078125 C 182.460938 27.792969 190.898438 27.148438 196.195312 31.867188 C 203.25 38.15625 199.285156 48.871094 198.832031 50.074219 C 207.800781 41.921875 211.644531 28.703125 207.113281 18.25 C 204.832031 12.972656 199.46875 6.796875 189.605469 3.421875 "/>
<path style=" stroke:none;fill-rule:nonzero;fill:rgb(92.941177%,11.372549%,14.117648%);fill-opacity:1;" d="M 169.527344 2.207031 C 151.859375 1.382812 121.011719 10.210938 95.582031 17.035156 C 75.199219 22.515625 58.660156 26.148438 47.679688 26.277344 C 41.523438 26.164062 35.523438 24.6875 30.863281 20.917969 C 31.539062 22.8125 35.03125 28.078125 36.601562 28.589844 C 30.097656 29.414062 23.472656 30.515625 17.136719 29.414062 C 12.09375 28.570312 6.546875 26.976562 2.695312 23.410156 C 5.648438 29.15625 9.890625 34.132812 15.089844 37.949219 C 24.125 44.597656 37.160156 43.707031 48.023438 39.6875 C 49.171875 39.277344 50.359375 38.984375 51.566406 38.816406 C 54.3125 38.773438 56.230469 40.609375 54.445312 45.199219 C 52.972656 48.65625 50.160156 51.4375 47.050781 51.644531 C 42.929688 51.847656 42.800781 48.574219 38.082031 48.953125 C 29.847656 49.148438 24.382812 53.082031 13.621094 47.421875 C 15.761719 49.550781 28.09375 63.269531 55.792969 64.804688 C 62.851562 65.199219 70.839844 64.179688 74.566406 63.601562 C 98.816406 59.839844 118.019531 50.621094 134.964844 42.484375 C 149.34375 35.382812 166.558594 27.878906 179.234375 26.542969 C 189.890625 25.148438 197.972656 28.195312 200.863281 34.6875 C 202.152344 37.59375 202.328125 40.972656 201.449219 44.535156 C 212.746094 28.757812 209.261719 3.238281 169.542969 2.175781 "/>
<path style=" stroke:none;fill-rule:nonzero;fill:rgb(100%,94.901961%,0%);fill-opacity:1;" d="M 95.71875 37.46875 C 95.09375 46 92.46875 54.246094 86.234375 55.917969 C 80.441406 57.164062 77.808594 48.136719 78.851562 41.855469 C 79.621094 33.210938 83.070312 26.9375 88.085938 25.316406 C 92.839844 23.78125 96.320312 28.996094 95.730469 37.46875 M 87.933594 30.359375 C 86.402344 30.761719 85.355469 34.832031 84.910156 40.554688 C 84.46875 46.273438 84.65625 51.335938 86.71875 50.804688 C 88.785156 50.273438 89.191406 44.933594 89.59375 39.214844 C 89.996094 33.492188 89.378906 29.960938 87.933594 30.359375 M 92.238281 22.984375 C 97.820312 21.195312 102.3125 23.921875 103.917969 28.011719 C 104.121094 28.523438 104.367188 28.613281 104.617188 28.605469 C 105.125 28.605469 108.460938 27.820312 109.636719 26.390625 C 109.636719 26.390625 110.5625 30.480469 105.601562 33.210938 C 105.191406 33.4375 104.917969 33.851562 104.867188 34.316406 C 104.832031 35.011719 104.304688 38.589844 104.070312 39.578125 C 103.96875 40.015625 103.5625 40.972656 104.417969 40.96875 C 105.125 40.96875 107.25 40.332031 108.730469 36.625 C 108.78125 36.398438 108.730469 36.625 108.730469 36.625 C 107.382812 44.714844 102.171875 50.941406 97.144531 52.804688 C 93.636719 54.101562 94.199219 51.78125 94.863281 50.34375 C 97.171875 44.828125 97.339844 42.164062 97.804688 38.703125 C 98.289062 35.125 97.925781 24.539062 92.230469 22.976562 M 86.511719 22.351562 C 81.558594 25.679688 77.601562 33.660156 76.792969 41.855469 C 76.628906 43.523438 75.355469 55.417969 83.84375 58.917969 C 78.128906 60.101562 71.910156 61.175781 68.867188 61.429688 C 69.636719 58.875 70.117188 56.242188 70.296875 53.582031 C 70.632812 49.527344 70.171875 46.1875 68.699219 46.480469 C 67.609375 46.695312 66.175781 50.570312 65.933594 53.964844 C 65.734375 56.542969 65.90625 59.132812 66.441406 61.660156 C 60.675781 62.167969 54.871094 62.007812 49.140625 61.183594 C 50.195312 60.964844 59.210938 55.523438 60.8125 45.046875 C 62.59375 33.378906 52.601562 30.859375 48.070312 29.144531 C 54.671875 29.023438 59.28125 28.398438 68.964844 26.488281 C 68.964844 26.488281 67.703125 28.421875 67.4375 33.644531 C 67.203125 38.4375 68.097656 40.925781 69.035156 40.867188 C 70.148438 40.792969 71.304688 38.253906 71.722656 33.15625 C 72.15625 27.925781 71.359375 25.996094 71.359375 25.996094 C 75.839844 24.972656 78.867188 24.410156 86.5 22.355469 M 148.378906 7.058594 C 148.671875 11.464844 147.703125 17.570312 145.945312 18.070312 C 144.507812 18.480469 144.015625 11.761719 145.222656 7.640625 C 143.394531 8.003906 138.148438 9.097656 135.851562 9.609375 C 143.367188 18.300781 139.066406 30.773438 134.167969 39.777344 C 136.886719 38.429688 141.648438 36.195312 144.289062 34.980469 C 143.269531 30.542969 144.371094 24.308594 145.960938 23.730469 C 147.347656 23.21875 148.296875 30.476562 146.863281 33.839844 C 149.285156 32.691406 152.621094 31.367188 156.144531 29.988281 C 151.828125 28.234375 148.667969 14.875 157.546875 5.734375 C 155.550781 5.964844 150.230469 6.757812 148.371094 7.082031 M 103.992188 17.734375 C 105.871094 18.113281 114.183594 20.453125 114.136719 32.21875 C 114.136719 42.992188 109.414062 49.699219 108.019531 51.46875 C 108.019531 51.46875 110.957031 50.351562 114.007812 49.035156 C 117.328125 47.609375 120.609375 46.148438 120.609375 46.148438 C 120.609375 46.148438 119.8125 43.800781 121.117188 39.550781 C 122.535156 34.949219 124.320312 33.558594 124.320312 33.558594 C 124.320312 33.558594 123.808594 35.425781 124.976562 38.816406 C 126.144531 42.203125 127.574219 42.972656 127.574219 42.972656 L 132.640625 40.476562 C 132.640625 40.476562 131.253906 37.144531 133.816406 31.886719 C 135.988281 27.449219 138.652344 22.054688 136.953125 15.796875 C 136.449219 13.6875 135.511719 11.707031 134.199219 9.984375 C 133.421875 10.152344 127.097656 11.671875 125.683594 12.027344 C 127.1875 12.585938 130.378906 14.40625 130.730469 19.875 C 130.96875 23.640625 128.90625 26.964844 128.90625 26.964844 C 129 25.6875 128.636719 24.417969 127.886719 23.382812 C 126.679688 21.597656 125.449219 21.222656 125.449219 21.222656 C 125.179688 23.15625 124.542969 25.019531 123.574219 26.710938 C 122.84375 28.03125 121.890625 29.214844 120.757812 30.210938 C 120.757812 30.210938 122.1875 25.433594 121.199219 20.710938 C 120.289062 16.34375 118.019531 14.738281 117.042969 14.242188 C 114.925781 14.792969 105.925781 17.195312 103.980469 17.722656 M 194.96875 24.632812 C 194.246094 24.765625 193.5 24.730469 192.792969 24.523438 C 191.570312 24.195312 190.714844 23.878906 189.671875 23.53125 L 189.941406 19.242188 C 190.410156 20.304688 191.949219 21.527344 192.839844 21.359375 C 193.085938 21.3125 193.28125 21.132812 193.351562 20.894531 C 193.386719 20.414062 193.199219 19.945312 192.839844 19.625 C 192.433594 19.171875 191.695312 18.414062 191.070312 17.714844 C 188.289062 14.585938 189.628906 12.292969 190.339844 11.671875 C 191.078125 11.042969 192.0625 10.789062 193.011719 10.984375 C 194.792969 11.269531 196.132812 12.714844 196.730469 14.179688 C 197.125 15.070312 197.25 16.058594 197.085938 17.019531 C 196.738281 15.996094 194.292969 13.21875 193.320312 14.421875 C 192.667969 15.230469 194.078125 16.273438 195.53125 17.550781 C 197.492188 19.273438 197.679688 20.617188 197.089844 22.574219 C 196.828125 23.613281 196 24.40625 194.957031 24.621094 M 160.902344 18.828125 C 163.335938 16.507812 166.101562 14.441406 167.222656 11.574219 C 168.34375 8.703125 168.414062 6.777344 166.503906 5.632812 C 164.703125 4.558594 161.304688 4.804688 157.898438 8.777344 C 154.167969 13.117188 153.164062 20.363281 154.011719 23.820312 C 154.746094 26.785156 156.328125 29.472656 159.617188 28.660156 C 165.410156 27.234375 165.589844 18.894531 165.589844 18.894531 C 165.589844 18.894531 163.273438 22.835938 161.332031 23.058594 C 159.292969 23.292969 158.921875 20.71875 160.902344 18.828125 M 159.222656 17.007812 C 159.300781 15.285156 159.691406 13.585938 160.375 12.003906 C 161.480469 9.53125 163.019531 8.132812 163.941406 8.960938 C 164.863281 9.789062 164.023438 11.445312 163.171875 12.492188 C 162.429688 13.417969 161.609375 14.273438 160.71875 15.050781 C 160.089844 15.601562 159.570312 16.273438 159.191406 17.023438 M 173.695312 20.179688 C 171.761719 20.429688 171.65625 18.394531 173.234375 16.84375 C 175.203125 14.941406 177.433594 13.265625 178.332031 10.914062 C 179.230469 8.5625 179.273438 7 177.710938 6.082031 C 176.242188 5.21875 173.445312 5.5 170.691406 8.746094 C 167.679688 12.300781 166.804688 18.277344 167.476562 21.097656 C 168.148438 23.921875 169.582031 25.730469 172.480469 24.824219 C 176.894531 23.445312 178.347656 16.792969 178.347656 16.792969 C 178.347656 16.792969 175.75 19.914062 173.695312 20.183594 M 172.789062 11.277344 C 173.675781 9.261719 174.914062 8.117188 175.683594 8.78125 C 176.453125 9.445312 175.761719 10.828125 175.074219 11.660156 C 174.476562 12.410156 173.816406 13.101562 173.097656 13.734375 C 172.59375 14.191406 172.179688 14.738281 171.878906 15.351562 C 171.933594 13.945312 172.242188 12.558594 172.789062 11.261719 M 180.605469 6.28125 C 181.765625 11.152344 180.390625 19.992188 177.125 23.90625 C 180.65625 23.300781 184.253906 23.152344 187.824219 23.464844 L 188.335938 16.539062 C 186.917969 19.742188 179.710938 24.089844 186.066406 7.628906 C 184.269531 7.066406 182.4375 6.617188 180.585938 6.28125 "/>
<path style=" stroke:none;fill-rule:nonzero;fill:rgb(100%,100%,100%);fill-opacity:1;" d="M 200.949219 28.457031 C 199.613281 28.523438 198.480469 27.492188 198.410156 26.152344 C 198.34375 24.816406 199.371094 23.675781 200.703125 23.605469 C 202.035156 23.535156 203.175781 24.5625 203.246094 25.898438 C 203.28125 26.542969 203.058594 27.175781 202.625 27.65625 C 202.195312 28.136719 201.589844 28.425781 200.949219 28.457031 M 200.734375 24.144531 C 199.96875 24.167969 199.296875 24.65625 199.03125 25.371094 C 198.765625 26.089844 198.957031 26.898438 199.519531 27.417969 C 200.082031 27.9375 200.898438 28.066406 201.589844 27.738281 C 202.28125 27.414062 202.710938 26.699219 202.671875 25.933594 C 202.660156 25.4375 202.449219 24.964844 202.082031 24.625 C 201.71875 24.289062 201.230469 24.113281 200.734375 24.144531 M 201.324219 27.296875 L 200.816406 26.34375 L 200.539062 26.34375 L 200.589844 27.367188 L 200.015625 27.398438 L 199.886719 24.839844 L 200.9375 24.789062 C 201.160156 24.765625 201.378906 24.835938 201.550781 24.980469 C 201.71875 25.125 201.820312 25.335938 201.835938 25.558594 C 201.847656 25.859375 201.675781 26.140625 201.398438 26.261719 L 201.992188 27.320312 Z M 200.882812 25.210938 L 200.480469 25.210938 L 200.511719 25.878906 L 200.914062 25.878906 C 201.042969 25.886719 201.164062 25.820312 201.226562 25.707031 C 201.292969 25.597656 201.285156 25.457031 201.210938 25.351562 C 201.136719 25.242188 201.007812 25.1875 200.882812 25.210938 "/>
<path style=" stroke:none;fill-rule:nonzero;fill:rgb(100%,100%,100%);fill-opacity:1;" d="M 63.160156 65.289062 C 60.691406 65.417969 58.21875 65.417969 55.75 65.289062 C 43.554688 64.601562 26.339844 61.050781 13.585938 48.0625 L 11.039062 45.507812 L 13.839844 46.984375 C 21.394531 50.964844 26.269531 50.136719 31.441406 49.261719 C 33.628906 48.839844 35.84375 48.582031 38.066406 48.484375 C 40.652344 48.253906 42.011719 49.152344 43.199219 49.9375 C 44.28125 50.644531 45.210938 51.261719 47.019531 51.167969 C 49.742188 50.988281 52.484375 48.574219 53.996094 45.03125 C 54.796875 42.988281 54.871094 41.367188 54.191406 40.390625 C 53.515625 39.414062 52.414062 39.296875 51.5625 39.3125 C 50.414062 39.476562 49.28125 39.757812 48.1875 40.148438 C 35.3125 44.910156 22.832031 44.238281 14.808594 38.34375 C 9.546875 34.484375 5.253906 29.445312 2.273438 23.628906 L 1.101562 21.289062 L 3.015625 23.0625 C 6.125 25.945312 10.773438 27.867188 17.214844 28.945312 C 22.933594 29.917969 29 29.101562 34.878906 28.308594 L 35.285156 28.257812 C 33.394531 26.539062 30.933594 22.574219 30.386719 21.097656 L 29.816406 19.507812 L 31.132812 20.566406 C 35.3125 23.925781 40.875 25.679688 47.671875 25.816406 C 57.386719 25.699219 72.136719 22.863281 95.453125 16.613281 L 101.640625 14.941406 C 125.8125 8.40625 153.203125 1 169.535156 1.757812 C 192.671875 2.375 201.71875 10.960938 205.207031 18.082031 C 209.179688 26.113281 207.867188 36.375 201.785156 44.875 L 200.339844 46.886719 L 200.9375 44.480469 C 201.800781 41.003906 201.605469 37.699219 200.378906 34.9375 C 197.578125 28.644531 189.675781 25.734375 179.242188 27.074219 C 169.050781 28.15625 154.605469 33.355469 135.121094 42.972656 C 118.132812 51.128906 98.898438 60.355469 74.585938 64.128906 C 72.433594 64.460938 68.023438 65.074219 63.125 65.320312 M 15.941406 49.109375 C 28.277344 60.519531 44.273438 63.734375 55.765625 64.378906 C 63.058594 64.789062 71.253906 63.679688 74.4375 63.183594 C 98.613281 59.4375 117.78125 50.230469 134.695312 42.117188 C 154.289062 32.445312 168.835938 27.214844 179.132812 26.125 C 189.992188 24.71875 198.261719 27.851562 201.242188 34.550781 C 202.285156 37.023438 202.640625 39.730469 202.261719 42.390625 C 207.027344 34.597656 207.867188 25.625 204.328125 18.507812 C 199.519531 8.792969 187.136719 3.167969 169.453125 2.710938 C 153.28125 1.957031 125.949219 9.359375 101.84375 15.867188 L 95.660156 17.539062 C 72.257812 23.828125 57.4375 26.671875 47.628906 26.800781 C 41.414062 26.6875 36.199219 25.238281 32.070312 22.488281 C 33.367188 24.753906 35.636719 27.820312 36.65625 28.160156 L 38.628906 28.8125 L 34.9375 29.324219 C 28.996094 30.128906 22.851562 30.960938 16.996094 29.960938 C 11.53125 29.042969 7.3125 27.527344 4.171875 25.359375 C 7.046875 30.152344 10.855469 34.3125 15.371094 37.59375 C 23.132812 43.292969 35.28125 43.921875 47.855469 39.273438 C 49.050781 38.84375 50.285156 38.542969 51.542969 38.371094 C 53.070312 38.371094 54.304688 38.882812 54.980469 39.859375 C 55.859375 41.125 55.824219 42.988281 54.882812 45.402344 C 53.222656 49.300781 50.160156 51.941406 47.082031 52.144531 C 44.953125 52.253906 43.800781 51.488281 42.683594 50.757812 C 41.570312 50.027344 40.4375 49.28125 38.097656 49.457031 C 35.90625 49.546875 33.722656 49.804688 31.566406 50.222656 C 26.847656 51.03125 22.363281 51.785156 15.960938 49.085938 "/>
</g>
</svg>
