<?xml version="1.0" encoding="UTF-8"?>
<svg xmlns="http://www.w3.org/2000/svg" xmlns:xlink="http://www.w3.org/1999/xlink" width="67px" height="67px" viewBox="0 0 67 67" version="1.1">
<g id="surface1">
<path style=" stroke:none;fill-rule:nonzero;fill:rgb(99.607843%,0%,0%);fill-opacity:1;" d="M 0 0 C 22.109375 0 44.21875 0 67 0 C 67 22.109375 67 44.21875 67 67 C 44.890625 67 22.78125 67 0 67 C 0 44.890625 0 22.78125 0 0 Z M 0 0 "/>
<path style=" stroke:none;fill-rule:nonzero;fill:rgb(0.392157%,0.392157%,0%);fill-opacity:1;" d="M 30.417969 20.132812 C 30.472656 20.144531 30.53125 20.15625 30.585938 20.167969 C 31.675781 20.394531 32.695312 20.898438 33.484375 21.683594 C 33.503906 21.703125 33.523438 21.722656 33.542969 21.742188 C 33.867188 22.070312 33.867188 22.070312 33.867188 22.210938 C 33.996094 22.136719 34.109375 22.054688 34.222656 21.960938 C 34.503906 21.742188 34.804688 21.558594 35.109375 21.371094 C 35.144531 21.351562 35.179688 21.328125 35.21875 21.304688 C 35.710938 21.007812 36.246094 20.789062 36.792969 20.609375 C 36.878906 20.582031 36.960938 20.550781 37.046875 20.519531 C 37.511719 20.34375 38.003906 20.246094 38.492188 20.160156 C 38.515625 20.15625 38.539062 20.148438 38.5625 20.144531 C 39.25 20.019531 39.941406 19.984375 40.640625 19.984375 C 40.679688 19.984375 40.714844 19.984375 40.753906 19.984375 C 42.914062 19.988281 45.113281 20.414062 46.734375 21.941406 C 46.757812 21.964844 46.78125 21.988281 46.808594 22.011719 C 47.179688 22.371094 47.472656 22.785156 47.703125 23.25 C 47.703125 23.269531 47.703125 23.292969 47.703125 23.316406 C 47.816406 23.203125 47.929688 23.089844 48.042969 22.972656 C 48.09375 22.925781 48.144531 22.875 48.191406 22.824219 C 48.226562 22.789062 48.261719 22.753906 48.292969 22.722656 C 48.519531 22.488281 48.753906 22.277344 49.011719 22.078125 C 49.046875 22.046875 49.085938 22.015625 49.121094 21.988281 C 49.707031 21.527344 50.375 21.082031 51.082031 20.84375 C 51.175781 20.808594 51.265625 20.765625 51.359375 20.722656 C 51.558594 20.632812 51.765625 20.5625 51.980469 20.5 C 52.019531 20.488281 52.054688 20.476562 52.097656 20.464844 C 52.207031 20.433594 52.316406 20.398438 52.425781 20.367188 C 52.453125 20.359375 52.480469 20.351562 52.507812 20.34375 C 53.222656 20.144531 54.011719 20.0625 54.753906 20.0625 C 54.789062 20.0625 54.824219 20.0625 54.859375 20.058594 C 54.933594 20.058594 55.007812 20.058594 55.082031 20.058594 C 55.195312 20.058594 55.304688 20.058594 55.417969 20.058594 C 55.824219 20.058594 56.214844 20.074219 56.613281 20.132812 C 56.679688 20.140625 56.742188 20.148438 56.804688 20.15625 C 57.625 20.253906 58.421875 20.464844 59.160156 20.835938 C 59.195312 20.855469 59.195312 20.855469 59.230469 20.871094 C 59.578125 21.042969 59.894531 21.238281 60.199219 21.472656 C 60.230469 21.496094 60.261719 21.519531 60.292969 21.542969 C 61.101562 22.179688 61.710938 23.023438 62.074219 23.984375 C 62.082031 24.007812 62.09375 24.027344 62.101562 24.050781 C 62.292969 24.550781 62.425781 25.074219 62.5 25.609375 C 62.507812 25.691406 62.507812 25.691406 62.527344 25.765625 C 62.550781 25.894531 62.558594 26.019531 62.5625 26.152344 C 62.566406 26.191406 62.566406 26.191406 62.566406 26.234375 C 62.582031 26.539062 62.585938 26.839844 62.585938 27.144531 C 62.585938 27.171875 62.585938 27.199219 62.585938 27.230469 C 62.582031 27.683594 62.570312 28.125 62.511719 28.574219 C 62.507812 28.613281 62.507812 28.613281 62.5 28.652344 C 62.472656 28.875 62.441406 29.097656 62.414062 29.316406 C 62.40625 29.363281 62.40625 29.363281 62.398438 29.410156 C 62.355469 29.722656 62.3125 30.035156 62.238281 30.339844 C 62.203125 30.476562 62.171875 30.613281 62.144531 30.75 C 61.953125 31.605469 61.742188 32.449219 61.496094 33.289062 C 61.488281 33.324219 61.476562 33.359375 61.464844 33.398438 C 61.40625 33.597656 61.339844 33.789062 61.269531 33.984375 C 61.199219 34.175781 61.136719 34.375 61.074219 34.570312 C 61.0625 34.605469 61.054688 34.640625 61.042969 34.675781 C 61.019531 34.746094 60.996094 34.820312 60.972656 34.890625 C 60.90625 35.105469 60.828125 35.3125 60.738281 35.519531 C 60.691406 35.632812 60.652344 35.75 60.617188 35.867188 C 60.566406 36.027344 60.507812 36.183594 60.4375 36.332031 C 60.398438 36.421875 60.363281 36.511719 60.328125 36.605469 C 60.222656 36.882812 60.105469 37.15625 59.988281 37.429688 C 59.976562 37.453125 59.964844 37.480469 59.953125 37.507812 C 59.273438 39.078125 58.488281 40.597656 57.417969 41.941406 C 57.382812 41.988281 57.382812 41.988281 57.34375 42.035156 C 56.878906 42.621094 56.34375 43.199219 55.742188 43.652344 C 55.703125 43.683594 55.664062 43.714844 55.625 43.746094 C 54.28125 44.785156 52.664062 45.390625 50.988281 45.59375 C 50.960938 45.597656 50.9375 45.597656 50.910156 45.601562 C 49.960938 45.710938 48.886719 45.761719 47.945312 45.542969 C 47.847656 45.523438 47.75 45.507812 47.652344 45.496094 C 47.277344 45.445312 46.921875 45.347656 46.566406 45.226562 C 46.539062 45.21875 46.515625 45.207031 46.492188 45.199219 C 46.144531 45.082031 45.816406 44.929688 45.492188 44.757812 C 45.472656 44.746094 45.453125 44.734375 45.429688 44.722656 C 44.972656 44.472656 44.574219 44.164062 44.1875 43.816406 C 44.164062 43.796875 44.140625 43.777344 44.117188 43.757812 C 43.933594 43.582031 43.78125 43.375 43.628906 43.171875 C 43.589844 43.121094 43.550781 43.074219 43.511719 43.027344 C 43.246094 42.683594 42.8125 42.058594 42.8125 41.605469 C 42.707031 41.710938 42.609375 41.816406 42.511719 41.933594 C 42.304688 42.179688 42.082031 42.414062 41.855469 42.640625 C 41.824219 42.671875 41.796875 42.699219 41.765625 42.730469 C 41.566406 42.925781 41.359375 43.109375 41.136719 43.28125 C 41.113281 43.300781 41.085938 43.324219 41.0625 43.34375 C 40.566406 43.742188 40.050781 44.082031 39.492188 44.386719 C 39.433594 44.417969 39.375 44.453125 39.316406 44.484375 C 38.902344 44.71875 38.460938 44.886719 38.023438 45.058594 C 37.996094 45.066406 37.96875 45.078125 37.9375 45.089844 C 37.34375 45.320312 36.710938 45.464844 36.078125 45.558594 C 36.050781 45.5625 36.023438 45.570312 35.996094 45.574219 C 35.492188 45.648438 34.996094 45.675781 34.488281 45.671875 C 34.371094 45.671875 34.257812 45.671875 34.140625 45.671875 C 33.734375 45.671875 33.335938 45.65625 32.929688 45.59375 C 32.894531 45.589844 32.859375 45.582031 32.824219 45.578125 C 31.507812 45.367188 30.242188 44.832031 29.253906 43.921875 C 29.183594 43.855469 29.113281 43.792969 29.039062 43.730469 C 28.867188 43.582031 28.703125 43.421875 28.609375 43.214844 C 28.472656 43.332031 28.339844 43.449219 28.21875 43.578125 C 27.726562 44.070312 27.089844 44.433594 26.464844 44.722656 C 26.445312 44.734375 26.421875 44.742188 26.398438 44.753906 C 25.808594 45.027344 25.210938 45.222656 24.574219 45.371094 C 24.503906 45.386719 24.4375 45.40625 24.371094 45.421875 C 24.023438 45.511719 23.667969 45.542969 23.316406 45.582031 C 23.230469 45.589844 23.148438 45.601562 23.0625 45.613281 C 21.820312 45.785156 20.324219 45.71875 19.15625 45.230469 C 19.0625 45.191406 18.96875 45.15625 18.875 45.125 C 18.003906 44.808594 17.179688 44.296875 16.554688 43.609375 C 16.488281 43.542969 16.488281 43.542969 16.414062 43.546875 C 16.324219 43.59375 16.265625 43.65625 16.191406 43.726562 C 15.550781 44.324219 14.785156 44.710938 13.96875 45.023438 C 13.945312 45.035156 13.917969 45.042969 13.894531 45.054688 C 13.644531 45.148438 13.386719 45.214844 13.128906 45.277344 C 13.058594 45.296875 12.984375 45.3125 12.914062 45.332031 C 12.640625 45.398438 12.371094 45.449219 12.09375 45.480469 C 11.992188 45.488281 11.992188 45.488281 11.890625 45.527344 C 11.40625 45.601562 10.90625 45.601562 10.414062 45.601562 C 10.371094 45.601562 10.371094 45.601562 10.328125 45.601562 C 9.988281 45.601562 9.652344 45.589844 9.3125 45.558594 C 9.28125 45.558594 9.25 45.554688 9.21875 45.550781 C 8.714844 45.503906 8.25 45.390625 7.773438 45.226562 C 7.746094 45.214844 7.714844 45.207031 7.6875 45.195312 C 6.472656 44.769531 5.441406 43.902344 4.878906 42.738281 C 4.847656 42.671875 4.820312 42.609375 4.789062 42.546875 C 4.773438 42.511719 4.757812 42.476562 4.742188 42.441406 C 3.910156 40.558594 4.375 38.160156 4.933594 36.261719 C 4.960938 36.167969 4.984375 36.078125 5.011719 35.984375 C 5.257812 35.03125 5.546875 34.085938 5.894531 33.164062 C 5.929688 33.074219 5.960938 32.988281 5.988281 32.898438 C 6.082031 32.640625 6.175781 32.382812 6.273438 32.128906 C 6.300781 32.058594 6.324219 31.988281 6.351562 31.917969 C 6.425781 31.710938 6.503906 31.503906 6.597656 31.304688 C 6.644531 31.195312 6.683594 31.089844 6.722656 30.980469 C 6.808594 30.753906 6.898438 30.527344 6.988281 30.300781 C 7 30.269531 7.015625 30.238281 7.027344 30.207031 C 7.09375 30.046875 7.164062 29.894531 7.242188 29.738281 C 7.277344 29.664062 7.308594 29.585938 7.335938 29.503906 C 7.386719 29.34375 7.457031 29.195312 7.523438 29.046875 C 7.570312 28.945312 7.617188 28.839844 7.660156 28.738281 C 7.675781 28.703125 7.691406 28.667969 7.707031 28.632812 C 7.738281 28.5625 7.769531 28.492188 7.800781 28.421875 C 7.875 28.246094 7.957031 28.070312 8.042969 27.898438 C 8.101562 27.78125 8.160156 27.664062 8.207031 27.542969 C 8.289062 27.320312 8.394531 27.113281 8.5 26.902344 C 8.539062 26.816406 8.582031 26.730469 8.625 26.640625 C 8.636719 26.621094 8.644531 26.601562 8.65625 26.578125 C 8.726562 26.429688 8.796875 26.285156 8.867188 26.136719 C 9 25.851562 9.140625 25.574219 9.289062 25.296875 C 9.355469 25.175781 9.417969 25.050781 9.480469 24.925781 C 9.714844 24.46875 9.964844 24.019531 10.230469 23.574219 C 10.28125 23.488281 10.332031 23.402344 10.382812 23.316406 C 11.257812 21.839844 12.527344 20.71875 14.203125 20.265625 C 14.304688 20.246094 14.40625 20.226562 14.507812 20.214844 C 14.566406 20.207031 14.628906 20.195312 14.6875 20.183594 C 15.03125 20.113281 15.382812 20.121094 15.734375 20.121094 C 15.78125 20.125 15.78125 20.125 15.835938 20.125 C 17.09375 20.128906 18.292969 20.304688 19.242188 21.207031 C 19.378906 21.347656 19.488281 21.507812 19.597656 21.675781 C 19.621094 21.710938 19.644531 21.746094 19.667969 21.785156 C 19.988281 22.375 20.015625 23.027344 20 23.683594 C 20.023438 23.683594 20.042969 23.683594 20.066406 23.683594 C 20.074219 23.65625 20.074219 23.65625 20.078125 23.625 C 20.101562 23.546875 20.128906 23.496094 20.171875 23.433594 C 20.1875 23.410156 20.203125 23.386719 20.21875 23.363281 C 20.242188 23.332031 20.242188 23.332031 20.265625 23.296875 C 20.285156 23.269531 20.300781 23.246094 20.316406 23.222656 C 20.453125 23.027344 20.605469 22.851562 20.769531 22.679688 C 20.808594 22.636719 20.84375 22.589844 20.882812 22.546875 C 21.15625 22.234375 21.449219 21.96875 21.78125 21.71875 C 21.839844 21.675781 21.894531 21.632812 21.949219 21.589844 C 22.617188 21.085938 23.390625 20.746094 24.1875 20.503906 C 24.210938 20.496094 24.234375 20.488281 24.257812 20.480469 C 24.945312 20.273438 25.640625 20.148438 26.355469 20.078125 C 26.460938 20.066406 26.5625 20.054688 26.667969 20.039062 C 27.894531 19.871094 29.210938 19.867188 30.417969 20.132812 Z M 30.417969 20.132812 "/>
<path style=" stroke:none;fill-rule:nonzero;fill:rgb(99.607843%,98.823529%,0%);fill-opacity:1;" d="M 28.464844 18.316406 C 28.519531 18.316406 28.519531 18.316406 28.578125 18.316406 C 29.164062 18.316406 29.738281 18.335938 30.316406 18.425781 C 30.371094 18.433594 30.371094 18.433594 30.425781 18.441406 C 30.765625 18.492188 31.09375 18.554688 31.421875 18.660156 C 31.449219 18.667969 31.472656 18.675781 31.5 18.683594 C 32.398438 18.972656 33.285156 19.375 34.007812 19.996094 C 34.066406 20.039062 34.066406 20.039062 34.132812 20.023438 C 34.210938 19.996094 34.273438 19.964844 34.34375 19.925781 C 34.371094 19.910156 34.398438 19.894531 34.429688 19.878906 C 34.457031 19.859375 34.484375 19.84375 34.515625 19.828125 C 34.902344 19.609375 35.296875 19.425781 35.710938 19.261719 C 35.738281 19.25 35.769531 19.238281 35.800781 19.226562 C 36.320312 19.019531 36.84375 18.859375 37.386719 18.726562 C 37.414062 18.71875 37.441406 18.710938 37.46875 18.707031 C 37.898438 18.597656 38.335938 18.53125 38.777344 18.472656 C 38.855469 18.464844 38.933594 18.453125 39.011719 18.441406 C 39.476562 18.375 39.941406 18.382812 40.410156 18.382812 C 40.480469 18.382812 40.550781 18.382812 40.621094 18.382812 C 41.167969 18.382812 41.714844 18.386719 42.261719 18.417969 C 42.304688 18.421875 42.347656 18.421875 42.390625 18.425781 C 42.683594 18.445312 42.964844 18.5 43.25 18.558594 C 43.34375 18.574219 43.433594 18.589844 43.527344 18.605469 C 44.226562 18.726562 44.953125 18.894531 45.59375 19.195312 C 45.632812 19.214844 45.671875 19.230469 45.710938 19.25 C 45.820312 19.296875 45.925781 19.347656 46.03125 19.398438 C 46.09375 19.429688 46.15625 19.457031 46.214844 19.488281 C 46.867188 19.800781 47.503906 20.242188 48.003906 20.769531 C 48.128906 20.714844 48.226562 20.636719 48.335938 20.550781 C 49.1875 19.886719 50.164062 19.371094 51.1875 19.027344 C 51.226562 19.015625 51.226562 19.015625 51.265625 19 C 51.453125 18.941406 51.636719 18.882812 51.824219 18.828125 C 51.863281 18.816406 51.863281 18.816406 51.898438 18.804688 C 52.285156 18.691406 52.671875 18.628906 53.066406 18.570312 C 53.089844 18.566406 53.117188 18.5625 53.140625 18.558594 C 53.28125 18.539062 53.421875 18.519531 53.5625 18.5 C 53.609375 18.496094 53.65625 18.488281 53.703125 18.480469 C 54.148438 18.417969 54.59375 18.414062 55.046875 18.414062 C 55.167969 18.414062 55.292969 18.414062 55.414062 18.414062 C 56.574219 18.410156 57.667969 18.59375 58.777344 18.910156 C 58.828125 18.925781 58.828125 18.925781 58.875 18.9375 C 59.074219 18.996094 59.257812 19.066406 59.445312 19.15625 C 59.519531 19.191406 59.597656 19.222656 59.675781 19.257812 C 60.894531 19.769531 62.039062 20.675781 62.777344 21.773438 C 62.796875 21.800781 62.8125 21.824219 62.828125 21.847656 C 63.199219 22.402344 63.527344 22.988281 63.75 23.617188 C 63.761719 23.644531 63.769531 23.671875 63.777344 23.695312 C 63.929688 24.113281 64.046875 24.523438 64.117188 24.957031 C 64.125 24.992188 64.132812 25.027344 64.136719 25.0625 C 64.324219 26.144531 64.28125 27.25 64.1875 28.339844 C 64.183594 28.382812 64.179688 28.425781 64.175781 28.46875 C 64 30.460938 64 30.460938 63.75 31.421875 C 63.722656 31.539062 63.695312 31.65625 63.671875 31.773438 C 63.597656 32.105469 63.507812 32.433594 63.410156 32.761719 C 63.378906 32.871094 63.347656 32.980469 63.320312 33.089844 C 63.132812 33.75 62.917969 34.398438 62.691406 35.042969 C 62.605469 35.289062 62.527344 35.53125 62.445312 35.773438 C 62.34375 36.085938 62.222656 36.382812 62.097656 36.683594 C 61.957031 37.035156 61.8125 37.386719 61.671875 37.738281 C 61.652344 37.792969 61.632812 37.84375 61.609375 37.894531 C 61.589844 37.949219 61.570312 38 61.550781 38.050781 C 61.429688 38.355469 61.296875 38.648438 61.136719 38.9375 C 61.070312 39.058594 61.007812 39.1875 60.945312 39.3125 C 60.34375 40.515625 59.667969 41.695312 58.835938 42.757812 C 58.789062 42.816406 58.746094 42.875 58.699219 42.9375 C 58.53125 43.152344 58.359375 43.359375 58.171875 43.558594 C 58.105469 43.628906 58.042969 43.703125 57.980469 43.773438 C 57.628906 44.179688 57.242188 44.5625 56.816406 44.890625 C 56.777344 44.921875 56.742188 44.953125 56.703125 44.984375 C 56.386719 45.242188 56.054688 45.476562 55.710938 45.695312 C 55.6875 45.707031 55.664062 45.722656 55.640625 45.738281 C 55.113281 46.070312 54.546875 46.339844 53.96875 46.566406 C 53.929688 46.582031 53.890625 46.597656 53.851562 46.613281 C 53.421875 46.785156 52.976562 46.890625 52.527344 47 C 52.492188 47.007812 52.457031 47.019531 52.421875 47.027344 C 52.144531 47.09375 51.871094 47.136719 51.59375 47.171875 C 51.550781 47.179688 51.507812 47.183594 51.464844 47.1875 C 50.902344 47.261719 50.347656 47.277344 49.78125 47.277344 C 49.746094 47.277344 49.707031 47.277344 49.664062 47.277344 C 48.390625 47.277344 46.941406 47.199219 45.769531 46.632812 C 45.675781 46.589844 45.578125 46.558594 45.484375 46.527344 C 44.921875 46.328125 44.410156 46.027344 43.917969 45.695312 C 43.894531 45.679688 43.875 45.664062 43.851562 45.648438 C 43.339844 45.308594 42.855469 44.839844 42.476562 44.355469 C 42.351562 44.40625 42.257812 44.492188 42.15625 44.582031 C 41.171875 45.429688 39.996094 46.0625 38.792969 46.53125 C 38.753906 46.546875 38.753906 46.546875 38.71875 46.5625 C 38.367188 46.699219 38.015625 46.808594 37.648438 46.894531 C 37.523438 46.925781 37.394531 46.960938 37.269531 46.996094 C 35.941406 47.394531 34.367188 47.417969 32.996094 47.234375 C 32.949219 47.230469 32.949219 47.230469 32.902344 47.222656 C 31.46875 47.039062 29.753906 46.507812 28.675781 45.5 C 28.609375 45.453125 28.609375 45.453125 28.53125 45.460938 C 28.417969 45.5 28.335938 45.558594 28.238281 45.621094 C 27.773438 45.929688 27.28125 46.1875 26.765625 46.398438 C 26.742188 46.40625 26.714844 46.417969 26.691406 46.429688 C 25.714844 46.828125 24.695312 47.078125 23.652344 47.203125 C 23.628906 47.203125 23.605469 47.207031 23.582031 47.210938 C 23.082031 47.273438 22.582031 47.28125 22.078125 47.28125 C 21.988281 47.28125 21.894531 47.28125 21.804688 47.28125 C 21.078125 47.289062 20.375 47.234375 19.664062 47.066406 C 19.617188 47.058594 19.570312 47.046875 19.527344 47.035156 C 19.152344 46.953125 18.785156 46.863281 18.4375 46.699219 C 18.34375 46.660156 18.246094 46.628906 18.148438 46.59375 C 17.59375 46.398438 16.96875 46.105469 16.527344 45.714844 C 16.453125 45.652344 16.453125 45.652344 16.367188 45.660156 C 16.257812 45.703125 16.164062 45.761719 16.066406 45.824219 C 15.730469 46.035156 15.371094 46.199219 15.007812 46.363281 C 14.96875 46.382812 14.933594 46.398438 14.894531 46.417969 C 14.449219 46.609375 13.976562 46.757812 13.503906 46.867188 C 13.414062 46.886719 13.332031 46.910156 13.246094 46.933594 C 12.914062 47.019531 12.589844 47.070312 12.253906 47.105469 C 12.203125 47.113281 12.15625 47.117188 12.105469 47.125 C 11.96875 47.140625 11.828125 47.152344 11.691406 47.167969 C 11.660156 47.171875 11.628906 47.175781 11.59375 47.179688 C 11.265625 47.210938 10.9375 47.207031 10.605469 47.207031 C 10.5 47.207031 10.394531 47.207031 10.289062 47.207031 C 9.96875 47.207031 9.644531 47.203125 9.324219 47.1875 C 9.296875 47.183594 9.273438 47.183594 9.246094 47.183594 C 9.089844 47.171875 8.941406 47.15625 8.792969 47.117188 C 8.691406 47.097656 8.589844 47.085938 8.488281 47.070312 C 6.785156 46.832031 5.105469 45.90625 4.050781 44.53125 C 3.789062 44.183594 3.5625 43.828125 3.375 43.429688 C 3.320312 43.320312 3.320312 43.320312 3.265625 43.230469 C 3.203125 43.125 3.160156 43.011719 3.117188 42.894531 C 3.105469 42.871094 3.097656 42.847656 3.089844 42.824219 C 3.015625 42.621094 2.960938 42.417969 2.914062 42.210938 C 2.90625 42.179688 2.898438 42.152344 2.890625 42.121094 C 2.863281 42.019531 2.839844 41.914062 2.8125 41.808594 C 2.808594 41.785156 2.800781 41.761719 2.796875 41.738281 C 2.5 40.554688 2.636719 39.164062 2.882812 37.984375 C 2.914062 37.828125 2.9375 37.671875 2.960938 37.519531 C 3.058594 36.867188 3.214844 36.226562 3.398438 35.59375 C 3.441406 35.445312 3.480469 35.296875 3.515625 35.144531 C 3.609375 34.757812 3.734375 34.382812 3.851562 34.003906 C 3.871094 33.941406 3.890625 33.878906 3.910156 33.816406 C 4.128906 33.128906 4.128906 33.128906 4.234375 32.859375 C 4.308594 32.660156 4.378906 32.460938 4.445312 32.257812 C 4.550781 31.941406 4.660156 31.621094 4.789062 31.3125 C 4.84375 31.171875 4.894531 31.03125 4.949219 30.890625 C 5.015625 30.707031 5.085938 30.53125 5.160156 30.351562 C 5.175781 30.304688 5.175781 30.304688 5.195312 30.261719 C 5.613281 29.226562 6.042969 28.203125 6.511719 27.191406 C 6.609375 26.980469 6.703125 26.769531 6.796875 26.554688 C 6.902344 26.324219 7.015625 26.097656 7.132812 25.871094 C 7.195312 25.738281 7.261719 25.605469 7.328125 25.476562 C 7.890625 24.335938 7.890625 24.335938 8.191406 23.804688 C 8.246094 23.707031 8.300781 23.613281 8.351562 23.515625 C 8.835938 22.640625 9.347656 21.785156 10.015625 21.039062 C 10.042969 21.007812 10.070312 20.976562 10.097656 20.945312 C 10.363281 20.644531 10.640625 20.382812 10.953125 20.132812 C 11.003906 20.09375 11.003906 20.09375 11.054688 20.050781 C 11.632812 19.59375 12.296875 19.1875 13 18.960938 C 13.089844 18.929688 13.175781 18.894531 13.261719 18.859375 C 13.46875 18.773438 13.6875 18.726562 13.902344 18.675781 C 13.960938 18.660156 14.019531 18.648438 14.078125 18.632812 C 14.199219 18.605469 14.316406 18.582031 14.4375 18.558594 C 14.464844 18.554688 14.488281 18.550781 14.515625 18.546875 C 15.765625 18.324219 17.277344 18.367188 18.492188 18.761719 C 18.519531 18.769531 18.550781 18.777344 18.578125 18.785156 C 19.074219 18.9375 19.535156 19.164062 19.933594 19.496094 C 19.957031 19.515625 19.980469 19.535156 20.003906 19.554688 C 20.28125 19.777344 20.507812 20.085938 20.667969 20.402344 C 20.667969 20.433594 20.667969 20.46875 20.667969 20.503906 C 20.695312 20.484375 20.71875 20.464844 20.742188 20.445312 C 21.507812 19.867188 22.292969 19.421875 23.183594 19.0625 C 23.230469 19.042969 23.230469 19.042969 23.277344 19.023438 C 23.929688 18.769531 24.632812 18.632812 25.316406 18.523438 C 25.34375 18.519531 25.371094 18.515625 25.398438 18.511719 C 26.414062 18.347656 27.4375 18.316406 28.464844 18.316406 Z M 24.421875 20.433594 C 24.378906 20.445312 24.335938 20.457031 24.292969 20.46875 C 23.078125 20.792969 22.007812 21.445312 21.105469 22.3125 C 21.078125 22.335938 21.050781 22.363281 21.019531 22.390625 C 20.65625 22.746094 20.347656 23.160156 20.066406 23.585938 C 20.066406 23.617188 20.066406 23.648438 20.066406 23.683594 C 20.042969 23.683594 20.023438 23.683594 20 23.683594 C 20 23.617188 20 23.617188 20.003906 23.550781 C 20.019531 22.664062 19.863281 21.882812 19.238281 21.214844 C 18.851562 20.816406 18.40625 20.566406 17.886719 20.390625 C 17.832031 20.371094 17.777344 20.351562 17.722656 20.328125 C 17.09375 20.105469 16.390625 20.125 15.734375 20.121094 C 15.699219 20.121094 15.667969 20.121094 15.632812 20.121094 C 15.285156 20.121094 14.949219 20.125 14.605469 20.199219 C 14.566406 20.207031 14.527344 20.214844 14.484375 20.21875 C 12.953125 20.488281 11.660156 21.445312 10.773438 22.699219 C 10.253906 23.457031 9.824219 24.269531 9.402344 25.085938 C 9.335938 25.214844 9.265625 25.347656 9.195312 25.476562 C 9.035156 25.773438 8.890625 26.078125 8.746094 26.382812 C 8.671875 26.542969 8.59375 26.699219 8.519531 26.855469 C 8.503906 26.890625 8.503906 26.890625 8.488281 26.921875 C 8.445312 27.007812 8.402344 27.09375 8.359375 27.183594 C 8.261719 27.386719 8.160156 27.59375 8.074219 27.804688 C 7.992188 27.988281 7.910156 28.167969 7.828125 28.351562 C 7.808594 28.394531 7.789062 28.441406 7.765625 28.484375 C 7.734375 28.554688 7.703125 28.625 7.671875 28.691406 C 7.507812 29.058594 7.355469 29.429688 7.214844 29.804688 C 7.179688 29.886719 7.148438 29.960938 7.109375 30.035156 C 7.011719 30.226562 6.933594 30.425781 6.851562 30.628906 C 6.835938 30.664062 6.820312 30.703125 6.800781 30.746094 C 6.714844 30.960938 6.632812 31.179688 6.5625 31.402344 C 6.535156 31.484375 6.5 31.5625 6.464844 31.640625 C 6.414062 31.753906 6.371094 31.867188 6.332031 31.984375 C 6.292969 32.117188 6.246094 32.242188 6.1875 32.371094 C 6.085938 32.609375 6.007812 32.855469 5.925781 33.105469 C 5.878906 33.257812 5.824219 33.410156 5.765625 33.5625 C 5.675781 33.78125 5.605469 34.007812 5.53125 34.234375 C 5.515625 34.28125 5.5 34.328125 5.488281 34.375 C 5.457031 34.464844 5.429688 34.558594 5.398438 34.648438 C 5.367188 34.75 5.335938 34.851562 5.300781 34.953125 C 5.171875 35.355469 5.058594 35.761719 4.953125 36.171875 C 4.933594 36.242188 4.917969 36.3125 4.898438 36.382812 C 4.746094 36.957031 4.628906 37.539062 4.523438 38.121094 C 4.511719 38.179688 4.511719 38.179688 4.5 38.234375 C 4.265625 39.5 4.234375 40.761719 4.589844 42.007812 C 4.597656 42.039062 4.605469 42.066406 4.609375 42.097656 C 4.675781 42.351562 4.804688 42.582031 4.925781 42.816406 C 4.953125 42.871094 4.980469 42.925781 5.007812 42.980469 C 5.5625 44.0625 6.640625 44.839844 7.773438 45.226562 C 7.800781 45.234375 7.824219 45.242188 7.851562 45.253906 C 8.335938 45.417969 8.804688 45.515625 9.3125 45.558594 C 9.347656 45.5625 9.382812 45.566406 9.417969 45.570312 C 9.75 45.597656 10.082031 45.601562 10.414062 45.601562 C 10.441406 45.601562 10.472656 45.601562 10.5 45.601562 C 11.320312 45.601562 11.320312 45.601562 12.125 45.476562 C 12.21875 45.453125 12.3125 45.441406 12.40625 45.433594 C 12.863281 45.367188 13.308594 45.238281 13.75 45.097656 C 13.824219 45.074219 13.898438 45.050781 13.972656 45.027344 C 14.269531 44.9375 14.535156 44.800781 14.808594 44.65625 C 14.859375 44.628906 14.859375 44.628906 14.910156 44.601562 C 15 44.554688 15.085938 44.503906 15.175781 44.453125 C 15.207031 44.4375 15.238281 44.421875 15.269531 44.402344 C 15.660156 44.1875 15.996094 43.910156 16.3125 43.601562 C 16.382812 43.550781 16.382812 43.550781 16.445312 43.546875 C 16.550781 43.601562 16.621094 43.683594 16.699219 43.765625 C 17.03125 44.109375 17.414062 44.375 17.820312 44.621094 C 17.878906 44.65625 17.878906 44.65625 17.933594 44.691406 C 18.355469 44.941406 18.804688 45.132812 19.277344 45.265625 C 19.363281 45.292969 19.363281 45.292969 19.425781 45.324219 C 19.523438 45.371094 19.628906 45.398438 19.734375 45.421875 C 19.769531 45.429688 19.769531 45.429688 19.804688 45.4375 C 20.511719 45.597656 21.222656 45.667969 21.941406 45.667969 C 21.96875 45.667969 21.996094 45.667969 22.027344 45.667969 C 22.398438 45.667969 22.765625 45.65625 23.136719 45.605469 C 23.230469 45.589844 23.324219 45.582031 23.421875 45.570312 C 23.796875 45.53125 24.15625 45.480469 24.519531 45.375 C 24.59375 45.359375 24.667969 45.339844 24.742188 45.324219 C 26.035156 45.054688 27.285156 44.441406 28.246094 43.535156 C 28.367188 43.425781 28.488281 43.320312 28.609375 43.214844 C 28.621094 43.242188 28.621094 43.242188 28.628906 43.269531 C 28.695312 43.378906 28.777344 43.46875 28.863281 43.558594 C 28.882812 43.578125 28.902344 43.597656 28.917969 43.621094 C 29.054688 43.761719 29.191406 43.894531 29.347656 44.019531 C 29.371094 44.039062 29.398438 44.0625 29.425781 44.085938 C 29.507812 44.152344 29.59375 44.21875 29.679688 44.285156 C 29.714844 44.3125 29.714844 44.3125 29.753906 44.34375 C 31.089844 45.324219 32.726562 45.675781 34.355469 45.671875 C 34.394531 45.671875 34.433594 45.671875 34.476562 45.671875 C 37.335938 45.664062 39.976562 44.503906 42.003906 42.492188 C 42.035156 42.460938 42.0625 42.433594 42.09375 42.402344 C 42.265625 42.230469 42.421875 42.050781 42.574219 41.859375 C 42.648438 41.769531 42.730469 41.6875 42.8125 41.605469 C 42.816406 41.648438 42.816406 41.648438 42.820312 41.6875 C 42.855469 41.851562 42.921875 41.988281 42.996094 42.140625 C 43.011719 42.167969 43.023438 42.199219 43.039062 42.234375 C 43.269531 42.699219 43.539062 43.097656 43.886719 43.484375 C 43.910156 43.511719 43.9375 43.542969 43.960938 43.574219 C 45.117188 44.894531 46.847656 45.445312 48.542969 45.628906 C 48.5625 45.628906 48.585938 45.632812 48.609375 45.636719 C 48.90625 45.671875 49.203125 45.667969 49.5 45.667969 C 49.542969 45.667969 49.542969 45.667969 49.589844 45.667969 C 50.347656 45.664062 51.070312 45.589844 51.816406 45.445312 C 51.957031 45.417969 52.101562 45.398438 52.242188 45.375 C 52.339844 45.355469 52.429688 45.324219 52.523438 45.285156 C 52.613281 45.25 52.707031 45.222656 52.800781 45.195312 C 53.890625 44.863281 54.890625 44.332031 55.777344 43.617188 C 55.804688 43.597656 55.804688 43.597656 55.828125 43.574219 C 56.113281 43.347656 56.371094 43.097656 56.625 42.84375 C 56.65625 42.8125 56.6875 42.785156 56.71875 42.753906 C 56.921875 42.546875 57.105469 42.335938 57.285156 42.109375 C 57.320312 42.070312 57.351562 42.027344 57.386719 41.988281 C 57.980469 41.257812 58.484375 40.460938 58.925781 39.628906 C 58.941406 39.601562 58.957031 39.574219 58.972656 39.542969 C 59.09375 39.316406 59.210938 39.089844 59.328125 38.859375 C 59.355469 38.808594 59.355469 38.808594 59.378906 38.757812 C 59.832031 37.863281 60.214844 36.925781 60.566406 35.988281 C 60.574219 35.964844 60.582031 35.941406 60.589844 35.917969 C 60.664062 35.730469 60.730469 35.539062 60.796875 35.347656 C 60.828125 35.257812 60.863281 35.171875 60.902344 35.085938 C 60.988281 34.871094 61.054688 34.648438 61.121094 34.425781 C 61.183594 34.230469 61.25 34.035156 61.316406 33.839844 C 61.476562 33.375 61.609375 32.902344 61.742188 32.429688 C 61.75 32.386719 61.761719 32.347656 61.773438 32.304688 C 61.957031 31.640625 62.101562 30.96875 62.234375 30.289062 C 62.257812 30.171875 62.285156 30.054688 62.308594 29.933594 C 62.347656 29.777344 62.371094 29.617188 62.394531 29.457031 C 62.398438 29.410156 62.398438 29.410156 62.40625 29.363281 C 62.414062 29.300781 62.421875 29.238281 62.433594 29.171875 C 62.445312 29.078125 62.460938 28.980469 62.472656 28.886719 C 62.550781 28.335938 62.582031 27.796875 62.582031 27.242188 C 62.582031 27.160156 62.582031 27.074219 62.582031 26.992188 C 62.582031 26.714844 62.578125 26.4375 62.566406 26.15625 C 62.5625 26.132812 62.5625 26.105469 62.5625 26.082031 C 62.554688 25.925781 62.53125 25.78125 62.492188 25.628906 C 62.476562 25.558594 62.464844 25.492188 62.457031 25.417969 C 62.382812 24.84375 62.222656 24.273438 61.976562 23.75 C 61.964844 23.730469 61.957031 23.710938 61.945312 23.691406 C 61.253906 22.234375 60.121094 21.164062 58.601562 20.59375 C 58.542969 20.574219 58.484375 20.554688 58.425781 20.535156 C 58.363281 20.515625 58.363281 20.515625 58.300781 20.496094 C 58.164062 20.449219 58.027344 20.410156 57.886719 20.367188 C 57.847656 20.355469 57.808594 20.34375 57.765625 20.332031 C 57.09375 20.148438 56.371094 20.0625 55.675781 20.058594 C 55.640625 20.058594 55.609375 20.058594 55.574219 20.058594 C 55.464844 20.058594 55.351562 20.058594 55.242188 20.058594 C 55.1875 20.058594 55.1875 20.058594 55.128906 20.058594 C 54.558594 20.058594 54 20.078125 53.433594 20.167969 C 53.394531 20.171875 53.394531 20.171875 53.355469 20.179688 C 53.199219 20.203125 53.046875 20.234375 52.898438 20.265625 C 52.855469 20.277344 52.855469 20.277344 52.816406 20.285156 C 52.292969 20.402344 51.757812 20.527344 51.273438 20.761719 C 51.179688 20.808594 51.085938 20.839844 50.988281 20.875 C 50.175781 21.1875 49.429688 21.707031 48.777344 22.277344 C 48.757812 22.292969 48.742188 22.308594 48.722656 22.324219 C 48.445312 22.566406 48.1875 22.832031 47.925781 23.09375 C 47.851562 23.167969 47.777344 23.242188 47.703125 23.316406 C 47.695312 23.289062 47.6875 23.257812 47.679688 23.230469 C 47.523438 22.796875 47.210938 22.441406 46.898438 22.109375 C 46.882812 22.089844 46.867188 22.074219 46.847656 22.054688 C 46.496094 21.679688 46.09375 21.378906 45.65625 21.109375 C 45.609375 21.082031 45.5625 21.050781 45.519531 21.023438 C 45.316406 20.898438 45.113281 20.804688 44.890625 20.71875 C 44.839844 20.699219 44.839844 20.699219 44.789062 20.679688 C 44.6875 20.644531 44.589844 20.605469 44.488281 20.570312 C 44.460938 20.558594 44.433594 20.550781 44.40625 20.539062 C 44.234375 20.476562 44.0625 20.421875 43.886719 20.367188 C 43.84375 20.355469 43.84375 20.355469 43.800781 20.34375 C 42.257812 19.890625 40.441406 19.84375 38.859375 20.101562 C 38.820312 20.105469 38.78125 20.113281 38.742188 20.117188 C 38.078125 20.222656 37.441406 20.382812 36.804688 20.589844 C 36.777344 20.597656 36.746094 20.609375 36.71875 20.617188 C 36.5625 20.671875 36.417969 20.730469 36.269531 20.808594 C 36.203125 20.84375 36.132812 20.871094 36.0625 20.894531 C 35.335938 21.183594 34.601562 21.609375 34.019531 22.136719 C 33.96875 22.175781 33.96875 22.175781 33.867188 22.210938 C 33.859375 22.1875 33.851562 22.164062 33.847656 22.140625 C 33.792969 22.023438 33.71875 21.941406 33.628906 21.847656 C 33.605469 21.820312 33.605469 21.820312 33.578125 21.792969 C 33.546875 21.757812 33.511719 21.722656 33.480469 21.6875 C 33.441406 21.648438 33.402344 21.609375 33.367188 21.566406 C 32.582031 20.730469 31.351562 20.292969 30.25 20.101562 C 30.207031 20.09375 30.207031 20.09375 30.160156 20.085938 C 29.582031 19.984375 29.019531 19.941406 28.433594 19.945312 C 28.394531 19.949219 28.355469 19.949219 28.3125 19.949219 C 27.011719 19.953125 25.675781 20.066406 24.421875 20.433594 Z M 24.421875 20.433594 "/>
<path style=" stroke:none;fill-rule:nonzero;fill:rgb(99.607843%,99.607843%,99.607843%);fill-opacity:1;" d="M 55.273438 22.0625 C 55.3125 22.0625 55.347656 22.0625 55.382812 22.0625 C 56.761719 22.054688 58.105469 22.328125 59.195312 23.214844 C 59.214844 23.230469 59.234375 23.246094 59.253906 23.261719 C 59.84375 23.730469 60.230469 24.519531 60.433594 25.226562 C 60.441406 25.253906 60.449219 25.28125 60.460938 25.308594 C 60.804688 26.5625 60.644531 28.015625 60.433594 29.277344 C 60.425781 29.316406 60.421875 29.355469 60.414062 29.398438 C 60.382812 29.59375 60.34375 29.789062 60.300781 29.984375 C 60.289062 30.023438 60.28125 30.066406 60.273438 30.109375 C 60.257812 30.179688 60.238281 30.246094 60.222656 30.316406 C 60.203125 30.398438 60.1875 30.476562 60.171875 30.5625 C 60.125 30.796875 60.066406 31.027344 60.007812 31.261719 C 59.988281 31.339844 59.96875 31.417969 59.949219 31.496094 C 59.863281 31.84375 59.765625 32.1875 59.664062 32.527344 C 59.652344 32.566406 59.640625 32.601562 59.628906 32.640625 C 59.601562 32.738281 59.570312 32.832031 59.542969 32.929688 C 59.53125 32.960938 59.523438 32.992188 59.511719 33.027344 C 59.460938 33.191406 59.410156 33.359375 59.355469 33.523438 C 59.324219 33.609375 59.300781 33.691406 59.273438 33.777344 C 59.179688 34.074219 59.089844 34.367188 58.964844 34.652344 C 58.914062 34.769531 58.871094 34.890625 58.828125 35.011719 C 58.664062 35.464844 58.476562 35.910156 58.28125 36.351562 C 58.261719 36.386719 58.246094 36.425781 58.230469 36.460938 C 58.199219 36.535156 58.167969 36.609375 58.132812 36.679688 C 58.09375 36.769531 58.054688 36.863281 58.015625 36.953125 C 57.882812 37.253906 57.742188 37.550781 57.589844 37.847656 C 57.550781 37.929688 57.507812 38.011719 57.46875 38.09375 C 56.921875 39.210938 56.277344 40.273438 55.441406 41.203125 C 55.425781 41.222656 55.410156 41.242188 55.394531 41.261719 C 55.207031 41.46875 55.019531 41.664062 54.804688 41.839844 C 54.773438 41.867188 54.742188 41.894531 54.710938 41.925781 C 54.109375 42.453125 53.433594 42.839844 52.695312 43.148438 C 52.667969 43.160156 52.644531 43.171875 52.617188 43.183594 C 52.265625 43.328125 51.894531 43.40625 51.523438 43.484375 C 51.472656 43.492188 51.472656 43.492188 51.417969 43.503906 C 50.828125 43.621094 50.238281 43.628906 49.636719 43.628906 C 49.597656 43.628906 49.558594 43.628906 49.519531 43.628906 C 48.980469 43.628906 48.460938 43.613281 47.933594 43.488281 C 47.910156 43.480469 47.882812 43.476562 47.859375 43.46875 C 46.703125 43.199219 45.722656 42.644531 45.058594 41.640625 C 44.640625 40.960938 44.417969 40.128906 44.414062 39.332031 C 44.414062 39.285156 44.414062 39.285156 44.410156 39.238281 C 44.410156 39.136719 44.410156 39.035156 44.410156 38.929688 C 44.410156 38.878906 44.410156 38.878906 44.410156 38.824219 C 44.410156 38.191406 44.457031 37.578125 44.554688 36.949219 C 44.5625 36.914062 44.566406 36.875 44.574219 36.835938 C 44.625 36.511719 44.679688 36.191406 44.765625 35.875 C 44.796875 35.753906 44.816406 35.632812 44.835938 35.511719 C 44.914062 35.058594 45.023438 34.609375 45.152344 34.167969 C 45.183594 34.0625 45.210938 33.957031 45.242188 33.855469 C 45.386719 33.316406 45.554688 32.789062 45.726562 32.261719 C 45.742188 32.214844 45.757812 32.171875 45.769531 32.125 C 45.808594 32.011719 45.847656 31.898438 45.882812 31.785156 C 45.90625 31.71875 45.925781 31.65625 45.945312 31.589844 C 46.011719 31.394531 46.082031 31.207031 46.167969 31.019531 C 46.210938 30.917969 46.246094 30.8125 46.28125 30.703125 C 46.335938 30.535156 46.394531 30.367188 46.464844 30.199219 C 46.503906 30.105469 46.539062 30.007812 46.578125 29.910156 C 46.648438 29.726562 46.71875 29.546875 46.792969 29.367188 C 46.847656 29.226562 46.902344 29.085938 46.953125 28.945312 C 47.007812 28.808594 47.0625 28.679688 47.132812 28.550781 C 47.175781 28.460938 47.207031 28.371094 47.242188 28.277344 C 47.332031 28.046875 47.429688 27.820312 47.535156 27.59375 C 47.546875 27.574219 47.554688 27.554688 47.566406 27.535156 C 48.0625 26.46875 48.632812 25.445312 49.414062 24.554688 C 49.433594 24.53125 49.453125 24.507812 49.472656 24.484375 C 50.484375 23.285156 51.902344 22.515625 53.433594 22.210938 C 53.480469 22.199219 53.480469 22.199219 53.53125 22.191406 C 54.109375 22.078125 54.6875 22.0625 55.273438 22.0625 Z M 55.273438 22.0625 "/>
<path style=" stroke:none;fill-rule:nonzero;fill:rgb(0.392157%,0%,0%);fill-opacity:1;" d="M 0 0 C 22.109375 0 44.21875 0 67 0 C 67 22.109375 67 44.21875 67 67 C 44.890625 67 22.78125 67 0 67 C 0 44.890625 0 22.78125 0 0 Z M 0.9375 0.9375 C 0.9375 22.429688 0.9375 43.917969 0.9375 66.0625 C 22.429688 66.0625 43.917969 66.0625 66.0625 66.0625 C 66.0625 44.570312 66.0625 23.082031 66.0625 0.9375 C 44.570312 0.9375 23.082031 0.9375 0.9375 0.9375 Z M 0.9375 0.9375 "/>
<path style=" stroke:none;fill-rule:nonzero;fill:rgb(99.607843%,99.607843%,99.607843%);fill-opacity:1;" d="M 40.605469 22.03125 C 40.636719 22.03125 40.671875 22.03125 40.703125 22.03125 C 41.503906 22.035156 42.300781 22.085938 43.082031 22.277344 C 43.117188 22.285156 43.117188 22.285156 43.15625 22.292969 C 44.140625 22.523438 45.175781 23.035156 45.726562 23.917969 C 46.234375 24.78125 46.292969 25.835938 46.0625 26.800781 C 46.054688 26.832031 46.050781 26.859375 46.042969 26.890625 C 45.945312 27.3125 45.828125 27.691406 45.628906 28.074219 C 45.609375 28.105469 45.59375 28.140625 45.578125 28.171875 C 45.460938 28.398438 45.320312 28.585938 45.15625 28.777344 C 45.140625 28.800781 45.121094 28.824219 45.101562 28.847656 C 44.582031 29.472656 43.75 29.816406 42.957031 29.910156 C 42.261719 29.96875 41.464844 29.941406 40.902344 29.480469 C 40.640625 29.246094 40.503906 28.972656 40.449219 28.621094 C 40.429688 28.234375 40.550781 27.886719 40.675781 27.519531 C 40.738281 27.328125 40.777344 27.164062 40.777344 26.960938 C 40.777344 26.921875 40.777344 26.882812 40.777344 26.839844 C 40.769531 26.738281 40.757812 26.683594 40.703125 26.597656 C 40.328125 26.316406 39.878906 26.363281 39.429688 26.398438 C 39.257812 26.425781 39.113281 26.484375 38.960938 26.566406 C 38.914062 26.589844 38.914062 26.589844 38.863281 26.617188 C 38.15625 27.035156 37.75 27.730469 37.386719 28.441406 C 37.359375 28.496094 37.359375 28.496094 37.332031 28.550781 C 37.09375 29.007812 37.09375 29.007812 36.882812 29.480469 C 36.855469 29.539062 36.828125 29.597656 36.800781 29.65625 C 36.707031 29.863281 36.621094 30.074219 36.542969 30.289062 C 36.476562 30.460938 36.410156 30.632812 36.332031 30.800781 C 36.25 30.976562 36.183594 31.15625 36.121094 31.339844 C 36.082031 31.445312 36.042969 31.546875 35.996094 31.652344 C 35.917969 31.835938 35.851562 32.027344 35.785156 32.214844 C 35.742188 32.339844 35.699219 32.460938 35.648438 32.582031 C 35.5625 32.796875 35.488281 33.015625 35.414062 33.230469 C 35.398438 33.277344 35.382812 33.320312 35.367188 33.363281 C 35.339844 33.449219 35.308594 33.535156 35.28125 33.621094 C 35.25 33.714844 35.214844 33.808594 35.183594 33.902344 C 35.070312 34.230469 34.976562 34.558594 34.886719 34.894531 C 34.875 34.925781 34.867188 34.960938 34.855469 34.996094 C 34.84375 35.042969 34.84375 35.042969 34.832031 35.089844 C 34.804688 35.175781 34.804688 35.175781 34.773438 35.261719 C 34.742188 35.335938 34.71875 35.410156 34.699219 35.492188 C 34.695312 35.519531 34.6875 35.546875 34.679688 35.574219 C 34.675781 35.605469 34.667969 35.632812 34.660156 35.664062 C 34.648438 35.710938 34.648438 35.710938 34.636719 35.757812 C 34.589844 35.96875 34.542969 36.179688 34.496094 36.390625 C 34.488281 36.429688 34.488281 36.429688 34.480469 36.46875 C 34.414062 36.78125 34.398438 37.082031 34.394531 37.398438 C 34.394531 37.457031 34.394531 37.457031 34.394531 37.515625 C 34.390625 37.863281 34.4375 38.152344 34.664062 38.421875 C 34.859375 38.601562 35.113281 38.714844 35.375 38.726562 C 35.40625 38.726562 35.433594 38.730469 35.460938 38.730469 C 36.160156 38.761719 36.742188 38.402344 37.253906 37.964844 C 37.953125 37.304688 38.34375 36.324219 38.558594 35.410156 C 38.519531 35.40625 38.476562 35.398438 38.433594 35.394531 C 37.949219 35.332031 37.449219 35.214844 37.117188 34.828125 C 36.828125 34.433594 36.796875 34.042969 36.851562 33.566406 C 36.964844 32.972656 37.273438 32.335938 37.6875 31.890625 C 37.710938 31.867188 37.730469 31.839844 37.753906 31.816406 C 38.226562 31.308594 38.867188 31.070312 39.539062 30.96875 C 39.59375 30.960938 39.652344 30.949219 39.707031 30.9375 C 40.058594 30.871094 40.425781 30.878906 40.78125 30.878906 C 40.851562 30.878906 40.921875 30.878906 40.992188 30.878906 C 41.773438 30.875 42.597656 31.027344 43.179688 31.585938 C 43.734375 32.136719 43.859375 32.765625 43.859375 33.523438 C 43.859375 34.492188 43.652344 35.457031 43.339844 36.375 C 43.3125 36.453125 43.289062 36.535156 43.265625 36.613281 C 43.1875 36.867188 43.109375 37.117188 42.992188 37.355469 C 42.945312 37.457031 42.898438 37.5625 42.851562 37.664062 C 42.714844 37.980469 42.570312 38.289062 42.410156 38.59375 C 42.398438 38.613281 42.390625 38.632812 42.378906 38.65625 C 42.066406 39.242188 41.691406 39.789062 41.273438 40.300781 C 41.246094 40.335938 41.21875 40.367188 41.191406 40.402344 C 41.0625 40.558594 40.9375 40.707031 40.792969 40.847656 C 40.734375 40.90625 40.683594 40.964844 40.632812 41.023438 C 40.292969 41.417969 39.882812 41.738281 39.464844 42.042969 C 39.445312 42.058594 39.425781 42.070312 39.40625 42.085938 C 38.792969 42.53125 38.121094 42.875 37.417969 43.148438 C 37.382812 43.160156 37.347656 43.175781 37.3125 43.191406 C 35.992188 43.6875 34.347656 43.855469 32.964844 43.550781 C 32.9375 43.542969 32.910156 43.539062 32.882812 43.53125 C 31.683594 43.261719 30.582031 42.644531 29.902344 41.601562 C 29.621094 41.160156 29.4375 40.695312 29.277344 40.199219 C 29.261719 40.148438 29.261719 40.148438 29.246094 40.09375 C 29.175781 39.867188 29.152344 39.632812 29.125 39.394531 C 29.117188 39.316406 29.109375 39.242188 29.09375 39.167969 C 29.074219 39.046875 29.070312 38.925781 29.070312 38.804688 C 29.070312 38.765625 29.070312 38.765625 29.070312 38.726562 C 29.070312 38.648438 29.070312 38.566406 29.070312 38.488281 C 29.070312 38.460938 29.070312 38.433594 29.070312 38.402344 C 29.070312 37.722656 29.128906 37.054688 29.28125 36.390625 C 29.3125 36.25 29.335938 36.109375 29.355469 35.964844 C 29.417969 35.570312 29.519531 35.183594 29.617188 34.792969 C 29.644531 34.679688 29.671875 34.5625 29.703125 34.449219 C 29.78125 34.125 29.863281 33.808594 29.972656 33.496094 C 30.027344 33.335938 30.070312 33.171875 30.117188 33.011719 C 30.183594 32.777344 30.253906 32.550781 30.347656 32.328125 C 30.402344 32.183594 30.445312 32.035156 30.488281 31.890625 C 30.539062 31.726562 30.601562 31.570312 30.664062 31.410156 C 30.679688 31.371094 30.699219 31.328125 30.714844 31.285156 C 30.722656 31.261719 30.734375 31.242188 30.742188 31.21875 C 30.800781 31.074219 30.855469 30.929688 30.90625 30.78125 C 30.96875 30.601562 31.039062 30.421875 31.113281 30.246094 C 31.140625 30.183594 31.167969 30.117188 31.195312 30.050781 C 31.285156 29.828125 31.386719 29.613281 31.5 29.398438 C 31.542969 29.308594 31.582031 29.21875 31.621094 29.125 C 31.847656 28.542969 32.128906 27.980469 32.429688 27.4375 C 32.445312 27.40625 32.460938 27.375 32.476562 27.34375 C 32.886719 26.601562 33.324219 25.863281 33.867188 25.207031 C 33.910156 25.152344 33.957031 25.097656 34 25.042969 C 34.199219 24.792969 34.414062 24.566406 34.640625 24.34375 C 34.65625 24.324219 34.675781 24.304688 34.695312 24.285156 C 34.992188 23.988281 35.296875 23.722656 35.644531 23.484375 C 35.683594 23.453125 35.722656 23.425781 35.761719 23.398438 C 36.246094 23.054688 36.792969 22.765625 37.351562 22.578125 C 37.398438 22.5625 37.445312 22.546875 37.488281 22.53125 C 38.058594 22.332031 38.632812 22.195312 39.230469 22.121094 C 39.304688 22.113281 39.378906 22.101562 39.453125 22.09375 C 39.835938 22.039062 40.21875 22.03125 40.605469 22.03125 Z M 40.605469 22.03125 "/>
<path style=" stroke:none;fill-rule:nonzero;fill:rgb(99.607843%,99.607843%,99.607843%);fill-opacity:1;" d="M 28.511719 21.929688 C 28.542969 21.929688 28.574219 21.929688 28.605469 21.929688 C 29.171875 21.925781 29.738281 21.972656 30.28125 22.144531 C 30.375 22.175781 30.46875 22.195312 30.566406 22.21875 C 30.964844 22.328125 31.335938 22.554688 31.65625 22.8125 C 31.683594 22.835938 31.710938 22.855469 31.738281 22.878906 C 32.058594 23.144531 32.332031 23.511719 32.367188 23.941406 C 32.386719 24.300781 32.382812 24.671875 32.292969 25.023438 C 32.285156 25.058594 32.277344 25.09375 32.269531 25.128906 C 32.132812 25.625 31.886719 26.007812 31.523438 26.363281 C 31.5 26.390625 31.476562 26.414062 31.453125 26.4375 C 31.230469 26.652344 30.957031 26.792969 30.6875 26.933594 C 30.652344 26.953125 30.652344 26.953125 30.621094 26.96875 C 30.464844 27.050781 30.308594 27.105469 30.140625 27.152344 C 30.117188 27.160156 30.089844 27.167969 30.066406 27.175781 C 30.015625 27.1875 29.964844 27.203125 29.917969 27.214844 C 29.859375 27.234375 29.800781 27.25 29.742188 27.265625 C 29.554688 27.320312 29.363281 27.347656 29.167969 27.371094 C 29.140625 27.371094 29.113281 27.375 29.085938 27.378906 C 28.847656 27.402344 28.605469 27.421875 28.363281 27.4375 C 28.3125 27.4375 28.265625 27.441406 28.214844 27.445312 C 27.863281 27.46875 27.511719 27.46875 27.160156 27.457031 C 27.085938 27.457031 27.007812 27.457031 26.933594 27.453125 C 26.78125 27.449219 26.632812 27.441406 26.484375 27.433594 C 26.132812 27.410156 26.132812 27.410156 25.832031 27.550781 C 25.769531 27.648438 25.726562 27.738281 25.6875 27.84375 C 25.644531 27.945312 25.589844 28.042969 25.535156 28.140625 C 25.492188 28.21875 25.449219 28.300781 25.410156 28.378906 C 25.398438 28.402344 25.386719 28.421875 25.375 28.445312 C 25.144531 28.894531 24.933594 29.351562 24.757812 29.828125 C 24.726562 29.90625 24.691406 29.976562 24.65625 30.050781 C 24.679688 30.046875 24.703125 30.039062 24.726562 30.035156 C 25.847656 29.824219 27.394531 29.703125 28.414062 30.316406 C 28.59375 30.4375 28.75 30.574219 28.878906 30.753906 C 28.90625 30.792969 28.90625 30.792969 28.933594 30.832031 C 29.179688 31.339844 29.101562 31.871094 28.945312 32.394531 C 28.933594 32.429688 28.925781 32.464844 28.917969 32.5 C 28.777344 33.042969 28.457031 33.539062 28.074219 33.933594 C 28.046875 33.964844 28.019531 33.992188 27.992188 34.019531 C 27.574219 34.425781 26.992188 34.679688 26.429688 34.804688 C 26.410156 34.8125 26.386719 34.816406 26.363281 34.820312 C 25.429688 35.023438 24.375 34.941406 23.445312 34.761719 C 23.300781 34.738281 23.160156 34.71875 23.015625 34.707031 C 23.007812 34.730469 22.996094 34.757812 22.988281 34.785156 C 22.789062 35.382812 22.789062 35.382812 22.75 35.5 C 22.726562 35.566406 22.703125 35.636719 22.683594 35.703125 C 22.640625 35.824219 22.597656 35.949219 22.550781 36.070312 C 22.339844 36.648438 22.203125 37.261719 22.042969 37.855469 C 22.070312 37.847656 22.070312 37.847656 22.101562 37.839844 C 22.867188 37.632812 23.664062 37.445312 24.457031 37.449219 C 24.511719 37.449219 24.511719 37.449219 24.566406 37.449219 C 24.640625 37.449219 24.714844 37.449219 24.789062 37.449219 C 24.898438 37.449219 25.011719 37.449219 25.125 37.449219 C 25.199219 37.449219 25.269531 37.449219 25.34375 37.449219 C 25.375 37.449219 25.410156 37.449219 25.441406 37.449219 C 26.175781 37.449219 26.953125 37.621094 27.515625 38.132812 C 27.949219 38.589844 28.023438 39.109375 28.019531 39.710938 C 27.988281 40.5 27.675781 41.214844 27.167969 41.808594 C 27.148438 41.832031 27.132812 41.855469 27.113281 41.878906 C 26.832031 42.214844 26.46875 42.453125 26.097656 42.679688 C 26.078125 42.691406 26.054688 42.703125 26.035156 42.714844 C 25.816406 42.847656 25.601562 42.96875 25.355469 43.046875 C 25.269531 43.078125 25.1875 43.109375 25.101562 43.144531 C 24.578125 43.355469 24.007812 43.464844 23.449219 43.550781 C 23.402344 43.558594 23.402344 43.558594 23.351562 43.566406 C 21.742188 43.804688 19.992188 43.667969 18.625 42.710938 C 18.546875 42.644531 18.46875 42.578125 18.390625 42.511719 C 18.363281 42.488281 18.335938 42.464844 18.308594 42.441406 C 17.539062 41.769531 16.980469 40.835938 16.890625 39.800781 C 16.875 39.554688 16.878906 39.304688 16.878906 39.058594 C 16.878906 39.027344 16.878906 38.996094 16.878906 38.964844 C 16.878906 37.882812 17.03125 36.828125 17.265625 35.769531 C 17.285156 35.679688 17.304688 35.589844 17.324219 35.5 C 17.675781 33.882812 18.203125 32.296875 18.792969 30.753906 C 18.816406 30.699219 18.816406 30.699219 18.835938 30.640625 C 19.054688 30.070312 19.289062 29.503906 19.53125 28.945312 C 19.539062 28.921875 19.550781 28.902344 19.558594 28.878906 C 19.75 28.441406 19.949219 28.003906 20.152344 27.574219 C 20.195312 27.480469 20.238281 27.386719 20.28125 27.296875 C 20.746094 26.285156 21.3125 25.265625 22.042969 24.421875 C 22.074219 24.382812 22.109375 24.34375 22.140625 24.304688 C 22.429688 23.960938 22.730469 23.664062 23.082031 23.382812 C 23.113281 23.355469 23.148438 23.328125 23.183594 23.300781 C 23.453125 23.082031 23.742188 22.90625 24.054688 22.746094 C 24.085938 22.730469 24.085938 22.730469 24.121094 22.710938 C 25.027344 22.25 26.023438 22.0625 27.03125 21.988281 C 27.070312 21.984375 27.070312 21.984375 27.113281 21.980469 C 27.578125 21.945312 28.046875 21.933594 28.511719 21.929688 Z M 28.511719 21.929688 "/>
<path style=" stroke:none;fill-rule:nonzero;fill:rgb(99.607843%,99.607843%,99.607843%);fill-opacity:1;" d="M 15.625 22.171875 C 15.699219 22.171875 15.773438 22.171875 15.84375 22.171875 C 16.378906 22.171875 16.839844 22.222656 17.285156 22.546875 C 17.304688 22.558594 17.324219 22.570312 17.347656 22.585938 C 17.621094 22.78125 17.75 23.140625 17.808594 23.460938 C 17.9375 24.371094 17.636719 25.273438 17.351562 26.128906 C 17.34375 26.15625 17.335938 26.179688 17.328125 26.207031 C 17.195312 26.605469 17.039062 26.996094 16.882812 27.386719 C 16.84375 27.488281 16.804688 27.59375 16.765625 27.695312 C 16.6875 27.902344 16.601562 28.105469 16.511719 28.308594 C 16.460938 28.4375 16.40625 28.5625 16.355469 28.691406 C 16.253906 28.953125 16.136719 29.207031 16.019531 29.460938 C 15.996094 29.515625 15.972656 29.574219 15.945312 29.628906 C 15.75 30.066406 15.550781 30.507812 15.347656 30.945312 C 15.339844 30.964844 15.328125 30.988281 15.316406 31.011719 C 15.296875 31.058594 15.277344 31.101562 15.253906 31.148438 C 15.207031 31.257812 15.15625 31.367188 15.109375 31.476562 C 15.023438 31.667969 14.929688 31.851562 14.839844 32.039062 C 14.648438 32.433594 14.460938 32.832031 14.277344 33.230469 C 14.179688 33.441406 14.078125 33.652344 13.972656 33.859375 C 13.847656 34.113281 13.722656 34.367188 13.601562 34.621094 C 13.578125 34.671875 13.550781 34.722656 13.527344 34.773438 C 13.488281 34.851562 13.449219 34.929688 13.414062 35.007812 C 13.328125 35.183594 13.242188 35.355469 13.160156 35.53125 C 12.945312 35.972656 12.730469 36.414062 12.523438 36.855469 C 12.5 36.910156 12.5 36.910156 12.472656 36.96875 C 12.351562 37.226562 12.238281 37.492188 12.128906 37.753906 C 12.144531 37.75 12.164062 37.75 12.183594 37.746094 C 12.265625 37.734375 12.351562 37.71875 12.4375 37.707031 C 12.464844 37.703125 12.492188 37.699219 12.523438 37.691406 C 13.570312 37.53125 14.761719 37.515625 15.664062 38.148438 C 15.957031 38.390625 16.144531 38.71875 16.1875 39.09375 C 16.230469 39.746094 16.089844 40.417969 15.8125 41.003906 C 15.796875 41.039062 15.78125 41.074219 15.765625 41.109375 C 15.585938 41.492188 15.328125 41.804688 15.042969 42.109375 C 15.023438 42.128906 15.007812 42.148438 14.988281 42.167969 C 14.597656 42.597656 14.027344 42.863281 13.5 43.082031 C 13.476562 43.089844 13.449219 43.101562 13.425781 43.113281 C 13.207031 43.203125 12.988281 43.265625 12.757812 43.316406 C 12.722656 43.328125 12.683594 43.335938 12.648438 43.34375 C 12.539062 43.367188 12.433594 43.390625 12.328125 43.414062 C 12.300781 43.421875 12.277344 43.425781 12.25 43.433594 C 10.816406 43.746094 9.050781 43.75 7.761719 42.980469 C 7.660156 42.917969 7.566406 42.851562 7.46875 42.78125 C 7.433594 42.753906 7.433594 42.753906 7.398438 42.726562 C 6.816406 42.257812 6.472656 41.519531 6.390625 40.785156 C 6.375 40.582031 6.375 40.378906 6.378906 40.175781 C 6.378906 40.144531 6.378906 40.117188 6.378906 40.082031 C 6.382812 39.484375 6.449219 38.910156 6.566406 38.324219 C 6.574219 38.292969 6.578125 38.257812 6.585938 38.226562 C 6.613281 38.082031 6.648438 37.9375 6.683594 37.792969 C 6.703125 37.699219 6.726562 37.605469 6.746094 37.515625 C 7.023438 36.308594 7.394531 35.132812 7.804688 33.964844 C 7.835938 33.878906 7.867188 33.792969 7.894531 33.703125 C 7.988281 33.4375 8.089844 33.175781 8.195312 32.914062 C 8.25 32.777344 8.296875 32.636719 8.339844 32.496094 C 8.390625 32.347656 8.449219 32.203125 8.507812 32.058594 C 8.527344 32.011719 8.546875 31.960938 8.566406 31.910156 C 8.699219 31.578125 8.835938 31.246094 8.96875 30.914062 C 8.984375 30.875 9 30.835938 9.015625 30.796875 C 9.089844 30.617188 9.164062 30.445312 9.25 30.273438 C 9.292969 30.1875 9.328125 30.097656 9.359375 30.003906 C 9.421875 29.835938 9.496094 29.675781 9.570312 29.511719 C 9.613281 29.417969 9.65625 29.320312 9.695312 29.226562 C 9.863281 28.839844 10.035156 28.457031 10.214844 28.074219 C 10.230469 28.035156 10.25 27.996094 10.269531 27.957031 C 10.359375 27.765625 10.449219 27.574219 10.546875 27.382812 C 10.601562 27.273438 10.652344 27.160156 10.707031 27.046875 C 11.070312 26.277344 11.460938 25.523438 11.890625 24.789062 C 11.910156 24.757812 11.929688 24.722656 11.953125 24.6875 C 12.605469 23.578125 13.386719 22.636719 14.667969 22.261719 C 14.984375 22.179688 15.300781 22.167969 15.625 22.171875 Z M 15.625 22.171875 "/>
<path style=" stroke:none;fill-rule:nonzero;fill:rgb(0.392157%,0.392157%,0.392157%);fill-opacity:1;" d="M 55.417969 26.640625 C 55.621094 26.847656 55.667969 27.085938 55.664062 27.367188 C 55.660156 27.398438 55.660156 27.429688 55.660156 27.464844 C 55.648438 27.863281 55.566406 28.253906 55.476562 28.640625 C 55.464844 28.695312 55.464844 28.695312 55.453125 28.75 C 55.359375 29.148438 55.25 29.539062 55.125 29.925781 C 55.070312 30.09375 55.023438 30.261719 54.976562 30.433594 C 54.894531 30.726562 54.796875 31.015625 54.691406 31.304688 C 54.613281 31.523438 54.542969 31.738281 54.472656 31.957031 C 54.464844 31.996094 54.453125 32.03125 54.441406 32.066406 C 54.417969 32.136719 54.394531 32.210938 54.371094 32.28125 C 54.3125 32.476562 54.246094 32.664062 54.167969 32.851562 C 54.117188 32.980469 54.070312 33.113281 54.027344 33.246094 C 53.933594 33.511719 53.832031 33.777344 53.726562 34.039062 C 53.65625 34.207031 53.59375 34.378906 53.53125 34.546875 C 53.460938 34.746094 53.378906 34.945312 53.296875 35.140625 C 53.277344 35.199219 53.253906 35.257812 53.230469 35.316406 C 53.152344 35.503906 53.074219 35.691406 52.996094 35.878906 C 52.984375 35.90625 52.972656 35.9375 52.960938 35.964844 C 51.996094 38.308594 51.996094 38.308594 51.144531 38.6875 C 50.824219 38.820312 50.445312 38.863281 50.117188 38.730469 C 49.839844 38.582031 49.671875 38.355469 49.578125 38.054688 C 49.5625 37.902344 49.5625 37.753906 49.574219 37.601562 C 49.578125 37.539062 49.582031 37.476562 49.585938 37.414062 C 49.601562 37.121094 49.652344 36.84375 49.722656 36.558594 C 49.734375 36.511719 49.742188 36.46875 49.753906 36.421875 C 49.863281 35.96875 49.984375 35.515625 50.140625 35.074219 C 50.195312 34.90625 50.246094 34.742188 50.292969 34.574219 C 50.378906 34.277344 50.480469 33.984375 50.582031 33.691406 C 50.617188 33.589844 50.652344 33.488281 50.6875 33.382812 C 50.699219 33.347656 50.699219 33.347656 50.714844 33.308594 C 50.792969 33.078125 50.871094 32.84375 50.949219 32.609375 C 51.03125 32.363281 51.121094 32.125 51.21875 31.882812 C 51.296875 31.695312 51.363281 31.507812 51.425781 31.3125 C 51.460938 31.203125 51.503906 31.09375 51.550781 30.984375 C 51.613281 30.832031 51.671875 30.671875 51.734375 30.515625 C 51.816406 30.304688 51.902344 30.09375 51.992188 29.882812 C 52.003906 29.847656 52.019531 29.816406 52.035156 29.78125 C 53.21875 26.933594 53.21875 26.933594 53.949219 26.566406 C 54.445312 26.363281 54.972656 26.34375 55.417969 26.640625 Z M 55.417969 26.640625 "/>
<path style=" stroke:none;fill-rule:nonzero;fill:rgb(96.470588%,0%,0%);fill-opacity:1;" d="M 64.742188 18.539062 C 64.816406 18.585938 64.886719 18.636719 64.957031 18.691406 C 64.992188 18.71875 65.027344 18.742188 65.0625 18.769531 C 65.386719 19.078125 65.527344 19.429688 65.542969 19.871094 C 65.542969 19.90625 65.542969 19.9375 65.542969 19.96875 C 65.542969 20 65.542969 20.03125 65.542969 20.0625 C 65.542969 20.453125 65.359375 20.824219 65.09375 21.109375 C 65.027344 21.167969 64.960938 21.21875 64.890625 21.273438 C 64.867188 21.289062 64.847656 21.304688 64.824219 21.320312 C 64.554688 21.503906 64.261719 21.558594 63.9375 21.554688 C 63.90625 21.554688 63.875 21.554688 63.84375 21.554688 C 63.476562 21.546875 63.199219 21.429688 62.914062 21.207031 C 62.890625 21.1875 62.867188 21.171875 62.84375 21.152344 C 62.59375 20.929688 62.367188 20.53125 62.335938 20.195312 C 62.320312 19.660156 62.367188 19.265625 62.746094 18.859375 C 63.269531 18.316406 64.0625 18.164062 64.742188 18.539062 Z M 64.742188 18.539062 "/>
<path style=" stroke:none;fill-rule:nonzero;fill:rgb(3.529412%,0%,0%);fill-opacity:1;" d="M 64.742188 18.539062 C 64.816406 18.585938 64.886719 18.636719 64.957031 18.691406 C 64.992188 18.71875 65.027344 18.742188 65.0625 18.769531 C 65.386719 19.078125 65.527344 19.429688 65.542969 19.871094 C 65.542969 19.90625 65.542969 19.9375 65.542969 19.96875 C 65.542969 20 65.542969 20.03125 65.542969 20.0625 C 65.542969 20.453125 65.359375 20.824219 65.09375 21.109375 C 65.027344 21.167969 64.960938 21.21875 64.890625 21.273438 C 64.867188 21.289062 64.847656 21.304688 64.824219 21.320312 C 64.554688 21.503906 64.261719 21.558594 63.9375 21.554688 C 63.90625 21.554688 63.875 21.554688 63.84375 21.554688 C 63.476562 21.546875 63.199219 21.429688 62.914062 21.207031 C 62.890625 21.1875 62.867188 21.171875 62.84375 21.152344 C 62.59375 20.929688 62.367188 20.53125 62.335938 20.195312 C 62.320312 19.660156 62.367188 19.265625 62.746094 18.859375 C 63.269531 18.316406 64.0625 18.164062 64.742188 18.539062 Z M 62.945312 19.09375 C 62.867188 19.203125 62.804688 19.3125 62.746094 19.429688 C 62.734375 19.453125 62.71875 19.480469 62.707031 19.503906 C 62.605469 19.828125 62.644531 20.246094 62.792969 20.546875 C 62.949219 20.800781 63.109375 21.007812 63.382812 21.136719 C 63.421875 21.160156 63.460938 21.179688 63.5 21.199219 C 63.824219 21.308594 64.195312 21.269531 64.5 21.121094 C 64.824219 20.9375 65.066406 20.691406 65.191406 20.335938 C 65.285156 19.949219 65.242188 19.582031 65.039062 19.242188 C 64.816406 18.929688 64.492188 18.734375 64.117188 18.660156 C 63.65625 18.613281 63.273438 18.761719 62.945312 19.09375 Z M 62.945312 19.09375 "/>
<path style=" stroke:none;fill-rule:nonzero;fill:rgb(2.745098%,0%,0%);fill-opacity:1;" d="M 63.316406 19.128906 C 63.558594 19.125 63.558594 19.125 63.804688 19.121094 C 63.882812 19.121094 63.882812 19.121094 63.957031 19.121094 C 64.019531 19.117188 64.019531 19.117188 64.082031 19.117188 C 64.121094 19.117188 64.164062 19.117188 64.203125 19.117188 C 64.367188 19.132812 64.476562 19.191406 64.601562 19.296875 C 64.679688 19.441406 64.679688 19.570312 64.65625 19.730469 C 64.582031 19.878906 64.503906 19.964844 64.351562 20.03125 C 64.320312 20.03125 64.289062 20.03125 64.253906 20.03125 C 64.253906 20.054688 64.253906 20.078125 64.253906 20.101562 C 64.273438 20.109375 64.292969 20.117188 64.3125 20.125 C 64.515625 20.242188 64.648438 20.53125 64.753906 20.738281 C 64.753906 20.757812 64.753906 20.78125 64.753906 20.804688 C 64.613281 20.804688 64.46875 20.804688 64.320312 20.804688 C 64.304688 20.773438 64.289062 20.742188 64.277344 20.707031 C 64.128906 20.382812 64.128906 20.382812 63.882812 20.132812 C 63.808594 20.121094 63.730469 20.113281 63.648438 20.101562 C 63.648438 20.320312 63.648438 20.542969 63.648438 20.769531 C 63.539062 20.769531 63.429688 20.769531 63.316406 20.769531 C 63.316406 20.226562 63.316406 19.6875 63.316406 19.128906 Z M 63.316406 19.128906 "/>
<path style=" stroke:none;fill-rule:nonzero;fill:rgb(96.862745%,0%,0%);fill-opacity:1;" d="M 63.648438 19.398438 C 63.726562 19.394531 63.800781 19.390625 63.875 19.390625 C 63.9375 19.386719 63.9375 19.386719 64 19.386719 C 64.125 19.398438 64.1875 19.417969 64.285156 19.496094 C 64.304688 19.613281 64.304688 19.613281 64.285156 19.730469 C 64.203125 19.824219 64.15625 19.832031 64.03125 19.84375 C 63.984375 19.839844 63.9375 19.839844 63.894531 19.839844 C 63.871094 19.835938 63.847656 19.835938 63.820312 19.835938 C 63.765625 19.835938 63.707031 19.832031 63.648438 19.832031 C 63.648438 19.6875 63.648438 19.542969 63.648438 19.398438 Z M 63.648438 19.398438 "/>
<path style=" stroke:none;fill-rule:nonzero;fill:rgb(14.509805%,14.509805%,14.509805%);fill-opacity:1;" d="M 38.59375 26.765625 C 38.613281 26.777344 38.636719 26.789062 38.660156 26.800781 C 38.480469 26.976562 38.304688 27.152344 38.121094 27.335938 C 38.101562 27.324219 38.078125 27.3125 38.054688 27.300781 C 38.402344 26.910156 38.402344 26.910156 38.59375 26.765625 Z M 38.59375 26.765625 "/>
<path style=" stroke:none;fill-rule:nonzero;fill:rgb(81.568629%,0%,0%);fill-opacity:1;" d="M 63.214844 18.859375 C 63.238281 18.871094 63.257812 18.882812 63.28125 18.894531 C 63.171875 19.003906 63.058594 19.113281 62.945312 19.230469 C 62.925781 19.21875 62.902344 19.207031 62.878906 19.195312 C 62.984375 19.066406 63.082031 18.960938 63.214844 18.859375 Z M 63.214844 18.859375 "/>
<path style=" stroke:none;fill-rule:nonzero;fill:rgb(76.078433%,76.078433%,0%);fill-opacity:1;" d="M 42.746094 41.605469 C 42.769531 41.605469 42.789062 41.605469 42.8125 41.605469 C 42.8125 41.640625 42.8125 41.671875 42.8125 41.707031 C 42.730469 41.78125 42.730469 41.78125 42.644531 41.839844 C 42.625 41.832031 42.601562 41.820312 42.578125 41.808594 C 42.632812 41.738281 42.6875 41.671875 42.746094 41.605469 Z M 42.746094 41.605469 "/>
</g>
</svg>
