<svg width="22" height="23" viewBox="0 0 22 23" fill="none" xmlns="http://www.w3.org/2000/svg">
<g clip-path="url(#clip0_1440_10107)">
<path d="M19.5334 11.2865L11.322 3.21958C10.9936 2.8969 10.5374 2.69971 10.0356 2.69971H3.64897C2.64536 2.69971 1.82422 3.5064 1.82422 4.49236V10.7667C1.82422 11.2596 2.02494 11.7078 2.36252 12.0394L10.5739 20.1064C10.9023 20.4291 11.3585 20.6263 11.8603 20.6263C12.3621 20.6263 12.8183 20.4291 13.1468 20.0974L19.5334 13.8231C19.871 13.5005 20.0717 13.0523 20.0717 12.5593C20.0717 12.0663 19.8618 11.6092 19.5334 11.2865ZM5.01753 7.18134C4.26026 7.18134 3.64897 6.5808 3.64897 5.83685C3.64897 5.0929 4.26026 4.49236 5.01753 4.49236C5.7748 4.49236 6.38609 5.0929 6.38609 5.83685C6.38609 6.5808 5.7748 7.18134 5.01753 7.18134Z" fill="white"/>
</g>
<defs>
<clipPath id="clip0_1440_10107">
<rect width="21.897" height="21.5119" fill="white" transform="translate(0 0.907104)"/>
</clipPath>
</defs>
</svg>
