<svg width="14" height="16" viewBox="0 0 14 16" fill="none" xmlns="http://www.w3.org/2000/svg">
<path fill-rule="evenodd" clip-rule="evenodd" d="M1.35938 6.79352C1.37018 3.61308 3.9572 1.04358 7.13764 1.05436C10.3181 1.06519 12.8876 3.65221 12.8768 6.83265V6.89787C12.8376 8.96526 11.6833 10.8761 10.2681 12.3696C9.45871 13.2101 8.55488 13.9541 7.57459 14.587C7.31247 14.8137 6.92367 14.8137 6.66155 14.587C5.20018 13.6358 3.91758 12.4349 2.87242 11.0392C1.94089 9.82208 1.412 8.34484 1.35938 6.81308V6.79352Z" stroke="#E8C14A" stroke-linecap="round" stroke-linejoin="round"/>
<path d="M7.11714 8.75002C8.13646 8.75002 8.96279 7.92369 8.96279 6.90437C8.96279 5.88504 8.13646 5.05872 7.11714 5.05872C6.09781 5.05872 5.27148 5.88504 5.27148 6.90437C5.27148 7.92369 6.09781 8.75002 7.11714 8.75002Z" stroke="#E8C14A" stroke-linecap="round" stroke-linejoin="round"/>
</svg>
