<svg width="22" height="22" viewBox="0 0 22 22" fill="none" xmlns="http://www.w3.org/2000/svg">
<path d="M17.0993 11.2065L10.5368 17.706L3.97426 11.2065C3.5414 10.7853 3.20045 10.279 2.97287 9.71958C2.74528 9.16013 2.636 8.55961 2.65191 7.95584C2.66781 7.35208 2.80856 6.75815 3.06528 6.21145C3.322 5.66475 3.68913 5.17712 4.14356 4.77928C4.598 4.38144 5.12988 4.082 5.70572 3.89982C6.28157 3.71764 6.88889 3.65666 7.48946 3.72073C8.09003 3.78479 8.67082 3.97251 9.19528 4.27207C9.71973 4.57163 10.1765 4.97653 10.5368 5.46128C10.8986 4.98005 11.3559 4.57868 11.88 4.28231C12.4041 3.98593 12.9837 3.80092 13.5826 3.73886C14.1815 3.67679 14.7867 3.73901 15.3604 3.92162C15.9342 4.10423 16.464 4.40329 16.9169 4.80009C17.3697 5.1969 17.7358 5.6829 17.9921 6.22768C18.2485 6.77246 18.3897 7.3643 18.4068 7.96615C18.4239 8.56799 18.3166 9.1669 18.0916 9.72537C17.8666 10.2838 17.5288 10.7899 17.0993 11.2118" stroke="#303639" stroke-width="2" stroke-linecap="round" stroke-linejoin="round"/>
</svg>
