<svg width="69" height="68" viewBox="0 0 69 68" fill="none" xmlns="http://www.w3.org/2000/svg">
<rect x="0.884766" y="0.0685425" width="67.8432" height="67.8432" rx="17.5079" fill="white"/>
<g clip-path="url(#clip0_3_2215)">
<path d="M48.4396 35.771C48.3829 29.3368 53.6041 26.2479 53.8403 26.0973C50.9022 21.7235 46.3297 21.1244 44.6984 21.0539C40.8093 20.6533 37.1059 23.3833 35.1346 23.3833C33.1632 23.3833 30.1149 21.1115 26.8902 21.1756C22.6452 21.2397 18.7372 23.6845 16.5517 27.5489C12.1461 35.3256 15.4274 46.8513 19.7165 53.1636C21.817 56.2493 24.3174 59.7259 27.605 59.5978C30.7731 59.4696 31.9697 57.515 35.7927 57.515C39.6158 57.515 40.6928 59.5978 44.0403 59.5369C47.4445 59.4696 49.6047 56.3839 51.6895 53.2886C54.0954 49.7062 55.0905 46.2393 55.1472 46.0566C55.0716 46.0246 48.5089 43.4644 48.4396 35.771Z" fill="#222222"/>
<path d="M42.1514 16.6887C43.8959 14.5387 45.0737 11.549 44.7493 8.56921C42.2361 8.67186 39.1943 10.2739 37.3898 12.424C35.7743 14.3242 34.3572 17.3681 34.7412 20.2873C37.544 20.5084 40.4065 18.8356 42.1514 16.6887Z" fill="#222222"/>
</g>
<defs>
<clipPath id="clip0_3_2215">
<rect width="40.7059" height="50.8824" fill="white" transform="translate(14.4531 8.54883)"/>
</clipPath>
</defs>
</svg>
