<svg width="32" height="32" viewBox="0 0 32 32" fill="none" xmlns="http://www.w3.org/2000/svg">
<path d="M13.2 0H11.4L10.2 4.6L9 0H7C7.4 1.2 7.8 2.2 8.2 3.4C8.8 5 9.2 6.4 9.2 7.2V12H11V7.2L13.2 0ZM18 9V6C18 5 17.8 4.4 17.4 3.8C17 3.2 16.4 3 15.6 3C14.8 3 14.2 3.4 13.8 4C13.4 4.4 13.2 5 13.2 6V9.2C13.2 10.2 13.4 10.8 13.8 11.2C14.2 11.8 14.8 12 15.6 12C16.4 12 17 11.6 17.4 11C17.8 10.8 18 10 18 9ZM16.4 9.4C16.4 10.2 16.2 10.6 15.6 10.6C15 10.6 14.8 10.2 14.8 9.4V5.6C14.8 4.8 15 4.4 15.6 4.4C16.2 4.4 16.4 4.8 16.4 5.6V9.4ZM24 12V3H22.4V9.8C22 10.4 21.8 10.6 21.4 10.6C21.2 10.6 21 10.4 21 10.2V3H19.4V10C19.4 10.6 19.4 11 19.6 11.4C19.6 11.8 20 12 20.6 12C21.2 12 21.8 11.6 22.4 11V12H24ZM24.8 21C24.2 21 24 21.4 24 22.2V23H25.6V22.2C25.6 21.4 25.4 21 24.8 21ZM19 21C18.8 21 18.4 21.2 18.2 21.4V26.8C18.4 27 18.8 27.2 19 27.2C19.4 27.2 19.6 26.8 19.6 26V22.2C19.6 21.4 19.4 21 19 21Z" fill="white"/>
<path d="M28.7998 16.6C28.3998 15.2 27.1998 14 25.9998 14C22.7998 13.6 19.3998 13.6 15.9998 13.6C12.5998 13.6 9.3998 13.6 5.9998 14C4.7998 14 3.5998 15.2 3.1998 16.6C2.7998 18.6 2.7998 20.8 2.7998 22.8C2.7998 24.8 2.7998 27 3.1998 29C3.5998 30.4 4.5998 31.4 5.9998 31.6C9.3998 32 12.5998 32 15.9998 32C19.3998 32 22.5998 32 25.9998 31.6C27.3998 31.4 28.5998 30.4 28.7998 29C29.1998 27 29.1998 24.8 29.1998 22.8C29.1998 20.8 29.1998 18.6 28.7998 16.6ZM10.3998 18.4H8.3998V28.6H6.5998V18.4H4.7998V16.6H10.3998V18.4ZM15.1998 28.6H13.5998V27.6C12.9998 28.4 12.3998 28.6 11.7998 28.6C11.1998 28.6 10.9998 28.4 10.7998 28C10.7998 27.8 10.5998 27.4 10.5998 26.6V19.6H12.1998V26.6C12.1998 26.8 12.3998 27 12.5998 27C12.9998 27 13.1998 26.8 13.5998 26.2V19.6H15.1998V28.6ZM21.1998 25.8C21.1998 26.6 21.1998 27.2 20.9998 27.6C20.7998 28.2 20.3998 28.6 19.7998 28.6C19.1998 28.6 18.5998 28.2 18.1998 27.6V28.4H16.5998V16.6H18.1998V20.4C18.7998 19.8 19.1998 19.4 19.7998 19.4C20.3998 19.4 20.7998 19.8 20.9998 20.4C21.1998 20.8 21.1998 21.4 21.1998 22.2V25.8ZM27.1998 24.4H23.9998V26C23.9998 26.8 24.1998 27.2 24.7998 27.2C25.1998 27.2 25.3998 27 25.5998 26.6V25.6H27.1998V26.8C27.1998 27.2 26.9998 27.4 26.7998 27.8C26.3998 28.4 25.7998 28.8 24.7998 28.8C23.9998 28.8 23.3998 28.4 22.7998 27.8C22.3998 27.4 22.1998 26.6 22.1998 25.8V22.8C22.1998 21.8 22.3998 21.2 22.5998 20.8C22.9998 20.2 23.5998 19.8 24.5998 19.8C25.3998 19.8 25.9998 20.2 26.3998 20.8C26.7998 21.2 26.7998 22 26.7998 22.8V24.4H27.1998Z" fill="white"/>
</svg>
